%TF.GenerationSoftware,KiCad,Pcbnew,8.0.5*%
%TF.CreationDate,2025-03-17T19:25:21-04:00*%
%TF.ProjectId,Remote_Controller,52656d6f-7465-45f4-936f-6e74726f6c6c,rev?*%
%TF.SameCoordinates,Original*%
%TF.FileFunction,Copper,L1,Top*%
%TF.FilePolarity,Positive*%
%FSLAX46Y46*%
G04 Gerber Fmt 4.6, Leading zero omitted, Abs format (unit mm)*
G04 Created by KiCad (PCBNEW 8.0.5) date 2025-03-17 19:25:21*
%MOMM*%
%LPD*%
G01*
G04 APERTURE LIST*
G04 Aperture macros list*
%AMRoundRect*
0 Rectangle with rounded corners*
0 $1 Rounding radius*
0 $2 $3 $4 $5 $6 $7 $8 $9 X,Y pos of 4 corners*
0 Add a 4 corners polygon primitive as box body*
4,1,4,$2,$3,$4,$5,$6,$7,$8,$9,$2,$3,0*
0 Add four circle primitives for the rounded corners*
1,1,$1+$1,$2,$3*
1,1,$1+$1,$4,$5*
1,1,$1+$1,$6,$7*
1,1,$1+$1,$8,$9*
0 Add four rect primitives between the rounded corners*
20,1,$1+$1,$2,$3,$4,$5,0*
20,1,$1+$1,$4,$5,$6,$7,0*
20,1,$1+$1,$6,$7,$8,$9,0*
20,1,$1+$1,$8,$9,$2,$3,0*%
G04 Aperture macros list end*
%TA.AperFunction,SMDPad,CuDef*%
%ADD10RoundRect,0.140000X-0.170000X0.140000X-0.170000X-0.140000X0.170000X-0.140000X0.170000X0.140000X0*%
%TD*%
%TA.AperFunction,SMDPad,CuDef*%
%ADD11RoundRect,0.140000X0.170000X-0.140000X0.170000X0.140000X-0.170000X0.140000X-0.170000X-0.140000X0*%
%TD*%
%TA.AperFunction,SMDPad,CuDef*%
%ADD12R,2.000000X1.500000*%
%TD*%
%TA.AperFunction,SMDPad,CuDef*%
%ADD13RoundRect,0.135000X0.185000X-0.135000X0.185000X0.135000X-0.185000X0.135000X-0.185000X-0.135000X0*%
%TD*%
%TA.AperFunction,SMDPad,CuDef*%
%ADD14RoundRect,0.140000X0.140000X0.170000X-0.140000X0.170000X-0.140000X-0.170000X0.140000X-0.170000X0*%
%TD*%
%TA.AperFunction,SMDPad,CuDef*%
%ADD15RoundRect,0.135000X0.135000X0.185000X-0.135000X0.185000X-0.135000X-0.185000X0.135000X-0.185000X0*%
%TD*%
%TA.AperFunction,SMDPad,CuDef*%
%ADD16RoundRect,0.150000X-0.150000X0.587500X-0.150000X-0.587500X0.150000X-0.587500X0.150000X0.587500X0*%
%TD*%
%TA.AperFunction,SMDPad,CuDef*%
%ADD17RoundRect,0.225000X0.250000X-0.225000X0.250000X0.225000X-0.250000X0.225000X-0.250000X-0.225000X0*%
%TD*%
%TA.AperFunction,SMDPad,CuDef*%
%ADD18RoundRect,0.150000X-0.512500X-0.150000X0.512500X-0.150000X0.512500X0.150000X-0.512500X0.150000X0*%
%TD*%
%TA.AperFunction,SMDPad,CuDef*%
%ADD19RoundRect,0.150000X-0.150000X0.825000X-0.150000X-0.825000X0.150000X-0.825000X0.150000X0.825000X0*%
%TD*%
%TA.AperFunction,SMDPad,CuDef*%
%ADD20R,1.000000X1.250000*%
%TD*%
%TA.AperFunction,ComponentPad*%
%ADD21C,1.778000*%
%TD*%
%TA.AperFunction,ComponentPad*%
%ADD22C,2.286000*%
%TD*%
%TA.AperFunction,SMDPad,CuDef*%
%ADD23RoundRect,0.200000X0.200000X0.275000X-0.200000X0.275000X-0.200000X-0.275000X0.200000X-0.275000X0*%
%TD*%
%TA.AperFunction,ComponentPad*%
%ADD24R,1.100000X1.300000*%
%TD*%
%TA.AperFunction,ComponentPad*%
%ADD25O,1.100000X1.300000*%
%TD*%
%TA.AperFunction,ComponentPad*%
%ADD26O,2.700000X1.500000*%
%TD*%
%TA.AperFunction,SMDPad,CuDef*%
%ADD27RoundRect,0.200000X-0.275000X0.200000X-0.275000X-0.200000X0.275000X-0.200000X0.275000X0.200000X0*%
%TD*%
%TA.AperFunction,SMDPad,CuDef*%
%ADD28RoundRect,0.150000X-0.150000X-0.425000X0.150000X-0.425000X0.150000X0.425000X-0.150000X0.425000X0*%
%TD*%
%TA.AperFunction,SMDPad,CuDef*%
%ADD29RoundRect,0.075000X-0.075000X-0.500000X0.075000X-0.500000X0.075000X0.500000X-0.075000X0.500000X0*%
%TD*%
%TA.AperFunction,ComponentPad*%
%ADD30O,1.000000X2.100000*%
%TD*%
%TA.AperFunction,ComponentPad*%
%ADD31O,1.000000X1.800000*%
%TD*%
%TA.AperFunction,SMDPad,CuDef*%
%ADD32RoundRect,0.150000X0.587500X0.150000X-0.587500X0.150000X-0.587500X-0.150000X0.587500X-0.150000X0*%
%TD*%
%TA.AperFunction,SMDPad,CuDef*%
%ADD33RoundRect,0.140000X-0.140000X-0.170000X0.140000X-0.170000X0.140000X0.170000X-0.140000X0.170000X0*%
%TD*%
%TA.AperFunction,SMDPad,CuDef*%
%ADD34RoundRect,0.135000X-0.185000X0.135000X-0.185000X-0.135000X0.185000X-0.135000X0.185000X0.135000X0*%
%TD*%
%TA.AperFunction,SMDPad,CuDef*%
%ADD35RoundRect,0.250000X0.325000X0.650000X-0.325000X0.650000X-0.325000X-0.650000X0.325000X-0.650000X0*%
%TD*%
%TA.AperFunction,SMDPad,CuDef*%
%ADD36RoundRect,0.135000X-0.135000X-0.185000X0.135000X-0.185000X0.135000X0.185000X-0.135000X0.185000X0*%
%TD*%
%TA.AperFunction,SMDPad,CuDef*%
%ADD37R,1.500000X0.900000*%
%TD*%
%TA.AperFunction,SMDPad,CuDef*%
%ADD38R,0.900000X1.500000*%
%TD*%
%TA.AperFunction,SMDPad,CuDef*%
%ADD39R,0.900000X0.900000*%
%TD*%
%TA.AperFunction,HeatsinkPad*%
%ADD40C,0.600000*%
%TD*%
%TA.AperFunction,SMDPad,CuDef*%
%ADD41R,3.800000X3.800000*%
%TD*%
%TA.AperFunction,SMDPad,CuDef*%
%ADD42RoundRect,0.218750X0.256250X-0.218750X0.256250X0.218750X-0.256250X0.218750X-0.256250X-0.218750X0*%
%TD*%
%TA.AperFunction,SMDPad,CuDef*%
%ADD43RoundRect,0.200000X-0.200000X-0.275000X0.200000X-0.275000X0.200000X0.275000X-0.200000X0.275000X0*%
%TD*%
%TA.AperFunction,SMDPad,CuDef*%
%ADD44RoundRect,0.150000X0.150000X-0.512500X0.150000X0.512500X-0.150000X0.512500X-0.150000X-0.512500X0*%
%TD*%
%TA.AperFunction,WasherPad*%
%ADD45C,2.300000*%
%TD*%
%TA.AperFunction,ComponentPad*%
%ADD46R,2.410000X4.020000*%
%TD*%
%TA.AperFunction,ComponentPad*%
%ADD47O,2.410000X4.020000*%
%TD*%
%TA.AperFunction,ViaPad*%
%ADD48C,0.800000*%
%TD*%
%TA.AperFunction,ViaPad*%
%ADD49C,0.450000*%
%TD*%
%TA.AperFunction,ViaPad*%
%ADD50C,0.700000*%
%TD*%
%TA.AperFunction,Conductor*%
%ADD51C,0.300000*%
%TD*%
%TA.AperFunction,Conductor*%
%ADD52C,0.150000*%
%TD*%
%TA.AperFunction,Conductor*%
%ADD53C,0.250000*%
%TD*%
%TA.AperFunction,Conductor*%
%ADD54C,0.267200*%
%TD*%
G04 APERTURE END LIST*
D10*
%TO.P,C313,1*%
%TO.N,CONNECT_BT*%
X96000000Y-57410000D03*
%TO.P,C313,2*%
%TO.N,+3V3*%
X96000000Y-58370000D03*
%TD*%
D11*
%TO.P,C304,1*%
%TO.N,GND*%
X132000000Y-109650000D03*
%TO.P,C304,2*%
%TO.N,/[3] User Interface/LV2*%
X132000000Y-108690000D03*
%TD*%
D12*
%TO.P,SW304,1,1*%
%TO.N,LOCK_ROBOT*%
X188850000Y-83500000D03*
X203150000Y-83500000D03*
%TO.P,SW304,2,2*%
%TO.N,+3V3*%
X188850000Y-88500000D03*
X203150000Y-88500000D03*
%TD*%
D11*
%TO.P,C305,1*%
%TO.N,GND*%
X133500000Y-109650000D03*
%TO.P,C305,2*%
%TO.N,/[3] User Interface/LV3*%
X133500000Y-108690000D03*
%TD*%
D13*
%TO.P,R302,1*%
%TO.N,RECORD_DATA*%
X190980000Y-70630000D03*
%TO.P,R302,2*%
%TO.N,GND*%
X190980000Y-69610000D03*
%TD*%
D10*
%TO.P,C312,1*%
%TO.N,LOCK_ROBOT*%
X206000000Y-86410000D03*
%TO.P,C312,2*%
%TO.N,+3V3*%
X206000000Y-87370000D03*
%TD*%
%TO.P,C203,1*%
%TO.N,/[2] Microcontroller And Bluetooth/ENABLE*%
X123400000Y-50520000D03*
%TO.P,C203,2*%
%TO.N,GND*%
X123400000Y-51480000D03*
%TD*%
D14*
%TO.P,C301,1*%
%TO.N,GND*%
X143730000Y-108850000D03*
%TO.P,C301,2*%
%TO.N,/[3] User Interface/LVOUT*%
X142770000Y-108850000D03*
%TD*%
D11*
%TO.P,C303,1*%
%TO.N,GND*%
X130500000Y-109650000D03*
%TO.P,C303,2*%
%TO.N,/[3] User Interface/LV1*%
X130500000Y-108690000D03*
%TD*%
D15*
%TO.P,R205,1*%
%TO.N,/[2] Microcontroller And Bluetooth/DTR*%
X157525000Y-119500000D03*
%TO.P,R205,2*%
%TO.N,/[2] Microcontroller And Bluetooth/DTR_R*%
X156505000Y-119500000D03*
%TD*%
D13*
%TO.P,R307,1*%
%TO.N,FUNC_7*%
X91000000Y-70630000D03*
%TO.P,R307,2*%
%TO.N,GND*%
X91000000Y-69610000D03*
%TD*%
D10*
%TO.P,C316,1*%
%TO.N,FUNC_8*%
X96000000Y-86725000D03*
%TO.P,C316,2*%
%TO.N,+3V3*%
X96000000Y-87685000D03*
%TD*%
D12*
%TO.P,SW307,1,1*%
%TO.N,FUNC_7*%
X93850000Y-68500000D03*
X108150000Y-68500000D03*
%TO.P,SW307,2,2*%
%TO.N,+3V3*%
X93850000Y-73500000D03*
X108150000Y-73500000D03*
%TD*%
D13*
%TO.P,R301,1*%
%TO.N,SAVE_DATA*%
X206000000Y-55630000D03*
%TO.P,R301,2*%
%TO.N,GND*%
X206000000Y-54610000D03*
%TD*%
D10*
%TO.P,C314,1*%
%TO.N,FUNC_6*%
X80720000Y-72000000D03*
%TO.P,C314,2*%
%TO.N,+3V3*%
X80720000Y-72960000D03*
%TD*%
D16*
%TO.P,Q103,1,G*%
%TO.N,/[1] Power/GATE_U*%
X127137500Y-115662500D03*
%TO.P,Q103,2,S*%
%TO.N,VBUS*%
X125237500Y-115662500D03*
%TO.P,Q103,3,D*%
%TO.N,VCC*%
X126187500Y-117537500D03*
%TD*%
D17*
%TO.P,C201,1*%
%TO.N,+3V3*%
X127700000Y-49075000D03*
%TO.P,C201,2*%
%TO.N,GND*%
X127700000Y-47525000D03*
%TD*%
D10*
%TO.P,C315,1*%
%TO.N,FUNC_7*%
X91000000Y-72040000D03*
%TO.P,C315,2*%
%TO.N,+3V3*%
X91000000Y-73000000D03*
%TD*%
D14*
%TO.P,C113,1*%
%TO.N,VBUS*%
X122080000Y-114137500D03*
%TO.P,C113,2*%
%TO.N,/[1] Power/VCAP_U*%
X121120000Y-114137500D03*
%TD*%
D10*
%TO.P,C309,1*%
%TO.N,SAVE_DATA*%
X206000000Y-57040000D03*
%TO.P,C309,2*%
%TO.N,+3V3*%
X206000000Y-58000000D03*
%TD*%
D12*
%TO.P,SW303,1,1*%
%TO.N,STOP_ROBOT*%
X203850000Y-68500000D03*
X218150000Y-68500000D03*
%TO.P,SW303,2,2*%
%TO.N,+3V3*%
X203850000Y-73500000D03*
X218150000Y-73500000D03*
%TD*%
D18*
%TO.P,U104,1,VCAP*%
%TO.N,/[1] Power/VCAP_U*%
X120462500Y-115687500D03*
%TO.P,U104,2,GND*%
%TO.N,GND*%
X120462500Y-116637500D03*
%TO.P,U104,3,EN*%
%TO.N,VBUS*%
X120462500Y-117587500D03*
%TO.P,U104,4,CATHODE*%
%TO.N,VCC*%
X122737500Y-117587500D03*
%TO.P,U104,5,GATE*%
%TO.N,/[1] Power/GATE_U*%
X122737500Y-116637500D03*
%TO.P,U104,6,ANODE*%
%TO.N,VBUS*%
X122737500Y-115687500D03*
%TD*%
D19*
%TO.P,U203,1,GND*%
%TO.N,GND*%
X161910000Y-112150000D03*
%TO.P,U203,2,TXD*%
%TO.N,/[2] Microcontroller And Bluetooth/UART_RX*%
X160640000Y-112150000D03*
%TO.P,U203,3,RXD*%
%TO.N,/[2] Microcontroller And Bluetooth/UART_TX*%
X159370000Y-112150000D03*
%TO.P,U203,4,V3*%
%TO.N,+3V3*%
X158100000Y-112150000D03*
%TO.P,U203,5,UD+*%
%TO.N,/[2] Microcontroller And Bluetooth/D+*%
X156830000Y-112150000D03*
%TO.P,U203,6,UD-*%
%TO.N,/[2] Microcontroller And Bluetooth/D-*%
X155560000Y-112150000D03*
%TO.P,U203,7,NC*%
%TO.N,unconnected-(U203-NC-Pad7)*%
X154290000Y-112150000D03*
%TO.P,U203,8,NC*%
%TO.N,unconnected-(U203-NC-Pad8)*%
X153020000Y-112150000D03*
%TO.P,U203,9,~{CTS}*%
%TO.N,unconnected-(U203-~{CTS}-Pad9)*%
X153020000Y-117100000D03*
%TO.P,U203,10,~{DSR}*%
%TO.N,unconnected-(U203-~{DSR}-Pad10)*%
X154290000Y-117100000D03*
%TO.P,U203,11,~{RI}*%
%TO.N,unconnected-(U203-~{RI}-Pad11)*%
X155560000Y-117100000D03*
%TO.P,U203,12,~{DCD}*%
%TO.N,unconnected-(U203-~{DCD}-Pad12)*%
X156830000Y-117100000D03*
%TO.P,U203,13,~{DTR}*%
%TO.N,/[2] Microcontroller And Bluetooth/DTR*%
X158100000Y-117100000D03*
%TO.P,U203,14,~{RTS}*%
%TO.N,/[2] Microcontroller And Bluetooth/RTS*%
X159370000Y-117100000D03*
%TO.P,U203,15,R232*%
%TO.N,unconnected-(U203-R232-Pad15)*%
X160640000Y-117100000D03*
%TO.P,U203,16,VCC*%
%TO.N,+3V3*%
X161910000Y-117100000D03*
%TD*%
D20*
%TO.P,SW201,1,1*%
%TO.N,GND*%
X121300000Y-59775000D03*
%TO.P,SW201,2,2*%
%TO.N,/[2] Microcontroller And Bluetooth/ENABLE*%
X121300000Y-52025000D03*
%TD*%
D10*
%TO.P,C310,1*%
%TO.N,RECORD_DATA*%
X191000000Y-72040000D03*
%TO.P,C310,2*%
%TO.N,+3V3*%
X191000000Y-73000000D03*
%TD*%
D14*
%TO.P,C111,1*%
%TO.N,VCC*%
X122080000Y-119037500D03*
%TO.P,C111,2*%
%TO.N,GND*%
X121120000Y-119037500D03*
%TD*%
D21*
%TO.P,JS302,B1A,SEL+*%
%TO.N,unconnected-(JS302-SEL+-PadB1A)*%
X177825000Y-96300000D03*
%TO.P,JS302,B1B*%
%TO.N,N/C*%
X184175000Y-96300000D03*
%TO.P,JS302,B2A,SEL-*%
%TO.N,GND*%
X177825000Y-101380000D03*
%TO.P,JS302,B2B*%
%TO.N,N/C*%
X184175000Y-101380000D03*
%TO.P,JS302,H1,H+*%
%TO.N,unconnected-(JS302-H+-PadH1)*%
X178460000Y-119160000D03*
%TO.P,JS302,H2,H*%
%TO.N,unconnected-(JS302-H-PadH2)*%
X181000000Y-119160000D03*
%TO.P,JS302,H3,H-*%
%TO.N,unconnected-(JS302-H--PadH3)*%
X183540000Y-119160000D03*
D22*
%TO.P,JS302,S1,SHIELD*%
%TO.N,unconnected-(JS302-SHIELD-PadS1)*%
X173380000Y-102332500D03*
%TO.P,JS302,S2,SHIELD_1*%
%TO.N,unconnected-(JS302-SHIELD_1-PadS2)*%
X173380000Y-115667500D03*
%TO.P,JS302,S3,SHIELD_2*%
%TO.N,unconnected-(JS302-SHIELD_2-PadS3)*%
X188620000Y-115667500D03*
%TO.P,JS302,S4,SHIELD_3*%
%TO.N,unconnected-(JS302-SHIELD_3-PadS4)*%
X188620000Y-102332500D03*
D21*
%TO.P,JS302,V1,V+*%
%TO.N,+3V3*%
X170840000Y-106460000D03*
%TO.P,JS302,V2,V*%
%TO.N,RIGHT_STICK*%
X170840000Y-109000000D03*
%TO.P,JS302,V3,V-*%
%TO.N,GND*%
X170840000Y-111540000D03*
%TD*%
D23*
%TO.P,R202,1*%
%TO.N,Net-(J201-CC1)*%
X134605000Y-117762500D03*
%TO.P,R202,2*%
%TO.N,GND*%
X132955000Y-117762500D03*
%TD*%
D13*
%TO.P,R306,1*%
%TO.N,FUNC_6*%
X80720000Y-70590000D03*
%TO.P,R306,2*%
%TO.N,GND*%
X80720000Y-69570000D03*
%TD*%
D24*
%TO.P,U301,1,V0*%
%TO.N,/[3] User Interface/LV0*%
X129000000Y-107082500D03*
D25*
%TO.P,U301,2,V1*%
%TO.N,/[3] User Interface/LV1*%
X130500000Y-107082500D03*
%TO.P,U301,3,V2*%
%TO.N,/[3] User Interface/LV2*%
X132000000Y-107082500D03*
%TO.P,U301,4,V3*%
%TO.N,/[3] User Interface/LV3*%
X133500000Y-107082500D03*
%TO.P,U301,5,V4*%
%TO.N,/[3] User Interface/LV4*%
X135000000Y-107082500D03*
%TO.P,U301,6,C2-*%
%TO.N,/[3] User Interface/LC2-*%
X136500000Y-107082500D03*
%TO.P,U301,7,C2+*%
%TO.N,/[3] User Interface/LC2+*%
X138000000Y-107082500D03*
%TO.P,U301,8,C1+*%
%TO.N,/[3] User Interface/LC1+*%
X139500000Y-107082500D03*
%TO.P,U301,9,C1-*%
%TO.N,/[3] User Interface/LC1-*%
X141000000Y-107082500D03*
%TO.P,U301,10,VOUT*%
%TO.N,/[3] User Interface/LVOUT*%
X142500000Y-107082500D03*
%TO.P,U301,11,VSS*%
%TO.N,GND*%
X144000000Y-107082500D03*
%TO.P,U301,12,VDD*%
%TO.N,+3V0*%
X145500000Y-107082500D03*
%TO.P,U301,13,SI*%
%TO.N,SPI_COPI*%
X147000000Y-107082500D03*
%TO.P,U301,14,SCL*%
%TO.N,SPI_CLK*%
X148500000Y-107082500D03*
%TO.P,U301,15,A0*%
%TO.N,REGISTER_SELECT*%
X150000000Y-107082500D03*
%TO.P,U301,16,/RST*%
%TO.N,{slash}RESET*%
X151500000Y-107082500D03*
%TO.P,U301,17,/CS1*%
%TO.N,{slash}CHIP_SELECT*%
X153000000Y-107082500D03*
D26*
%TO.P,U301,18,LED+*%
%TO.N,+3V0*%
X123700000Y-105282500D03*
%TO.P,U301,19,LED-*%
%TO.N,GND*%
X158300000Y-105282500D03*
%TD*%
D13*
%TO.P,R308,1*%
%TO.N,FUNC_8*%
X96000000Y-85315000D03*
%TO.P,R308,2*%
%TO.N,GND*%
X96000000Y-84295000D03*
%TD*%
D27*
%TO.P,R104,1*%
%TO.N,/[1] Power/POW_IND_LED_R*%
X156200000Y-74605000D03*
%TO.P,R104,2*%
%TO.N,GND*%
X156200000Y-76255000D03*
%TD*%
D28*
%TO.P,J201,A1,GND*%
%TO.N,GND*%
X137780000Y-117425000D03*
%TO.P,J201,A4,VBUS*%
%TO.N,VBUS*%
X138580000Y-117425000D03*
D29*
%TO.P,J201,A5,CC1*%
%TO.N,Net-(J201-CC1)*%
X139730000Y-117425000D03*
%TO.P,J201,A6,D+*%
%TO.N,/[2] Microcontroller And Bluetooth/D_RAW+*%
X140730000Y-117425000D03*
%TO.P,J201,A7,D-*%
%TO.N,/[2] Microcontroller And Bluetooth/D_RAW-*%
X141230000Y-117425000D03*
%TO.P,J201,A8,SBU1*%
%TO.N,unconnected-(J201-SBU1-PadA8)*%
X142230000Y-117425000D03*
D28*
%TO.P,J201,A9,VBUS*%
%TO.N,VBUS*%
X143380000Y-117425000D03*
%TO.P,J201,A12,GND*%
%TO.N,GND*%
X144180000Y-117425000D03*
%TO.P,J201,B1,GND*%
X144180000Y-117425000D03*
%TO.P,J201,B4,VBUS*%
%TO.N,VBUS*%
X143380000Y-117425000D03*
D29*
%TO.P,J201,B5,CC2*%
%TO.N,Net-(J201-CC2)*%
X142730000Y-117425000D03*
%TO.P,J201,B6,D+*%
%TO.N,/[2] Microcontroller And Bluetooth/D_RAW+*%
X141730000Y-117425000D03*
%TO.P,J201,B7,D-*%
%TO.N,/[2] Microcontroller And Bluetooth/D_RAW-*%
X140230000Y-117425000D03*
%TO.P,J201,B8,SBU2*%
%TO.N,unconnected-(J201-SBU2-PadB8)*%
X139230000Y-117425000D03*
D28*
%TO.P,J201,B9,VBUS*%
%TO.N,VBUS*%
X138580000Y-117425000D03*
%TO.P,J201,B12,GND*%
%TO.N,GND*%
X137780000Y-117425000D03*
D30*
%TO.P,J201,S1,SHIELD*%
%TO.N,unconnected-(J201-SHIELD-PadS1)_2*%
X136660000Y-118000000D03*
D31*
%TO.N,unconnected-(J201-SHIELD-PadS1)*%
X136660000Y-122180000D03*
D30*
%TO.N,unconnected-(J201-SHIELD-PadS1)_3*%
X145300000Y-118000000D03*
D31*
%TO.N,unconnected-(J201-SHIELD-PadS1)_1*%
X145300000Y-122180000D03*
%TD*%
D32*
%TO.P,Q202,1,B*%
%TO.N,/[2] Microcontroller And Bluetooth/DTR_R*%
X165497500Y-121650000D03*
%TO.P,Q202,2,E*%
%TO.N,/[2] Microcontroller And Bluetooth/RTS*%
X165497500Y-119750000D03*
%TO.P,Q202,3,C*%
%TO.N,/[2] Microcontroller And Bluetooth/ENABLE*%
X163622500Y-120700000D03*
%TD*%
D12*
%TO.P,SW101,1,A*%
%TO.N,/[1] Power/PWR_SW_CAP*%
X148150000Y-75800000D03*
X133850000Y-75800000D03*
%TO.P,SW101,2,B*%
%TO.N,/[1] Power/PW_SW_R*%
X148150000Y-70800000D03*
X133850000Y-70800000D03*
%TD*%
D33*
%TO.P,C308,1*%
%TO.N,/[3] User Interface/LC1+*%
X139770000Y-108850000D03*
%TO.P,C308,2*%
%TO.N,/[3] User Interface/LC1-*%
X140730000Y-108850000D03*
%TD*%
D11*
%TO.P,C306,1*%
%TO.N,GND*%
X135000000Y-109650000D03*
%TO.P,C306,2*%
%TO.N,/[3] User Interface/LV4*%
X135000000Y-108690000D03*
%TD*%
D13*
%TO.P,R303,1*%
%TO.N,STOP_ROBOT*%
X201000000Y-70590000D03*
%TO.P,R303,2*%
%TO.N,GND*%
X201000000Y-69570000D03*
%TD*%
%TO.P,R305,1*%
%TO.N,CONNECT_BT*%
X96000000Y-56000000D03*
%TO.P,R305,2*%
%TO.N,GND*%
X96000000Y-54980000D03*
%TD*%
D33*
%TO.P,C307,1*%
%TO.N,/[3] User Interface/LC2-*%
X136760000Y-108850000D03*
%TO.P,C307,2*%
%TO.N,/[3] User Interface/LC2+*%
X137720000Y-108850000D03*
%TD*%
D21*
%TO.P,JS301,B1A,SEL+*%
%TO.N,unconnected-(JS301-SEL+-PadB1A)*%
X97825000Y-96300000D03*
%TO.P,JS301,B1B*%
%TO.N,N/C*%
X104175000Y-96300000D03*
%TO.P,JS301,B2A,SEL-*%
%TO.N,GND*%
X97825000Y-101380000D03*
%TO.P,JS301,B2B*%
%TO.N,N/C*%
X104175000Y-101380000D03*
%TO.P,JS301,H1,H+*%
%TO.N,+3V3*%
X98460000Y-119160000D03*
%TO.P,JS301,H2,H*%
%TO.N,LEFT_STICK*%
X101000000Y-119160000D03*
%TO.P,JS301,H3,H-*%
%TO.N,GND*%
X103540000Y-119160000D03*
D22*
%TO.P,JS301,S1,SHIELD*%
%TO.N,unconnected-(JS301-SHIELD-PadS1)*%
X93380000Y-102332500D03*
%TO.P,JS301,S2,SHIELD_1*%
%TO.N,unconnected-(JS301-SHIELD_1-PadS2)*%
X93380000Y-115667500D03*
%TO.P,JS301,S3,SHIELD_2*%
%TO.N,unconnected-(JS301-SHIELD_2-PadS3)*%
X108620000Y-115667500D03*
%TO.P,JS301,S4,SHIELD_3*%
%TO.N,unconnected-(JS301-SHIELD_3-PadS4)*%
X108620000Y-102332500D03*
D21*
%TO.P,JS301,V1,V+*%
%TO.N,unconnected-(JS301-V+-PadV1)*%
X90840000Y-106460000D03*
%TO.P,JS301,V2,V*%
%TO.N,unconnected-(JS301-V-PadV2)*%
X90840000Y-109000000D03*
%TO.P,JS301,V3,V-*%
%TO.N,unconnected-(JS301-V--PadV3)*%
X90840000Y-111540000D03*
%TD*%
D34*
%TO.P,R201,1*%
%TO.N,+3V3*%
X126200000Y-49490000D03*
%TO.P,R201,2*%
%TO.N,/[2] Microcontroller And Bluetooth/ENABLE*%
X126200000Y-50510000D03*
%TD*%
D35*
%TO.P,C112,1*%
%TO.N,VBUS*%
X123175000Y-112137500D03*
%TO.P,C112,2*%
%TO.N,GND*%
X120225000Y-112137500D03*
%TD*%
D36*
%TO.P,R204,1*%
%TO.N,/[2] Microcontroller And Bluetooth/RTS*%
X159840000Y-119500000D03*
%TO.P,R204,2*%
%TO.N,/[2] Microcontroller And Bluetooth/RTS_R*%
X160860000Y-119500000D03*
%TD*%
D12*
%TO.P,SW306,1,1*%
%TO.N,FUNC_6*%
X63850000Y-68500000D03*
X78150000Y-68500000D03*
%TO.P,SW306,2,2*%
%TO.N,+3V3*%
X63850000Y-73500000D03*
X78150000Y-73500000D03*
%TD*%
%TO.P,SW302,1,1*%
%TO.N,RECORD_DATA*%
X173850000Y-68500000D03*
X188150000Y-68500000D03*
%TO.P,SW302,2,2*%
%TO.N,+3V3*%
X173850000Y-73500000D03*
X188150000Y-73500000D03*
%TD*%
D10*
%TO.P,C204,1*%
%TO.N,/[2] Microcontroller And Bluetooth/ENABLE*%
X124700000Y-50520000D03*
%TO.P,C204,2*%
%TO.N,GND*%
X124700000Y-51480000D03*
%TD*%
D12*
%TO.P,SW305,1,1*%
%TO.N,CONNECT_BT*%
X78850000Y-54000000D03*
X93150000Y-54000000D03*
%TO.P,SW305,2,2*%
%TO.N,+3V3*%
X78850000Y-59000000D03*
X93150000Y-59000000D03*
%TD*%
%TO.P,SW301,1,1*%
%TO.N,SAVE_DATA*%
X188850000Y-54000000D03*
X203150000Y-54000000D03*
%TO.P,SW301,2,2*%
%TO.N,+3V3*%
X188850000Y-59000000D03*
X203150000Y-59000000D03*
%TD*%
D33*
%TO.P,C302,1*%
%TO.N,GND*%
X126690000Y-108800000D03*
%TO.P,C302,2*%
%TO.N,/[3] User Interface/LV0*%
X127650000Y-108800000D03*
%TD*%
D12*
%TO.P,SW308,1,1*%
%TO.N,FUNC_8*%
X78850000Y-83500000D03*
X93150000Y-83500000D03*
%TO.P,SW308,2,2*%
%TO.N,+3V3*%
X78850000Y-88500000D03*
X93150000Y-88500000D03*
%TD*%
D37*
%TO.P,U202,1,GND*%
%TO.N,GND*%
X131330000Y-47180000D03*
%TO.P,U202,2,VDD*%
%TO.N,+3V3*%
X131330000Y-48450000D03*
%TO.P,U202,3,EN*%
%TO.N,/[2] Microcontroller And Bluetooth/ENABLE*%
X131330000Y-49720000D03*
%TO.P,U202,4,SENSOR_VP*%
%TO.N,LEFT_STICK*%
X131330000Y-50990000D03*
%TO.P,U202,5,SENSOR_VN*%
%TO.N,RIGHT_STICK*%
X131330000Y-52260000D03*
%TO.P,U202,6,IO34*%
%TO.N,CONNECT_BT*%
X131330000Y-53530000D03*
%TO.P,U202,7,IO35*%
%TO.N,FUNC_6*%
X131330000Y-54800000D03*
%TO.P,U202,8,IO32*%
%TO.N,FUNC_7*%
X131330000Y-56070000D03*
%TO.P,U202,9,IO33*%
%TO.N,FUNC_8*%
X131330000Y-57340000D03*
%TO.P,U202,10,IO25*%
%TO.N,unconnected-(U202-IO25-Pad10)*%
X131330000Y-58610000D03*
%TO.P,U202,11,IO26*%
%TO.N,unconnected-(U202-IO26-Pad11)*%
X131330000Y-59880000D03*
%TO.P,U202,12,IO27*%
%TO.N,unconnected-(U202-IO27-Pad12)*%
X131330000Y-61150000D03*
%TO.P,U202,13,IO14*%
%TO.N,SPI_CLK*%
X131330000Y-62420000D03*
%TO.P,U202,14,IO12*%
%TO.N,unconnected-(U202-IO12-Pad14)*%
X131330000Y-63690000D03*
D38*
%TO.P,U202,15,GND*%
%TO.N,GND*%
X134370000Y-64940000D03*
%TO.P,U202,16,IO13*%
%TO.N,{slash}RESET*%
X135640000Y-64940000D03*
%TO.P,U202,17,NC*%
%TO.N,unconnected-(U202-NC-Pad17)*%
X136910000Y-64940000D03*
%TO.P,U202,18,NC*%
%TO.N,unconnected-(U202-NC-Pad18)*%
X138180000Y-64940000D03*
%TO.P,U202,19,NC*%
%TO.N,unconnected-(U202-NC-Pad19)*%
X139450000Y-64940000D03*
%TO.P,U202,20,NC*%
%TO.N,unconnected-(U202-NC-Pad20)*%
X140720000Y-64940000D03*
%TO.P,U202,21,NC*%
%TO.N,unconnected-(U202-NC-Pad21)*%
X141990000Y-64940000D03*
%TO.P,U202,22,NC*%
%TO.N,unconnected-(U202-NC-Pad22)*%
X143260000Y-64940000D03*
%TO.P,U202,23,IO15*%
%TO.N,{slash}CHIP_SELECT*%
X144530000Y-64940000D03*
%TO.P,U202,24,IO2*%
%TO.N,unconnected-(U202-IO2-Pad24)*%
X145800000Y-64940000D03*
D37*
%TO.P,U202,25,IO0*%
%TO.N,/[2] Microcontroller And Bluetooth/IO0*%
X148830000Y-63690000D03*
%TO.P,U202,26,IO4*%
%TO.N,unconnected-(U202-IO4-Pad26)*%
X148830000Y-62420000D03*
%TO.P,U202,27,IO16*%
%TO.N,SPI_COPI*%
X148830000Y-61150000D03*
%TO.P,U202,28,IO17*%
%TO.N,REGISTER_SELECT*%
X148830000Y-59880000D03*
%TO.P,U202,29,IO5*%
%TO.N,unconnected-(U202-IO5-Pad29)*%
X148830000Y-58610000D03*
%TO.P,U202,30,IO18*%
%TO.N,unconnected-(U202-IO18-Pad30)*%
X148830000Y-57340000D03*
%TO.P,U202,31,IO19*%
%TO.N,LOCK_ROBOT*%
X148830000Y-56070000D03*
%TO.P,U202,32,NC*%
%TO.N,unconnected-(U202-NC-Pad32)*%
X148830000Y-54800000D03*
%TO.P,U202,33,IO21*%
%TO.N,RECORD_DATA*%
X148830000Y-53530000D03*
%TO.P,U202,34,RXD0/IO3*%
%TO.N,/[2] Microcontroller And Bluetooth/UART_RX*%
X148830000Y-52260000D03*
%TO.P,U202,35,TXD0/IO1*%
%TO.N,/[2] Microcontroller And Bluetooth/UART_TX*%
X148830000Y-50990000D03*
%TO.P,U202,36,IO22*%
%TO.N,STOP_ROBOT*%
X148830000Y-49720000D03*
%TO.P,U202,37,IO23*%
%TO.N,SAVE_DATA*%
X148830000Y-48450000D03*
%TO.P,U202,38,GND*%
%TO.N,GND*%
X148830000Y-47180000D03*
D39*
%TO.P,U202,39,GND*%
X137180000Y-53500000D03*
D40*
X137180000Y-54200000D03*
D39*
X137180000Y-54900000D03*
D40*
X137180000Y-55600000D03*
D39*
X137180000Y-56300000D03*
D40*
X137880000Y-53500000D03*
X137880000Y-54900000D03*
X137880000Y-56300000D03*
X138555000Y-54200000D03*
X138555000Y-55600000D03*
D39*
X138580000Y-53500000D03*
X138580000Y-54900000D03*
D41*
X138580000Y-54900000D03*
D39*
X138580000Y-56300000D03*
D40*
X139280000Y-53500000D03*
X139280000Y-54900000D03*
X139280000Y-56300000D03*
D39*
X139980000Y-53500000D03*
D40*
X139980000Y-54200000D03*
D39*
X139980000Y-54900000D03*
D40*
X139980000Y-55600000D03*
D39*
X139980000Y-56300000D03*
%TD*%
D32*
%TO.P,Q201,1,B*%
%TO.N,/[2] Microcontroller And Bluetooth/RTS_R*%
X153660000Y-121700000D03*
%TO.P,Q201,2,E*%
%TO.N,/[2] Microcontroller And Bluetooth/DTR*%
X153660000Y-119800000D03*
%TO.P,Q201,3,C*%
%TO.N,/[2] Microcontroller And Bluetooth/IO0*%
X151785000Y-120750000D03*
%TD*%
D42*
%TO.P,D102,1,K*%
%TO.N,/[1] Power/POW_IND_LED_R*%
X156200000Y-72162500D03*
%TO.P,D102,2,A*%
%TO.N,+3V3*%
X156200000Y-70587500D03*
%TD*%
D11*
%TO.P,C206,1*%
%TO.N,+3V3*%
X163765000Y-115205000D03*
%TO.P,C206,2*%
%TO.N,GND*%
X163765000Y-114245000D03*
%TD*%
D10*
%TO.P,C311,1*%
%TO.N,STOP_ROBOT*%
X201000000Y-72000000D03*
%TO.P,C311,2*%
%TO.N,+3V3*%
X201000000Y-72960000D03*
%TD*%
D43*
%TO.P,R203,1*%
%TO.N,Net-(J201-CC2)*%
X147155000Y-117762500D03*
%TO.P,R203,2*%
%TO.N,GND*%
X148805000Y-117762500D03*
%TD*%
D11*
%TO.P,C202,1*%
%TO.N,+3V3*%
X129200000Y-48380000D03*
%TO.P,C202,2*%
%TO.N,GND*%
X129200000Y-47420000D03*
%TD*%
D13*
%TO.P,R304,1*%
%TO.N,LOCK_ROBOT*%
X206000000Y-85000000D03*
%TO.P,R304,2*%
%TO.N,GND*%
X206000000Y-83980000D03*
%TD*%
D44*
%TO.P,U201,1,I/O1*%
%TO.N,/[2] Microcontroller And Bluetooth/D_RAW+*%
X140030000Y-113887500D03*
%TO.P,U201,2,GND*%
%TO.N,GND*%
X140980000Y-113887500D03*
%TO.P,U201,3,I/O2*%
%TO.N,/[2] Microcontroller And Bluetooth/D_RAW-*%
X141930000Y-113887500D03*
%TO.P,U201,4,I/O2*%
%TO.N,/[2] Microcontroller And Bluetooth/D-*%
X141930000Y-111612500D03*
%TO.P,U201,5,VBUS*%
%TO.N,VBUS*%
X140980000Y-111612500D03*
%TO.P,U201,6,I/O1*%
%TO.N,/[2] Microcontroller And Bluetooth/D+*%
X140030000Y-111612500D03*
%TD*%
D45*
%TO.P,BT101,*%
%TO.N,*%
X127770000Y-58865000D03*
X141260000Y-81215000D03*
X154740000Y-58865000D03*
D46*
%TO.P,BT101,1,+*%
%TO.N,+9V*%
X115480000Y-76485000D03*
D47*
%TO.P,BT101,2,-*%
%TO.N,GND*%
X115480000Y-63605000D03*
%TD*%
D48*
%TO.N,GND*%
X215000000Y-100000000D03*
X190000000Y-120000000D03*
X180000000Y-115000000D03*
X105000000Y-90000000D03*
X215000000Y-75000000D03*
X80000000Y-105000000D03*
X110000000Y-85000000D03*
D49*
X123425000Y-64025000D03*
D48*
X190000000Y-65000000D03*
X190000000Y-110000000D03*
X144625000Y-115950000D03*
X65000000Y-80000000D03*
X180000000Y-100000000D03*
X200000000Y-115000000D03*
X100000000Y-110000000D03*
X135000000Y-85000000D03*
X65000000Y-115000000D03*
X175000000Y-85000000D03*
X105000000Y-110000000D03*
X90000000Y-115000000D03*
X95000000Y-105000000D03*
X85000000Y-105000000D03*
X110000000Y-120000000D03*
X95000000Y-90000000D03*
X200000000Y-95000000D03*
X120000000Y-80000000D03*
X180000000Y-85000000D03*
D50*
X135000000Y-110625000D03*
D48*
X85000000Y-55000000D03*
X130000000Y-90000000D03*
X118750000Y-112150000D03*
X180000000Y-60000000D03*
D49*
X159075000Y-53450000D03*
D48*
X185000000Y-90000000D03*
D50*
X134375000Y-66500000D03*
D48*
X110000000Y-90000000D03*
X140975000Y-115150000D03*
X100000000Y-95000000D03*
X85000000Y-120000000D03*
D50*
X82500000Y-73575000D03*
X91125000Y-65375000D03*
D48*
X125000000Y-95000000D03*
X80000000Y-100000000D03*
X120000000Y-90000000D03*
X195000000Y-75000000D03*
X195000000Y-100000000D03*
X120000000Y-95000000D03*
X185000000Y-50000000D03*
X115000000Y-85000000D03*
X180000000Y-95000000D03*
X85000000Y-50000000D03*
X110000000Y-100000000D03*
X155000000Y-65000000D03*
D50*
X96000000Y-83250000D03*
D48*
X195000000Y-110000000D03*
X111800000Y-66225000D03*
X75000000Y-55000000D03*
X85000000Y-95000000D03*
X215000000Y-65000000D03*
X90000000Y-90000000D03*
X200000000Y-50000000D03*
D49*
X90650000Y-57350000D03*
D48*
X200000000Y-120000000D03*
X95000000Y-110000000D03*
X190000000Y-100000000D03*
X210000000Y-65000000D03*
X175000000Y-50000000D03*
X75000000Y-50000000D03*
X205000000Y-105000000D03*
D49*
X127925000Y-52550000D03*
D48*
X185000000Y-80000000D03*
X195000000Y-80000000D03*
X80000000Y-120000000D03*
X200000000Y-90000000D03*
D50*
X133675000Y-102000000D03*
D48*
X85000000Y-80000000D03*
X105000000Y-60000000D03*
X205000000Y-110000000D03*
X140000000Y-90000000D03*
X105000000Y-85000000D03*
X175000000Y-60000000D03*
X90000000Y-50000000D03*
D49*
X128200000Y-46550000D03*
D48*
X200000000Y-110000000D03*
X75000000Y-120000000D03*
X100775000Y-59900000D03*
X175000000Y-55000000D03*
X145000000Y-85000000D03*
X205000000Y-90000000D03*
D50*
X201000000Y-68525000D03*
D48*
X170000000Y-55000000D03*
D49*
X127150000Y-52175000D03*
D48*
X170000000Y-115000000D03*
X75000000Y-80000000D03*
D49*
X130375000Y-69675000D03*
D48*
X132975000Y-103950000D03*
D50*
X163750000Y-113250000D03*
D48*
X170000000Y-95000000D03*
X70000000Y-120000000D03*
X210000000Y-70000000D03*
D49*
X130900000Y-77000000D03*
D48*
X160000000Y-85000000D03*
X80000000Y-90000000D03*
D50*
X163700000Y-111325000D03*
D48*
X90000000Y-85000000D03*
D49*
X128975000Y-46625000D03*
D48*
X75000000Y-110000000D03*
D50*
X206000000Y-82925000D03*
D48*
X110000000Y-105000000D03*
X150875000Y-47175000D03*
X170000000Y-90000000D03*
X180000000Y-110000000D03*
X135000000Y-95000000D03*
X100000000Y-100000000D03*
X85500000Y-70150000D03*
X205000000Y-115000000D03*
X120075000Y-119050000D03*
X85000000Y-85000000D03*
X170000000Y-80000000D03*
X170000000Y-100000000D03*
X75000000Y-95000000D03*
D50*
X156200000Y-77587500D03*
D49*
X125125000Y-64050000D03*
D50*
X96000000Y-53975000D03*
D48*
X195000000Y-115000000D03*
D49*
X149450000Y-66850000D03*
D48*
X105000000Y-115000000D03*
X215000000Y-85000000D03*
X195000000Y-85000000D03*
X70000000Y-90000000D03*
X170000000Y-60000000D03*
D49*
X123700000Y-77700000D03*
D48*
X200000000Y-65000000D03*
X180000000Y-55000000D03*
X100000000Y-90000000D03*
X190000000Y-50000000D03*
X185000000Y-85000000D03*
X112075000Y-69650000D03*
X90000000Y-60000000D03*
X75000000Y-90000000D03*
X105000000Y-50000000D03*
X120000000Y-75000000D03*
D49*
X154625000Y-67250000D03*
D48*
X85000000Y-110000000D03*
D49*
X115600000Y-54250000D03*
D48*
X70000000Y-110000000D03*
X210000000Y-100000000D03*
X80000000Y-115000000D03*
X175000000Y-110000000D03*
X65000000Y-110000000D03*
X85500000Y-71150000D03*
D50*
X121300000Y-61275000D03*
D48*
X195000000Y-65000000D03*
X205000000Y-100000000D03*
X215000000Y-110000000D03*
X70000000Y-95000000D03*
X185000000Y-65000000D03*
X195000000Y-120000000D03*
X205000000Y-60000000D03*
X215000000Y-115000000D03*
X205000000Y-120000000D03*
X90000000Y-55000000D03*
X215000000Y-95000000D03*
X175000000Y-65000000D03*
X210000000Y-105000000D03*
D50*
X206000000Y-53650000D03*
D48*
X115000000Y-90000000D03*
X110000000Y-95000000D03*
D49*
X160725000Y-56600000D03*
D48*
X75000000Y-100000000D03*
X95000000Y-100000000D03*
D50*
X124700000Y-52250000D03*
D48*
X70000000Y-85000000D03*
X80000000Y-95000000D03*
D49*
X152000000Y-54625000D03*
D48*
X200000000Y-85000000D03*
X131600000Y-117775000D03*
X100750000Y-61175000D03*
X160000000Y-75000000D03*
X200000000Y-105000000D03*
X119000000Y-116625000D03*
X170000000Y-120000000D03*
X160000000Y-95000000D03*
X195000000Y-95000000D03*
D49*
X117550000Y-64475000D03*
D48*
X90000000Y-120000000D03*
X175000000Y-70000000D03*
X145000000Y-95000000D03*
X105000000Y-105000000D03*
X100000000Y-50000000D03*
X170000000Y-70000000D03*
X210000000Y-120000000D03*
X90000000Y-95000000D03*
X100000000Y-105000000D03*
D50*
X190975000Y-68600000D03*
D48*
X185000000Y-60000000D03*
X85500000Y-72225000D03*
D50*
X132000000Y-110625000D03*
D48*
X110000000Y-50000000D03*
X205000000Y-65000000D03*
X100000000Y-115000000D03*
X190000000Y-90000000D03*
X80000000Y-50000000D03*
X95000000Y-95000000D03*
X180000000Y-105000000D03*
D49*
X119500000Y-68350000D03*
D48*
X70000000Y-80000000D03*
X160000000Y-100000000D03*
X185000000Y-55000000D03*
X180000000Y-50000000D03*
X185000000Y-105000000D03*
X190000000Y-80000000D03*
X215000000Y-105000000D03*
X175000000Y-100000000D03*
X75000000Y-85000000D03*
X205000000Y-80000000D03*
X65000000Y-100000000D03*
X65000000Y-75000000D03*
X180000000Y-65000000D03*
X70000000Y-115000000D03*
X180000000Y-80000000D03*
X137525000Y-115900000D03*
X95000000Y-50000000D03*
X150200000Y-117750000D03*
D50*
X133600000Y-103175000D03*
D48*
X95000000Y-120000000D03*
X175000000Y-75000000D03*
X195000000Y-70000000D03*
D50*
X133250000Y-98675000D03*
D48*
X170000000Y-75000000D03*
X125650000Y-108800000D03*
D49*
X164825000Y-58925000D03*
D48*
X185000000Y-75000000D03*
D49*
X127250000Y-46550000D03*
D50*
X123400000Y-52250000D03*
D48*
X120000000Y-70000000D03*
X145000000Y-80000000D03*
X160000000Y-90000000D03*
X210000000Y-60000000D03*
X70000000Y-105000000D03*
X195000000Y-50000000D03*
X210000000Y-115000000D03*
X100400000Y-69325000D03*
X80000000Y-110000000D03*
X170000000Y-85000000D03*
X90000000Y-100000000D03*
X215000000Y-60000000D03*
D49*
X152775000Y-56600000D03*
D48*
X210000000Y-110000000D03*
X210000000Y-80000000D03*
X130000000Y-95000000D03*
X195000000Y-105000000D03*
X210000000Y-55000000D03*
X190000000Y-85000000D03*
X200000000Y-60000000D03*
X75000000Y-60000000D03*
D49*
X90050000Y-69600000D03*
D50*
X133500000Y-110625000D03*
D48*
X65000000Y-90000000D03*
X70000000Y-55000000D03*
X85000000Y-100000000D03*
X170000000Y-65000000D03*
D50*
X129900000Y-46675000D03*
D48*
X185000000Y-110000000D03*
X175000000Y-120000000D03*
X185000000Y-70000000D03*
X215000000Y-90000000D03*
X65000000Y-95000000D03*
X65000000Y-105000000D03*
X200000000Y-100000000D03*
X210000000Y-85000000D03*
X205000000Y-70000000D03*
X80000000Y-80000000D03*
X110000000Y-110000000D03*
D50*
X163725000Y-112225000D03*
D48*
X115000000Y-50000000D03*
X215000000Y-120000000D03*
X75000000Y-115000000D03*
X160000000Y-70000000D03*
X100000000Y-85000000D03*
X125000000Y-90000000D03*
D49*
X97150000Y-58775000D03*
D48*
X160000000Y-80000000D03*
X200000000Y-75000000D03*
X205000000Y-75000000D03*
X195000000Y-55000000D03*
X190000000Y-95000000D03*
X210000000Y-90000000D03*
X190000000Y-105000000D03*
X175000000Y-90000000D03*
X215000000Y-70000000D03*
X210000000Y-95000000D03*
D50*
X130500000Y-110625000D03*
D48*
X205000000Y-95000000D03*
X200000000Y-55000000D03*
X70000000Y-100000000D03*
X75000000Y-105000000D03*
X80000000Y-85000000D03*
D49*
X165875000Y-94250000D03*
D48*
X175000000Y-80000000D03*
X215000000Y-80000000D03*
X200000000Y-80000000D03*
X125000000Y-85000000D03*
X85000000Y-115000000D03*
X115000000Y-60000000D03*
X160000000Y-65000000D03*
X90600000Y-68100000D03*
X170000000Y-50000000D03*
X185000000Y-115000000D03*
X180000000Y-90000000D03*
X175000000Y-95000000D03*
X65000000Y-85000000D03*
X175000000Y-105000000D03*
D50*
%TO.N,VCC*%
X104362500Y-82237500D03*
%TO.N,+3V3*%
X163775000Y-116150000D03*
X187000000Y-88500000D03*
X156200000Y-69112500D03*
X201000000Y-73975000D03*
D48*
X79300000Y-71525000D03*
D49*
X130000000Y-48900000D03*
D50*
X186975000Y-59000000D03*
D48*
X75175000Y-62500000D03*
D50*
X130450000Y-98700000D03*
X127700000Y-50200000D03*
D49*
X130000000Y-48200000D03*
D48*
X79800000Y-67475000D03*
X88025000Y-63325000D03*
D50*
X163000000Y-117200000D03*
X129000000Y-49300000D03*
D48*
X75200000Y-63675000D03*
D50*
X96000000Y-88525000D03*
X77075000Y-59000000D03*
D48*
X77425000Y-69850000D03*
D50*
X206000000Y-88500000D03*
X96000000Y-59425000D03*
X191000000Y-74375000D03*
X108150000Y-75150000D03*
D48*
X79300000Y-69850000D03*
D50*
X164175000Y-117600000D03*
D48*
X77400000Y-71550000D03*
D50*
X130025000Y-99600000D03*
X91000000Y-73950000D03*
X77125000Y-88500000D03*
X129500000Y-98700000D03*
D48*
X75175000Y-65200000D03*
D50*
X206000000Y-59000000D03*
%TO.N,/[1] Power/V_Battery*%
X97425000Y-60050000D03*
X96400000Y-70225000D03*
X98475000Y-64675000D03*
X90575000Y-66650000D03*
%TO.N,+3V0*%
X129125000Y-102375000D03*
X129125000Y-103375000D03*
D48*
X129925000Y-103975000D03*
D50*
%TO.N,VBUS*%
X119075000Y-117725000D03*
X124650000Y-114150000D03*
D49*
%TO.N,/[2] Microcontroller And Bluetooth/ENABLE*%
X124750000Y-77525000D03*
X165625000Y-95275000D03*
%TO.N,RECORD_DATA*%
X152975000Y-54400000D03*
X158850000Y-54400000D03*
%TO.N,LOCK_ROBOT*%
X159900000Y-55925000D03*
X153600000Y-55925000D03*
%TO.N,CONNECT_BT*%
X121300000Y-54475000D03*
X126725000Y-53925000D03*
%TO.N,FUNC_6*%
X124975000Y-55300000D03*
X91475000Y-56625000D03*
%TO.N,FUNC_7*%
X125775000Y-56550000D03*
X123275000Y-56925000D03*
%TO.N,FUNC_8*%
X125150000Y-63025000D03*
X123275000Y-63025000D03*
%TO.N,/[2] Microcontroller And Bluetooth/D_RAW+*%
X140000000Y-116225000D03*
X142124970Y-116425604D03*
D50*
%TO.N,/[1] Power/GATE_B*%
X95700000Y-67850000D03*
X96800000Y-61925000D03*
D49*
%TO.N,/[1] Power/GATE_U*%
X127125000Y-114350000D03*
X124075000Y-116650000D03*
%TO.N,/[2] Microcontroller And Bluetooth/IO0*%
X151450000Y-115125000D03*
X153775000Y-67875000D03*
X157675000Y-108475000D03*
X150400000Y-67200000D03*
D50*
%TO.N,/[2] Microcontroller And Bluetooth/DTR_R*%
X158225000Y-122500000D03*
X157725000Y-120875000D03*
D49*
%TO.N,RIGHT_STICK*%
X163950000Y-58350000D03*
X128900000Y-52275000D03*
%TO.N,LEFT_STICK*%
X118525000Y-68350000D03*
X118525000Y-64050000D03*
X126300000Y-51625000D03*
X116650000Y-54225000D03*
%TO.N,SPI_COPI*%
X144100000Y-101100000D03*
X149400000Y-101000000D03*
D50*
%TO.N,{slash}CHIP_SELECT*%
X149925000Y-96900000D03*
D49*
X153000000Y-104625000D03*
%TO.N,REGISTER_SELECT*%
X151300000Y-102900000D03*
X149850000Y-104750000D03*
%TO.N,/[2] Microcontroller And Bluetooth/UART_RX*%
X163700000Y-108650000D03*
X163100000Y-106100000D03*
D50*
%TO.N,/[1] Power/PWR_SW_CAP*%
X131200000Y-75800000D03*
D48*
%TO.N,/[1] Power/PW_SW_R_G_S*%
X109150000Y-63700000D03*
X110150000Y-59825000D03*
D50*
%TO.N,/[1] Power/PW_SW_R*%
X130150000Y-70800000D03*
%TD*%
D51*
%TO.N,GND*%
X134370000Y-64940000D02*
X134370000Y-66495000D01*
X132955000Y-117762500D02*
X131612500Y-117762500D01*
X120087500Y-119037500D02*
X120075000Y-119050000D01*
X150187500Y-117762500D02*
X150200000Y-117750000D01*
X140980000Y-113887500D02*
X140980000Y-115145000D01*
D52*
X190980000Y-68605000D02*
X190975000Y-68600000D01*
D51*
X148805000Y-117762500D02*
X150187500Y-117762500D01*
D52*
X96000000Y-54980000D02*
X96000000Y-53975000D01*
D51*
X121120000Y-119037500D02*
X120087500Y-119037500D01*
D52*
X190980000Y-69610000D02*
X190980000Y-68605000D01*
X135000000Y-109650000D02*
X135000000Y-110625000D01*
X201000000Y-69570000D02*
X201000000Y-68525000D01*
D51*
X120462500Y-116637500D02*
X119012500Y-116637500D01*
X118762500Y-112137500D02*
X118750000Y-112150000D01*
D52*
X90060000Y-69610000D02*
X90050000Y-69600000D01*
D51*
X137780000Y-117425000D02*
X137780000Y-116155000D01*
X144000000Y-108580000D02*
X143730000Y-108850000D01*
X131612500Y-117762500D02*
X131600000Y-117775000D01*
D52*
X96000000Y-84295000D02*
X96000000Y-83250000D01*
X156200000Y-76255000D02*
X156200000Y-77587500D01*
D51*
X144000000Y-107082500D02*
X144000000Y-108580000D01*
D52*
X206000000Y-54610000D02*
X206000000Y-53650000D01*
X80720000Y-69570000D02*
X81795000Y-69570000D01*
D51*
X140980000Y-115145000D02*
X140975000Y-115150000D01*
X137780000Y-116155000D02*
X137525000Y-115900000D01*
D52*
X91000000Y-69610000D02*
X90060000Y-69610000D01*
X81795000Y-69570000D02*
X82500000Y-70275000D01*
X133500000Y-109650000D02*
X133500000Y-110625000D01*
D51*
X120225000Y-112137500D02*
X118762500Y-112137500D01*
X126690000Y-108800000D02*
X125650000Y-108800000D01*
X148830000Y-47180000D02*
X150870000Y-47180000D01*
D52*
X130500000Y-109650000D02*
X130500000Y-110625000D01*
X206000000Y-83980000D02*
X206000000Y-82925000D01*
D51*
X134370000Y-66495000D02*
X134375000Y-66500000D01*
X119012500Y-116637500D02*
X119000000Y-116625000D01*
X144180000Y-117425000D02*
X144180000Y-116395000D01*
X150870000Y-47180000D02*
X150875000Y-47175000D01*
D52*
X121300000Y-59775000D02*
X121300000Y-61275000D01*
X82500000Y-70275000D02*
X82500000Y-73575000D01*
D51*
X144180000Y-116395000D02*
X144625000Y-115950000D01*
D52*
X132000000Y-109650000D02*
X132000000Y-110625000D01*
D51*
%TO.N,VCC*%
X119475000Y-120375000D02*
X121675000Y-120375000D01*
X121675000Y-120375000D02*
X122080000Y-119970000D01*
X115475000Y-116375000D02*
X119475000Y-120375000D01*
X115475000Y-93350000D02*
X115475000Y-116375000D01*
X104362500Y-82237500D02*
X115475000Y-93350000D01*
X122080000Y-119970000D02*
X122080000Y-119037500D01*
D52*
%TO.N,+3V3*%
X188850000Y-59000000D02*
X186975000Y-59000000D01*
X188850000Y-88500000D02*
X203150000Y-88500000D01*
X95325000Y-59000000D02*
X95475000Y-59150000D01*
X92100000Y-73500000D02*
X93850000Y-73500000D01*
X84850000Y-65150000D02*
X86675000Y-63325000D01*
X79300000Y-71525000D02*
X79650000Y-71875000D01*
X206000000Y-58375000D02*
X206000000Y-58000000D01*
X91000000Y-73000000D02*
X91000000Y-73950000D01*
X93150000Y-88500000D02*
X95975000Y-88500000D01*
X156200000Y-70587500D02*
X156200000Y-69112500D01*
X201925000Y-73975000D02*
X201000000Y-73975000D01*
X79650000Y-72675000D02*
X79935000Y-72960000D01*
X63850000Y-73500000D02*
X78150000Y-73500000D01*
X95475000Y-59150000D02*
X95750000Y-59425000D01*
X96000000Y-87685000D02*
X96000000Y-88525000D01*
X188150000Y-73500000D02*
X188150000Y-74450000D01*
D51*
X158100000Y-113550000D02*
X159755000Y-115205000D01*
D52*
X77400000Y-71550000D02*
X77400000Y-71875000D01*
X82525000Y-67475000D02*
X84850000Y-65150000D01*
X201000000Y-72960000D02*
X201000000Y-73975000D01*
X173850000Y-73500000D02*
X188150000Y-73500000D01*
X79800000Y-67475000D02*
X82525000Y-67475000D01*
X86675000Y-63325000D02*
X88025000Y-63325000D01*
X188525000Y-74825000D02*
X190550000Y-74825000D01*
D51*
X159755000Y-115205000D02*
X163765000Y-115205000D01*
D52*
X79935000Y-72960000D02*
X80720000Y-72960000D01*
X191000000Y-74375000D02*
X191000000Y-73000000D01*
X190550000Y-74825000D02*
X191000000Y-74375000D01*
X202175000Y-73725000D02*
X201925000Y-73975000D01*
X78850000Y-88500000D02*
X77125000Y-88500000D01*
X108150000Y-73500000D02*
X108150000Y-75150000D01*
X126647500Y-49490000D02*
X127062500Y-49075000D01*
X78850000Y-59000000D02*
X77075000Y-59000000D01*
X126200000Y-49490000D02*
X126647500Y-49490000D01*
X202400000Y-73500000D02*
X202175000Y-73725000D01*
X93850000Y-73500000D02*
X108150000Y-73500000D01*
X188150000Y-74450000D02*
X188525000Y-74825000D01*
X96000000Y-59425000D02*
X96000000Y-58370000D01*
X78850000Y-88500000D02*
X93150000Y-88500000D01*
D51*
X158100000Y-112150000D02*
X158100000Y-113550000D01*
D52*
X127062500Y-49075000D02*
X127700000Y-49075000D01*
X188850000Y-88500000D02*
X187000000Y-88500000D01*
X91650000Y-73950000D02*
X92100000Y-73500000D01*
X206000000Y-58375000D02*
X206000000Y-59000000D01*
X95750000Y-59425000D02*
X96000000Y-59425000D01*
X91000000Y-73950000D02*
X91650000Y-73950000D01*
X79650000Y-71875000D02*
X79650000Y-72675000D01*
X78850000Y-59000000D02*
X93150000Y-59000000D01*
X95975000Y-88500000D02*
X96000000Y-88525000D01*
X203150000Y-88500000D02*
X206000000Y-88500000D01*
X188850000Y-59000000D02*
X203150000Y-59000000D01*
X77400000Y-71875000D02*
X78150000Y-72625000D01*
X203150000Y-59000000D02*
X206000000Y-59000000D01*
X206000000Y-87370000D02*
X206000000Y-88500000D01*
X78150000Y-72625000D02*
X78150000Y-73500000D01*
X203850000Y-73500000D02*
X218150000Y-73500000D01*
X93150000Y-59000000D02*
X95325000Y-59000000D01*
X203850000Y-73500000D02*
X202400000Y-73500000D01*
D53*
%TO.N,/[1] Power/V_Battery*%
X90175000Y-66250000D02*
X90175000Y-63900000D01*
X96625000Y-60050000D02*
X97425000Y-60050000D01*
X95675000Y-61000000D02*
X96625000Y-60050000D01*
X96400000Y-70225000D02*
X98475000Y-68150000D01*
X90175000Y-63900000D02*
X93075000Y-61000000D01*
X90575000Y-66650000D02*
X90175000Y-66250000D01*
X93075000Y-61000000D02*
X95675000Y-61000000D01*
X98475000Y-68150000D02*
X98475000Y-64675000D01*
D51*
%TO.N,VBUS*%
X143000000Y-112750000D02*
X143380000Y-113130000D01*
X119212500Y-117587500D02*
X119075000Y-117725000D01*
X131387500Y-112137500D02*
X132000000Y-112750000D01*
X120462500Y-117587500D02*
X119212500Y-117587500D01*
X138580000Y-117425000D02*
X138580000Y-112770000D01*
X139000000Y-112750000D02*
X141000000Y-112750000D01*
X138580000Y-112770000D02*
X138600000Y-112750000D01*
X140980000Y-111612500D02*
X140980000Y-112730000D01*
X143380000Y-113130000D02*
X143380000Y-117425000D01*
X141000000Y-112750000D02*
X143000000Y-112750000D01*
X123175000Y-112137500D02*
X131387500Y-112137500D01*
X140980000Y-112730000D02*
X141000000Y-112750000D01*
X138600000Y-112750000D02*
X139000000Y-112750000D01*
X132000000Y-112750000D02*
X139000000Y-112750000D01*
%TO.N,/[1] Power/VCAP_U*%
X121120000Y-114137500D02*
X120562500Y-114137500D01*
X120562500Y-114137500D02*
X120462500Y-114237500D01*
X120462500Y-114237500D02*
X120462500Y-115687500D01*
D52*
%TO.N,/[2] Microcontroller And Bluetooth/ENABLE*%
X124275000Y-56150000D02*
X121300000Y-53175000D01*
X126200000Y-51000000D02*
X126300000Y-51100000D01*
X128580000Y-51100000D02*
X129960000Y-49720000D01*
X167975000Y-120000000D02*
X167275000Y-120700000D01*
X126200000Y-50510000D02*
X126200000Y-51000000D01*
X124750000Y-77525000D02*
X124275000Y-77050000D01*
X121300000Y-53175000D02*
X121300000Y-52025000D01*
X166575000Y-101225000D02*
X166575000Y-117625000D01*
X166475000Y-101125000D02*
X166575000Y-101225000D01*
X121300000Y-51300000D02*
X122080000Y-50520000D01*
X165625000Y-100100000D02*
X166475000Y-100950000D01*
X122080000Y-50520000D02*
X124700000Y-50520000D01*
X165625000Y-95275000D02*
X165625000Y-100100000D01*
X129960000Y-49720000D02*
X131330000Y-49720000D01*
X124700000Y-50520000D02*
X126190000Y-50520000D01*
X167975000Y-119025000D02*
X167975000Y-120000000D01*
X166575000Y-117625000D02*
X167975000Y-119025000D01*
X166475000Y-100950000D02*
X166475000Y-101125000D01*
X126300000Y-51100000D02*
X128580000Y-51100000D01*
X121300000Y-52025000D02*
X121300000Y-51300000D01*
X126190000Y-50520000D02*
X126200000Y-50510000D01*
X124275000Y-77050000D02*
X124275000Y-56150000D01*
X167275000Y-120700000D02*
X163622500Y-120700000D01*
D51*
%TO.N,/[3] User Interface/LVOUT*%
X142500000Y-108580000D02*
X142770000Y-108850000D01*
X142500000Y-107082500D02*
X142500000Y-108580000D01*
%TO.N,/[3] User Interface/LV0*%
X129000000Y-108200000D02*
X129000000Y-107082500D01*
X127650000Y-108800000D02*
X128400000Y-108800000D01*
X128400000Y-108800000D02*
X129000000Y-108200000D01*
%TO.N,/[3] User Interface/LV1*%
X130500000Y-108690000D02*
X130500000Y-107082500D01*
%TO.N,/[3] User Interface/LV2*%
X132000000Y-108690000D02*
X132000000Y-107082500D01*
%TO.N,/[3] User Interface/LV3*%
X133500000Y-108690000D02*
X133500000Y-107082500D01*
%TO.N,/[3] User Interface/LV4*%
X135000000Y-108690000D02*
X135000000Y-107082500D01*
D52*
%TO.N,/[3] User Interface/LC2+*%
X137720000Y-108850000D02*
X137720000Y-108455000D01*
X138000000Y-108175000D02*
X138000000Y-107082500D01*
X137720000Y-108455000D02*
X138000000Y-108175000D01*
%TO.N,/[3] User Interface/LC2-*%
X136500000Y-108275000D02*
X136500000Y-107082500D01*
X136760000Y-108850000D02*
X136760000Y-108535000D01*
X136760000Y-108535000D02*
X136500000Y-108275000D01*
D51*
%TO.N,/[3] User Interface/LC1-*%
X141000000Y-108580000D02*
X140730000Y-108850000D01*
X141000000Y-107082500D02*
X141000000Y-108580000D01*
%TO.N,/[3] User Interface/LC1+*%
X139500000Y-108580000D02*
X139770000Y-108850000D01*
X139500000Y-107082500D02*
X139500000Y-108580000D01*
D52*
%TO.N,SAVE_DATA*%
X203150000Y-54000000D02*
X203150000Y-54950000D01*
X148830000Y-48450000D02*
X176525000Y-48450000D01*
X206000000Y-57040000D02*
X206000000Y-55630000D01*
X176525000Y-48450000D02*
X182075000Y-54000000D01*
X182075000Y-54000000D02*
X188850000Y-54000000D01*
X203830000Y-55630000D02*
X206000000Y-55630000D01*
X203150000Y-54950000D02*
X203830000Y-55630000D01*
X188850000Y-54000000D02*
X203150000Y-54000000D01*
%TO.N,RECORD_DATA*%
X173850000Y-68500000D02*
X173850000Y-62500000D01*
X189255000Y-70630000D02*
X190980000Y-70630000D01*
X152775000Y-54400000D02*
X151905000Y-53530000D01*
X173850000Y-62500000D02*
X165750000Y-54400000D01*
X152975000Y-54400000D02*
X152775000Y-54400000D01*
X191000000Y-70650000D02*
X190980000Y-70630000D01*
X188150000Y-69525000D02*
X189255000Y-70630000D01*
X188150000Y-68500000D02*
X188150000Y-69525000D01*
X191000000Y-72040000D02*
X191000000Y-70650000D01*
X151905000Y-53530000D02*
X148830000Y-53530000D01*
X188150000Y-68500000D02*
X173850000Y-68500000D01*
X165750000Y-54400000D02*
X158850000Y-54400000D01*
%TO.N,STOP_ROBOT*%
X166195000Y-49720000D02*
X148830000Y-49720000D01*
X190450000Y-62250000D02*
X178725000Y-62250000D01*
X203850000Y-68500000D02*
X203850000Y-69575000D01*
X203850000Y-69575000D02*
X202835000Y-70590000D01*
X201000000Y-70590000D02*
X198790000Y-70590000D01*
X203850000Y-68500000D02*
X218150000Y-68500000D01*
X201000000Y-72000000D02*
X201000000Y-70590000D01*
X178725000Y-62250000D02*
X166195000Y-49720000D01*
X198790000Y-70590000D02*
X190450000Y-62250000D01*
X202835000Y-70590000D02*
X201000000Y-70590000D01*
%TO.N,LOCK_ROBOT*%
X169075000Y-75975000D02*
X169075000Y-61125000D01*
X179550000Y-81500000D02*
X174600000Y-81500000D01*
X169075000Y-61125000D02*
X163875000Y-55925000D01*
X203150000Y-83500000D02*
X203150000Y-84500000D01*
X206000000Y-85000000D02*
X206000000Y-86410000D01*
X203150000Y-83500000D02*
X188850000Y-83500000D01*
X203650000Y-85000000D02*
X206000000Y-85000000D01*
X153600000Y-55925000D02*
X151325000Y-55925000D01*
X174600000Y-81500000D02*
X169075000Y-75975000D01*
X181550000Y-83500000D02*
X179550000Y-81500000D01*
X188850000Y-83500000D02*
X181550000Y-83500000D01*
X151325000Y-55925000D02*
X151180000Y-56070000D01*
X151180000Y-56070000D02*
X148830000Y-56070000D01*
X203150000Y-84500000D02*
X203650000Y-85000000D01*
X163875000Y-55925000D02*
X159900000Y-55925000D01*
%TO.N,CONNECT_BT*%
X96000000Y-57410000D02*
X96000000Y-56000000D01*
X93150000Y-54000000D02*
X93150000Y-55000000D01*
X78850000Y-54000000D02*
X93150000Y-54000000D01*
X93150000Y-55000000D02*
X94150000Y-56000000D01*
X93150000Y-53125000D02*
X93775000Y-52500000D01*
X93775000Y-52500000D02*
X93800000Y-52475000D01*
X126725000Y-53925000D02*
X127000000Y-53925000D01*
X127000000Y-53925000D02*
X127395000Y-53530000D01*
X94150000Y-56000000D02*
X96000000Y-56000000D01*
X116325000Y-52475000D02*
X118325000Y-54475000D01*
X127395000Y-53530000D02*
X131330000Y-53530000D01*
X97550000Y-52475000D02*
X116325000Y-52475000D01*
X93150000Y-54000000D02*
X93150000Y-53125000D01*
X93800000Y-52475000D02*
X97550000Y-52475000D01*
X118325000Y-54475000D02*
X121300000Y-54475000D01*
%TO.N,FUNC_6*%
X78150000Y-69900000D02*
X78840000Y-70590000D01*
X63850000Y-68500000D02*
X78150000Y-68500000D01*
X125125000Y-54800000D02*
X131330000Y-54800000D01*
X80720000Y-72000000D02*
X80720000Y-70590000D01*
X63850000Y-68500000D02*
X63850000Y-64150000D01*
X63850000Y-64150000D02*
X65725000Y-62275000D01*
X65725000Y-62275000D02*
X68350000Y-62275000D01*
X124975000Y-55300000D02*
X124975000Y-54950000D01*
X78150000Y-68500000D02*
X78150000Y-69900000D01*
X124975000Y-54950000D02*
X125125000Y-54800000D01*
X74000000Y-56625000D02*
X91475000Y-56625000D01*
X73025000Y-57600000D02*
X74000000Y-56625000D01*
X68350000Y-62275000D02*
X73025000Y-57600000D01*
X78840000Y-70590000D02*
X80720000Y-70590000D01*
%TO.N,FUNC_7*%
X92920000Y-70630000D02*
X93850000Y-69700000D01*
X91000000Y-72040000D02*
X101835000Y-72040000D01*
X122400000Y-61600000D02*
X122850000Y-61600000D01*
X93850000Y-69700000D02*
X93850000Y-68500000D01*
X105375000Y-68500000D02*
X108150000Y-68500000D01*
X115500000Y-68500000D02*
X122400000Y-61600000D01*
X126200000Y-55750000D02*
X128335000Y-55750000D01*
X122850000Y-61600000D02*
X123275000Y-61175000D01*
X91000000Y-70630000D02*
X91000000Y-72040000D01*
X128655000Y-56070000D02*
X131330000Y-56070000D01*
X128335000Y-55750000D02*
X128655000Y-56070000D01*
X101835000Y-72040000D02*
X105375000Y-68500000D01*
X123275000Y-61175000D02*
X123275000Y-56925000D01*
X125775000Y-56175000D02*
X126200000Y-55750000D01*
X108150000Y-68500000D02*
X115500000Y-68500000D01*
X91000000Y-70630000D02*
X92920000Y-70630000D01*
X125775000Y-56550000D02*
X125775000Y-56175000D01*
%TO.N,FUNC_8*%
X93150000Y-82125000D02*
X96875000Y-78400000D01*
X93740000Y-85315000D02*
X96000000Y-85315000D01*
X113950000Y-72125000D02*
X113950000Y-71575000D01*
X125150000Y-63025000D02*
X125150000Y-58675000D01*
X93150000Y-83500000D02*
X93150000Y-84725000D01*
X122500000Y-63025000D02*
X123275000Y-63025000D01*
X96875000Y-78400000D02*
X110075000Y-78400000D01*
X125150000Y-58675000D02*
X126875000Y-56950000D01*
X126875000Y-56950000D02*
X129875000Y-56950000D01*
X130265000Y-57340000D02*
X131330000Y-57340000D01*
X113950000Y-71575000D02*
X122500000Y-63025000D01*
X93150000Y-83500000D02*
X93150000Y-82125000D01*
X110075000Y-78400000D02*
X110075000Y-76000000D01*
X129875000Y-56950000D02*
X130265000Y-57340000D01*
X110075000Y-76000000D02*
X113950000Y-72125000D01*
X96000000Y-85315000D02*
X96000000Y-86725000D01*
X78850000Y-83500000D02*
X93150000Y-83500000D01*
X93150000Y-84725000D02*
X93740000Y-85315000D01*
%TO.N,/[1] Power/POW_IND_LED_R*%
X156200000Y-74605000D02*
X156200000Y-72162500D01*
%TO.N,Net-(J201-CC1)*%
X139730000Y-119020000D02*
X139730000Y-117425000D01*
X134605000Y-119605000D02*
X135000000Y-120000000D01*
X138750000Y-120000000D02*
X139730000Y-119020000D01*
X135000000Y-120000000D02*
X138750000Y-120000000D01*
X134605000Y-117762500D02*
X134605000Y-119605000D01*
D54*
%TO.N,/[2] Microcontroller And Bluetooth/D_RAW-*%
X141100000Y-118900000D02*
X141230000Y-118770000D01*
X140230000Y-118630000D02*
X140500000Y-118900000D01*
X140230000Y-117425000D02*
X140230000Y-118630000D01*
X141708600Y-115102651D02*
X141708600Y-115453868D01*
X141708600Y-115453868D02*
X141214750Y-115947718D01*
X141214750Y-116547249D02*
X141230000Y-116562499D01*
X141230000Y-116562499D02*
X141230000Y-117425000D01*
X141930000Y-113887500D02*
X141930000Y-114881251D01*
X140500000Y-118900000D02*
X141100000Y-118900000D01*
X141930000Y-114881251D02*
X141708600Y-115102651D01*
X141230000Y-118770000D02*
X141230000Y-117425000D01*
X141214750Y-115947718D02*
X141214750Y-116547249D01*
D52*
%TO.N,Net-(J201-CC2)*%
X142730000Y-118980000D02*
X143750000Y-120000000D01*
X143750000Y-120000000D02*
X146250000Y-120000000D01*
X146250000Y-120000000D02*
X147155000Y-119095000D01*
X147155000Y-119095000D02*
X147155000Y-117762500D01*
X142730000Y-117425000D02*
X142730000Y-118980000D01*
D54*
%TO.N,/[2] Microcontroller And Bluetooth/D_RAW+*%
X140184926Y-116225000D02*
X140730000Y-116770074D01*
X140730000Y-116562499D02*
X140730000Y-117425000D01*
X140241400Y-115453868D02*
X140745250Y-115957718D01*
X140730000Y-116770074D02*
X140730000Y-117425000D01*
X142124970Y-116425604D02*
X142074470Y-116425604D01*
X140030000Y-113887500D02*
X140030000Y-114881251D01*
X140745250Y-116547249D02*
X140730000Y-116562499D01*
X140745250Y-115957718D02*
X140745250Y-116547249D01*
X140000000Y-116225000D02*
X140184926Y-116225000D01*
X141730000Y-116770074D02*
X141730000Y-117425000D01*
X142074470Y-116425604D02*
X141730000Y-116770074D01*
X140030000Y-114881251D02*
X140241400Y-115092651D01*
X140241400Y-115092651D02*
X140241400Y-115453868D01*
D53*
%TO.N,/[1] Power/GATE_B*%
X95700000Y-63025000D02*
X96800000Y-61925000D01*
X95700000Y-67850000D02*
X95700000Y-63025000D01*
D51*
%TO.N,/[1] Power/GATE_U*%
X127125000Y-115650000D02*
X127137500Y-115662500D01*
X124062500Y-116637500D02*
X124075000Y-116650000D01*
X122737500Y-116637500D02*
X124062500Y-116637500D01*
X127125000Y-114350000D02*
X127125000Y-115650000D01*
D52*
%TO.N,/[2] Microcontroller And Bluetooth/DTR*%
X155250000Y-119275000D02*
X154725000Y-119800000D01*
X155250000Y-118850000D02*
X155250000Y-119275000D01*
X155500000Y-118600000D02*
X155250000Y-118850000D01*
X158100000Y-119325000D02*
X157925000Y-119500000D01*
X157525000Y-119000000D02*
X157125000Y-118600000D01*
X154725000Y-119800000D02*
X153660000Y-119800000D01*
X158100000Y-117100000D02*
X158100000Y-119325000D01*
X157525000Y-119500000D02*
X157525000Y-119000000D01*
X157125000Y-118600000D02*
X155500000Y-118600000D01*
X157925000Y-119500000D02*
X157525000Y-119500000D01*
%TO.N,/[2] Microcontroller And Bluetooth/RTS_R*%
X160860000Y-120115000D02*
X160860000Y-119500000D01*
X160425000Y-120550000D02*
X160860000Y-120115000D01*
X160275000Y-121700000D02*
X160425000Y-121550000D01*
X153660000Y-121700000D02*
X160275000Y-121700000D01*
X160425000Y-121550000D02*
X160425000Y-120550000D01*
%TO.N,/[2] Microcontroller And Bluetooth/IO0*%
X149965000Y-63690000D02*
X148830000Y-63690000D01*
X151450000Y-118525000D02*
X151450000Y-115125000D01*
X150400000Y-64125000D02*
X149965000Y-63690000D01*
X150725000Y-120650000D02*
X150725000Y-119250000D01*
X151785000Y-120750000D02*
X150825000Y-120750000D01*
X150825000Y-120750000D02*
X150725000Y-120650000D01*
X157675000Y-108475000D02*
X155350000Y-108475000D01*
X154825000Y-107950000D02*
X154825000Y-68925000D01*
X150725000Y-119250000D02*
X151450000Y-118525000D01*
X154825000Y-68925000D02*
X153775000Y-67875000D01*
X150400000Y-67200000D02*
X150400000Y-64125000D01*
X155350000Y-108475000D02*
X154825000Y-107950000D01*
%TO.N,/[2] Microcontroller And Bluetooth/DTR_R*%
X156950000Y-120875000D02*
X156505000Y-120430000D01*
X161050000Y-122500000D02*
X161900000Y-121650000D01*
X156505000Y-120430000D02*
X156505000Y-119500000D01*
X158225000Y-122500000D02*
X161050000Y-122500000D01*
X161900000Y-121650000D02*
X165497500Y-121650000D01*
X157725000Y-120875000D02*
X156950000Y-120875000D01*
%TO.N,/[2] Microcontroller And Bluetooth/RTS*%
X159840000Y-119110000D02*
X160175000Y-118775000D01*
X163950000Y-119175000D02*
X164525000Y-119750000D01*
X159370000Y-119395000D02*
X159475000Y-119500000D01*
X160175000Y-118775000D02*
X163775000Y-118775000D01*
X163950000Y-118950000D02*
X163950000Y-119175000D01*
X159475000Y-119500000D02*
X159840000Y-119500000D01*
X164525000Y-119750000D02*
X165497500Y-119750000D01*
X159370000Y-117100000D02*
X159370000Y-119395000D01*
X163775000Y-118775000D02*
X163950000Y-118950000D01*
X159840000Y-119500000D02*
X159840000Y-119110000D01*
D54*
%TO.N,/[2] Microcontroller And Bluetooth/D+*%
X140030000Y-111612500D02*
X140346400Y-111296100D01*
X154520250Y-109840250D02*
X155521400Y-110841400D01*
X155914472Y-110841400D02*
X156193600Y-111120528D01*
X140346400Y-111296100D02*
X140346400Y-110895528D01*
X141026100Y-110616400D02*
X141802250Y-109840250D01*
X155521400Y-110841400D02*
X155914472Y-110841400D01*
X141802250Y-109840250D02*
X154520250Y-109840250D01*
X156193600Y-111120528D02*
X156193600Y-111513600D01*
X140346400Y-110895528D02*
X140625528Y-110616400D01*
X156193600Y-111513600D02*
X156830000Y-112150000D01*
X140625528Y-110616400D02*
X141026100Y-110616400D01*
%TO.N,/[2] Microcontroller And Bluetooth/D-*%
X145262830Y-111030348D02*
X145262830Y-110549750D01*
X145862830Y-110549750D02*
X145862830Y-111030356D01*
X154325776Y-110309750D02*
X155560000Y-111543974D01*
X141996724Y-110309750D02*
X144422830Y-110309750D01*
X141930000Y-110376474D02*
X141996724Y-110309750D01*
X141930000Y-111612500D02*
X141930000Y-110376474D01*
X146822830Y-110309750D02*
X148909435Y-110309750D01*
X146702830Y-110309750D02*
X146822830Y-110309750D01*
X146462830Y-111030356D02*
X146462830Y-110549750D01*
X146102830Y-111270356D02*
X146222830Y-111270356D01*
X148909435Y-110309750D02*
X154325776Y-110309750D01*
X145502830Y-110309750D02*
X145622830Y-110309750D01*
X144902830Y-111270348D02*
X145022830Y-111270348D01*
X155560000Y-111543974D02*
X155560000Y-112150000D01*
X144662830Y-110549750D02*
X144662830Y-111030348D01*
X145622830Y-110309750D02*
G75*
G02*
X145862750Y-110549750I-30J-239950D01*
G01*
X146222830Y-111270356D02*
G75*
G03*
X146462756Y-111030356I-30J239956D01*
G01*
X145022830Y-111270348D02*
G75*
G03*
X145262848Y-111030348I-30J240048D01*
G01*
X146462830Y-110549750D02*
G75*
G02*
X146702830Y-110309730I239970J50D01*
G01*
X145862830Y-111030356D02*
G75*
G03*
X146102830Y-111270370I239970J-44D01*
G01*
X145262830Y-110549750D02*
G75*
G02*
X145502830Y-110309730I239970J50D01*
G01*
X144662830Y-111030348D02*
G75*
G03*
X144902830Y-111270270I239970J48D01*
G01*
X144422830Y-110309750D02*
G75*
G02*
X144662750Y-110549750I-30J-239950D01*
G01*
D52*
%TO.N,RIGHT_STICK*%
X129165000Y-52260000D02*
X131330000Y-52260000D01*
X166725000Y-62950000D02*
X166725000Y-76050000D01*
X168975000Y-109000000D02*
X170840000Y-109000000D01*
X129150000Y-52275000D02*
X129165000Y-52260000D01*
X163950000Y-60175000D02*
X166725000Y-62950000D01*
X163950000Y-58350000D02*
X163950000Y-60175000D01*
X166725000Y-76050000D02*
X168600000Y-77925000D01*
X168600000Y-77925000D02*
X168600000Y-108625000D01*
X128900000Y-52275000D02*
X129150000Y-52275000D01*
X168600000Y-108625000D02*
X168975000Y-109000000D01*
%TO.N,LEFT_STICK*%
X131330000Y-50990000D02*
X130185000Y-50990000D01*
X116650000Y-54225000D02*
X117300000Y-54875000D01*
X129550000Y-51625000D02*
X126300000Y-51625000D01*
X117300000Y-54875000D02*
X117300000Y-59125000D01*
X118175000Y-60000000D02*
X118175000Y-63700000D01*
X101000000Y-81525000D02*
X101000000Y-119160000D01*
X102400000Y-80125000D02*
X101000000Y-81525000D01*
X117300000Y-59125000D02*
X118175000Y-60000000D01*
X117525000Y-80125000D02*
X102400000Y-80125000D01*
X130185000Y-50990000D02*
X129550000Y-51625000D01*
X118175000Y-63700000D02*
X118525000Y-64050000D01*
X118525000Y-79125000D02*
X117525000Y-80125000D01*
X118525000Y-68350000D02*
X118525000Y-79125000D01*
%TO.N,SPI_CLK*%
X126025000Y-66275000D02*
X126025000Y-80825000D01*
X131330000Y-62420000D02*
X129880000Y-62420000D01*
X129880000Y-62420000D02*
X126025000Y-66275000D01*
X148500000Y-103300000D02*
X148500000Y-107082500D01*
X126025000Y-80825000D02*
X148500000Y-103300000D01*
%TO.N,{slash}RESET*%
X129500000Y-67825000D02*
X127625000Y-69700000D01*
X135175000Y-67825000D02*
X129500000Y-67825000D01*
X135640000Y-64940000D02*
X135640000Y-67360000D01*
X151500000Y-105000000D02*
X151500000Y-107082500D01*
X147350000Y-99250000D02*
X147350000Y-100850000D01*
X127625000Y-69700000D02*
X127625000Y-79525000D01*
X127625000Y-79525000D02*
X147350000Y-99250000D01*
X147350000Y-100850000D02*
X151500000Y-105000000D01*
X135640000Y-67360000D02*
X135175000Y-67825000D01*
%TO.N,SPI_COPI*%
X149400000Y-99625000D02*
X151225000Y-97800000D01*
X147000000Y-105500000D02*
X147000000Y-107082500D01*
X151225000Y-61825000D02*
X150550000Y-61150000D01*
X151225000Y-97800000D02*
X151225000Y-61825000D01*
X149400000Y-101000000D02*
X149400000Y-99625000D01*
X144100000Y-101100000D02*
X144100000Y-102600000D01*
X144100000Y-102600000D02*
X147000000Y-105500000D01*
X150550000Y-61150000D02*
X148830000Y-61150000D01*
%TO.N,/[2] Microcontroller And Bluetooth/UART_TX*%
X164225000Y-106550000D02*
X161525000Y-109250000D01*
X161525000Y-109250000D02*
X160675000Y-109250000D01*
X152690000Y-50990000D02*
X164225000Y-62525000D01*
X148830000Y-50990000D02*
X152690000Y-50990000D01*
X164225000Y-62525000D02*
X164225000Y-106550000D01*
X160675000Y-109250000D02*
X159370000Y-110555000D01*
X159370000Y-110555000D02*
X159370000Y-112150000D01*
%TO.N,{slash}CHIP_SELECT*%
X149425000Y-68725000D02*
X149750000Y-69050000D01*
X146600000Y-68700000D02*
X149425000Y-68700000D01*
X149750000Y-96725000D02*
X149925000Y-96900000D01*
X153000000Y-104625000D02*
X153000000Y-107082500D01*
X144530000Y-64940000D02*
X144530000Y-66630000D01*
X144530000Y-66630000D02*
X145175000Y-67275000D01*
X149750000Y-69050000D02*
X149750000Y-96725000D01*
X145175000Y-67275000D02*
X146600000Y-68700000D01*
X149425000Y-68700000D02*
X149425000Y-68725000D01*
%TO.N,REGISTER_SELECT*%
X151300000Y-100850000D02*
X152525000Y-99625000D01*
X150000000Y-105525000D02*
X150000000Y-107082500D01*
X152525000Y-99625000D02*
X152525000Y-87625000D01*
X151300000Y-102900000D02*
X151300000Y-100850000D01*
X152675000Y-61950000D02*
X150605000Y-59880000D01*
X150605000Y-59880000D02*
X148830000Y-59880000D01*
X152675000Y-87475000D02*
X152675000Y-61950000D01*
X149850000Y-104750000D02*
X149850000Y-105375000D01*
X152525000Y-87625000D02*
X152675000Y-87475000D01*
X149850000Y-105375000D02*
X150000000Y-105525000D01*
%TO.N,/[2] Microcontroller And Bluetooth/UART_RX*%
X161450000Y-109900000D02*
X160640000Y-110710000D01*
X148830000Y-52260000D02*
X152360000Y-52260000D01*
X162900000Y-109900000D02*
X161450000Y-109900000D01*
X160640000Y-110710000D02*
X160640000Y-112150000D01*
X163700000Y-108650000D02*
X163700000Y-109100000D01*
X152360000Y-52260000D02*
X163100000Y-63000000D01*
X163700000Y-109100000D02*
X162900000Y-109900000D01*
X163100000Y-63000000D02*
X163100000Y-106100000D01*
D51*
%TO.N,/[1] Power/PWR_SW_CAP*%
X131200000Y-75800000D02*
X133850000Y-75800000D01*
X133850000Y-75800000D02*
X148150000Y-75800000D01*
%TO.N,/[1] Power/PW_SW_R_G_S*%
X110150000Y-62700000D02*
X110150000Y-59825000D01*
X109150000Y-63700000D02*
X110150000Y-62700000D01*
%TO.N,/[1] Power/PW_SW_R*%
X130150000Y-70800000D02*
X133850000Y-70800000D01*
X148150000Y-70800000D02*
X133850000Y-70800000D01*
%TD*%
%TA.AperFunction,Conductor*%
%TO.N,VBUS*%
G36*
X123993416Y-110770002D02*
G01*
X124035844Y-110815544D01*
X125728938Y-113911487D01*
X125734549Y-113921746D01*
X125750000Y-113982202D01*
X125750000Y-116268500D01*
X125729998Y-116336621D01*
X125676342Y-116383114D01*
X125624000Y-116394500D01*
X125467753Y-116394500D01*
X125425122Y-116397489D01*
X125390294Y-116402399D01*
X125390289Y-116402399D01*
X125348470Y-116411316D01*
X125231072Y-116445089D01*
X125196238Y-116450000D01*
X124644307Y-116450000D01*
X124576186Y-116429998D01*
X124539318Y-116391330D01*
X124539052Y-116391535D01*
X124537148Y-116389054D01*
X124535184Y-116386994D01*
X124534019Y-116384975D01*
X124449792Y-116275210D01*
X124340014Y-116190973D01*
X124212183Y-116138026D01*
X124075000Y-116119965D01*
X124074999Y-116119965D01*
X124042564Y-116124235D01*
X123972415Y-116113295D01*
X123956226Y-116104151D01*
X123950000Y-116100000D01*
X123523067Y-116100000D01*
X123471969Y-116087327D01*
X123471795Y-116087825D01*
X123466487Y-116085967D01*
X123464190Y-116085398D01*
X123462879Y-116084705D01*
X123334704Y-116039855D01*
X123334700Y-116039854D01*
X123304266Y-116037000D01*
X122170734Y-116037000D01*
X122170733Y-116037000D01*
X122140299Y-116039854D01*
X122140295Y-116039855D01*
X122012120Y-116084705D01*
X122010810Y-116085398D01*
X122008512Y-116085967D01*
X122003205Y-116087825D01*
X122003030Y-116087327D01*
X121951933Y-116100000D01*
X121826000Y-116100000D01*
X121757879Y-116079998D01*
X121711386Y-116026342D01*
X121700000Y-115974000D01*
X121700000Y-114371796D01*
X121700387Y-114363517D01*
X121700362Y-114363516D01*
X121700500Y-114360562D01*
X121700500Y-113914439D01*
X121700362Y-113911487D01*
X121700387Y-113911485D01*
X121700000Y-113903205D01*
X121700000Y-113867432D01*
X121720002Y-113799311D01*
X121756106Y-113762595D01*
X122300000Y-113400000D01*
X122300000Y-110876000D01*
X122320002Y-110807879D01*
X122373658Y-110761386D01*
X122426000Y-110750000D01*
X123925295Y-110750000D01*
X123993416Y-110770002D01*
G37*
%TD.AperFunction*%
%TD*%
%TA.AperFunction,Conductor*%
%TO.N,VCC*%
G36*
X126542121Y-116720002D02*
G01*
X126588614Y-116773658D01*
X126600000Y-116826000D01*
X126600000Y-118430991D01*
X126579998Y-118499112D01*
X126526342Y-118545605D01*
X126509885Y-118551773D01*
X123167563Y-119544782D01*
X123131678Y-119550000D01*
X121826000Y-119550000D01*
X121757879Y-119529998D01*
X121711386Y-119476342D01*
X121700000Y-119424000D01*
X121700000Y-119271796D01*
X121700387Y-119263517D01*
X121700362Y-119263516D01*
X121700500Y-119260562D01*
X121700500Y-118814439D01*
X121700362Y-118811487D01*
X121700387Y-118811485D01*
X121700000Y-118803205D01*
X121700000Y-117351000D01*
X121720002Y-117282879D01*
X121773658Y-117236386D01*
X121826000Y-117225000D01*
X122089897Y-117225000D01*
X122131512Y-117232070D01*
X122140301Y-117235146D01*
X122170734Y-117238000D01*
X122170736Y-117238000D01*
X123304264Y-117238000D01*
X123304266Y-117238000D01*
X123334699Y-117235146D01*
X123343487Y-117232070D01*
X123385103Y-117225000D01*
X123625000Y-117225000D01*
X123857059Y-117158243D01*
X123928052Y-117158632D01*
X123936301Y-117161568D01*
X123937814Y-117161973D01*
X123937817Y-117161974D01*
X124075000Y-117180035D01*
X124212183Y-117161974D01*
X124338507Y-117109650D01*
X124340014Y-117109026D01*
X124340014Y-117109025D01*
X124340018Y-117109024D01*
X124449791Y-117024791D01*
X124461027Y-117010147D01*
X124518359Y-116968282D01*
X124526109Y-116965776D01*
X125432928Y-116704910D01*
X125467762Y-116700000D01*
X126474000Y-116700000D01*
X126542121Y-116720002D01*
G37*
%TD.AperFunction*%
%TD*%
%TA.AperFunction,Conductor*%
%TO.N,GND*%
G36*
X164692121Y-110945002D02*
G01*
X164738614Y-110998658D01*
X164750000Y-111051000D01*
X164750000Y-114368500D01*
X164729998Y-114436621D01*
X164676342Y-114483114D01*
X164624000Y-114494500D01*
X164104128Y-114494500D01*
X164104118Y-114494500D01*
X164104114Y-114494501D01*
X164052967Y-114498815D01*
X164052945Y-114498818D01*
X164011346Y-114505885D01*
X164011332Y-114505888D01*
X163972110Y-114516006D01*
X163940639Y-114520000D01*
X163589360Y-114520000D01*
X163557889Y-114516006D01*
X163518658Y-114505886D01*
X163518652Y-114505885D01*
X163477048Y-114498817D01*
X163477043Y-114498816D01*
X163425873Y-114494500D01*
X163425872Y-114494500D01*
X161526000Y-114494500D01*
X161457879Y-114474498D01*
X161411386Y-114420842D01*
X161400000Y-114368500D01*
X161400000Y-111051000D01*
X161420002Y-110982879D01*
X161473658Y-110936386D01*
X161526000Y-110925000D01*
X164624000Y-110925000D01*
X164692121Y-110945002D01*
G37*
%TD.AperFunction*%
%TD*%
%TA.AperFunction,Conductor*%
%TO.N,+3V3*%
G36*
X163467486Y-114807070D02*
G01*
X163512181Y-114822710D01*
X163541934Y-114825500D01*
X163541937Y-114825500D01*
X163988063Y-114825500D01*
X163988066Y-114825500D01*
X164017819Y-114822710D01*
X164062513Y-114807070D01*
X164104128Y-114800000D01*
X164649000Y-114800000D01*
X164717121Y-114820002D01*
X164763614Y-114873658D01*
X164775000Y-114926000D01*
X164775000Y-118199000D01*
X164754998Y-118267121D01*
X164701342Y-118313614D01*
X164649000Y-118325000D01*
X161526000Y-118325000D01*
X161457879Y-118304998D01*
X161411386Y-118251342D01*
X161400000Y-118199000D01*
X161400000Y-114926000D01*
X161420002Y-114857879D01*
X161473658Y-114811386D01*
X161526000Y-114800000D01*
X163425872Y-114800000D01*
X163467486Y-114807070D01*
G37*
%TD.AperFunction*%
%TD*%
%TA.AperFunction,Conductor*%
%TO.N,GND*%
G36*
X132142121Y-46295002D02*
G01*
X132188614Y-46348658D01*
X132200000Y-46401000D01*
X132200000Y-47573500D01*
X132179998Y-47641621D01*
X132126342Y-47688114D01*
X132074000Y-47699500D01*
X130535140Y-47699500D01*
X130535133Y-47699501D01*
X130510009Y-47702414D01*
X130510005Y-47702416D01*
X130483173Y-47714264D01*
X130432279Y-47725000D01*
X130251510Y-47725000D01*
X130203293Y-47715409D01*
X130137183Y-47688026D01*
X130000000Y-47669965D01*
X129862816Y-47688026D01*
X129734984Y-47740974D01*
X129659411Y-47798963D01*
X129593190Y-47824563D01*
X129582708Y-47825000D01*
X129539128Y-47825000D01*
X129497513Y-47817929D01*
X129462516Y-47805683D01*
X129452820Y-47802290D01*
X129423068Y-47799500D01*
X129423066Y-47799500D01*
X128976934Y-47799500D01*
X128976931Y-47799500D01*
X128947180Y-47802290D01*
X128947178Y-47802290D01*
X128916364Y-47813073D01*
X128902486Y-47817929D01*
X128860872Y-47825000D01*
X128400000Y-47825000D01*
X128237738Y-48048110D01*
X128181494Y-48091437D01*
X128135837Y-48100000D01*
X126926000Y-48100000D01*
X126857879Y-48079998D01*
X126811386Y-48026342D01*
X126800000Y-47974000D01*
X126800000Y-46401000D01*
X126820002Y-46332879D01*
X126873658Y-46286386D01*
X126926000Y-46275000D01*
X132074000Y-46275000D01*
X132142121Y-46295002D01*
G37*
%TD.AperFunction*%
%TD*%
%TA.AperFunction,Conductor*%
%TO.N,GND*%
G36*
X123009410Y-51045002D02*
G01*
X123016110Y-51049621D01*
X123021841Y-51053851D01*
X123021842Y-51053851D01*
X123021843Y-51053852D01*
X123147181Y-51097710D01*
X123176934Y-51100500D01*
X123176937Y-51100500D01*
X123623063Y-51100500D01*
X123623066Y-51100500D01*
X123652819Y-51097710D01*
X123778157Y-51053852D01*
X123783890Y-51049621D01*
X123850577Y-51025263D01*
X123858711Y-51025000D01*
X124241289Y-51025000D01*
X124309410Y-51045002D01*
X124316110Y-51049621D01*
X124321841Y-51053851D01*
X124321842Y-51053851D01*
X124321843Y-51053852D01*
X124447181Y-51097710D01*
X124476934Y-51100500D01*
X124476937Y-51100500D01*
X124923063Y-51100500D01*
X124923066Y-51100500D01*
X124952819Y-51097710D01*
X125078157Y-51053852D01*
X125078156Y-51053852D01*
X125082384Y-51052373D01*
X125153288Y-51048753D01*
X125214894Y-51084042D01*
X125247641Y-51147035D01*
X125250000Y-51171302D01*
X125250000Y-52474000D01*
X125229998Y-52542121D01*
X125176342Y-52588614D01*
X125124000Y-52600000D01*
X122926000Y-52600000D01*
X122857879Y-52579998D01*
X122811386Y-52526342D01*
X122800000Y-52474000D01*
X122800000Y-51151000D01*
X122820002Y-51082879D01*
X122873658Y-51036386D01*
X122926000Y-51025000D01*
X122941289Y-51025000D01*
X123009410Y-51045002D01*
G37*
%TD.AperFunction*%
%TD*%
%TA.AperFunction,Conductor*%
%TO.N,GND*%
G36*
X130145331Y-109232071D02*
G01*
X130247175Y-109267708D01*
X130247181Y-109267710D01*
X130276934Y-109270500D01*
X130276937Y-109270500D01*
X130723063Y-109270500D01*
X130723066Y-109270500D01*
X130752819Y-109267710D01*
X130854669Y-109232071D01*
X130896285Y-109225000D01*
X131603715Y-109225000D01*
X131645331Y-109232071D01*
X131747175Y-109267708D01*
X131747181Y-109267710D01*
X131776934Y-109270500D01*
X131776937Y-109270500D01*
X132223063Y-109270500D01*
X132223066Y-109270500D01*
X132252819Y-109267710D01*
X132354669Y-109232071D01*
X132396285Y-109225000D01*
X133103715Y-109225000D01*
X133145331Y-109232071D01*
X133247175Y-109267708D01*
X133247181Y-109267710D01*
X133276934Y-109270500D01*
X133276937Y-109270500D01*
X133723063Y-109270500D01*
X133723066Y-109270500D01*
X133752819Y-109267710D01*
X133854669Y-109232071D01*
X133896285Y-109225000D01*
X134603715Y-109225000D01*
X134645331Y-109232071D01*
X134747175Y-109267708D01*
X134747181Y-109267710D01*
X134776934Y-109270500D01*
X134776937Y-109270500D01*
X135223063Y-109270500D01*
X135223066Y-109270500D01*
X135252819Y-109267710D01*
X135354669Y-109232071D01*
X135396285Y-109225000D01*
X135524000Y-109225000D01*
X135592121Y-109245002D01*
X135638614Y-109298658D01*
X135650000Y-109351000D01*
X135650000Y-110974000D01*
X135629998Y-111042121D01*
X135576342Y-111088614D01*
X135524000Y-111100000D01*
X130001000Y-111100000D01*
X129932879Y-111079998D01*
X129886386Y-111026342D01*
X129875000Y-110974000D01*
X129875000Y-109351000D01*
X129895002Y-109282879D01*
X129948658Y-109236386D01*
X130001000Y-109225000D01*
X130103715Y-109225000D01*
X130145331Y-109232071D01*
G37*
%TD.AperFunction*%
%TD*%
%TA.AperFunction,Conductor*%
%TO.N,+3V3*%
G36*
X130029928Y-47982041D02*
G01*
X130040982Y-47983496D01*
X130072755Y-47992008D01*
X130086386Y-47997655D01*
X130143693Y-48015039D01*
X130191910Y-48024630D01*
X130251510Y-48030500D01*
X130251519Y-48030500D01*
X130432280Y-48030500D01*
X130438858Y-48029813D01*
X130495336Y-48023922D01*
X130546230Y-48013186D01*
X130552770Y-48011077D01*
X130591429Y-48005000D01*
X132074000Y-48005000D01*
X132142121Y-48025002D01*
X132188614Y-48078658D01*
X132200000Y-48131000D01*
X132200000Y-48843500D01*
X132179998Y-48911621D01*
X132126342Y-48958114D01*
X132074000Y-48969500D01*
X130535140Y-48969500D01*
X130535133Y-48969501D01*
X130510009Y-48972414D01*
X130510005Y-48972416D01*
X130407235Y-49017793D01*
X130384585Y-49040444D01*
X130361932Y-49063096D01*
X130306795Y-49093203D01*
X130300000Y-49099999D01*
X130300000Y-49133603D01*
X130289264Y-49184495D01*
X130282415Y-49200009D01*
X130282414Y-49200013D01*
X130280494Y-49207074D01*
X130243312Y-49267556D01*
X130179334Y-49298334D01*
X130158912Y-49300000D01*
X129400000Y-49300000D01*
X129400000Y-49574000D01*
X129379998Y-49642121D01*
X129326342Y-49688614D01*
X129274000Y-49700000D01*
X128400000Y-49700000D01*
X128400000Y-50474000D01*
X128379998Y-50542121D01*
X128326342Y-50588614D01*
X128274000Y-50600000D01*
X126946500Y-50600000D01*
X126878379Y-50579998D01*
X126831886Y-50526342D01*
X126820500Y-50474001D01*
X126820499Y-50322551D01*
X126820498Y-50322543D01*
X126817741Y-50293121D01*
X126807071Y-50262627D01*
X126800000Y-50221012D01*
X126800000Y-48531500D01*
X126820002Y-48463379D01*
X126873658Y-48416886D01*
X126926000Y-48405500D01*
X128135836Y-48405500D01*
X128135837Y-48405500D01*
X128144664Y-48404679D01*
X128189188Y-48400541D01*
X128200450Y-48400018D01*
X128216818Y-48395638D01*
X128237809Y-48391702D01*
X128241396Y-48390838D01*
X128267910Y-48384460D01*
X128267911Y-48384459D01*
X128267913Y-48384459D01*
X128367929Y-48333454D01*
X128424173Y-48290127D01*
X128484807Y-48227797D01*
X128517830Y-48182391D01*
X128574072Y-48139064D01*
X128619731Y-48130500D01*
X128860861Y-48130500D01*
X128860872Y-48130500D01*
X128912049Y-48126183D01*
X128953663Y-48119112D01*
X128977082Y-48113070D01*
X128992888Y-48108994D01*
X129024360Y-48105000D01*
X129375641Y-48105000D01*
X129407113Y-48108994D01*
X129435626Y-48116348D01*
X129446338Y-48119112D01*
X129487953Y-48126183D01*
X129539128Y-48130500D01*
X129539139Y-48130500D01*
X129582689Y-48130500D01*
X129582708Y-48130500D01*
X129595433Y-48130235D01*
X129605915Y-48129798D01*
X129703347Y-48109512D01*
X129769568Y-48083912D01*
X129845387Y-48041333D01*
X129875894Y-48017923D01*
X129904372Y-48001482D01*
X129927244Y-47992008D01*
X129959008Y-47983497D01*
X129983554Y-47980266D01*
X130016442Y-47980266D01*
X130029928Y-47982041D01*
G37*
%TD.AperFunction*%
%TD*%
M02*
