M48
; DRILL file {KiCad 8.0.5} date 2025-03-17T23:34:24-0400
; FORMAT={-:-/ absolute / inch / decimal}
; #@! TF.CreationDate,2025-03-17T23:34:24-04:00
; #@! TF.GenerationSoftware,Kicad,Pcbnew,8.0.5
; #@! TF.FileFunction,NonPlated,1,4,NPTH
FMAT,2
INCH
; #@! TA.AperFunction,NonPlated,NPTH,ComponentDrill
T1C0.0256
; #@! TA.AperFunction,NonPlated,NPTH,ComponentDrill
T2C0.0354
; #@! TA.AperFunction,NonPlated,NPTH,ComponentDrill
T3C0.0787
; #@! TA.AperFunction,NonPlated,NPTH,ComponentDrill
T4C0.0902
%
G90
G05
T1
X5.4366Y-4.6654
X5.6642Y-4.6654
T2
X4.7598Y-3.3123
X4.7598Y-4.2218
X6.3425Y-3.3123
X6.3425Y-4.2218
T3
X2.7165Y-4.6063
X2.7953Y-2.6181
X2.7953Y-2.9724
X3.3858Y-2.0472
X3.3858Y-2.4016
X3.3858Y-3.2087
X3.3858Y-3.563
X3.8583Y-1.9685
X3.9764Y-2.6181
X3.9764Y-2.9724
X5.5512Y-2.7087
X5.5512Y-3.063
X7.126Y-2.6181
X7.126Y-2.9724
X7.2441Y-1.9685
X7.7165Y-2.0472
X7.7165Y-2.4016
X7.7165Y-3.2087
X7.7165Y-3.563
X8.3071Y-2.6181
X8.3071Y-2.9724
X8.3858Y-4.6063
T4
X5.0303Y-2.3175
X5.5614Y-3.1974
X6.0921Y-2.3175
M30
