%TF.GenerationSoftware,KiCad,Pcbnew,8.0.5*%
%TF.CreationDate,2025-03-17T19:25:21-04:00*%
%TF.ProjectId,Remote_Controller,52656d6f-7465-45f4-936f-6e74726f6c6c,rev?*%
%TF.SameCoordinates,Original*%
%TF.FileFunction,Legend,Bot*%
%TF.FilePolarity,Positive*%
%FSLAX46Y46*%
G04 Gerber Fmt 4.6, Leading zero omitted, Abs format (unit mm)*
G04 Created by KiCad (PCBNEW 8.0.5) date 2025-03-17 19:25:21*
%MOMM*%
%LPD*%
G01*
G04 APERTURE LIST*
G04 Aperture macros list*
%AMRoundRect*
0 Rectangle with rounded corners*
0 $1 Rounding radius*
0 $2 $3 $4 $5 $6 $7 $8 $9 X,Y pos of 4 corners*
0 Add a 4 corners polygon primitive as box body*
4,1,4,$2,$3,$4,$5,$6,$7,$8,$9,$2,$3,0*
0 Add four circle primitives for the rounded corners*
1,1,$1+$1,$2,$3*
1,1,$1+$1,$4,$5*
1,1,$1+$1,$6,$7*
1,1,$1+$1,$8,$9*
0 Add four rect primitives between the rounded corners*
20,1,$1+$1,$2,$3,$4,$5,0*
20,1,$1+$1,$4,$5,$6,$7,0*
20,1,$1+$1,$6,$7,$8,$9,0*
20,1,$1+$1,$8,$9,$2,$3,0*%
G04 Aperture macros list end*
%ADD10C,0.150000*%
%ADD11C,0.120000*%
%ADD12C,2.000000*%
%ADD13C,1.982000*%
%ADD14C,2.490000*%
%ADD15C,0.900000*%
%ADD16R,1.100000X1.300000*%
%ADD17O,1.100000X1.300000*%
%ADD18O,2.700000X1.500000*%
%ADD19C,0.650000*%
%ADD20O,1.000000X2.100000*%
%ADD21O,1.000000X1.800000*%
%ADD22RoundRect,0.140000X-0.140000X-0.170000X0.140000X-0.170000X0.140000X0.170000X-0.140000X0.170000X0*%
%ADD23RoundRect,0.050000X0.150000X0.300000X-0.150000X0.300000X-0.150000X-0.300000X0.150000X-0.300000X0*%
%ADD24RoundRect,0.250000X-0.325000X-0.650000X0.325000X-0.650000X0.325000X0.650000X-0.325000X0.650000X0*%
%ADD25RoundRect,0.135000X-0.135000X-0.185000X0.135000X-0.185000X0.135000X0.185000X-0.135000X0.185000X0*%
%ADD26RoundRect,0.150000X0.825000X0.150000X-0.825000X0.150000X-0.825000X-0.150000X0.825000X-0.150000X0*%
%ADD27RoundRect,0.150000X0.587500X0.150000X-0.587500X0.150000X-0.587500X-0.150000X0.587500X-0.150000X0*%
%ADD28C,2.300000*%
%ADD29R,2.410000X4.020000*%
%ADD30O,2.410000X4.020000*%
%ADD31R,2.413000X3.429000*%
%ADD32RoundRect,0.250000X-0.650000X0.325000X-0.650000X-0.325000X0.650000X-0.325000X0.650000X0.325000X0*%
%ADD33RoundRect,0.250000X0.250000X0.475000X-0.250000X0.475000X-0.250000X-0.475000X0.250000X-0.475000X0*%
%ADD34RoundRect,0.140000X0.140000X0.170000X-0.140000X0.170000X-0.140000X-0.170000X0.140000X-0.170000X0*%
%ADD35RoundRect,0.140000X-0.170000X0.140000X-0.170000X-0.140000X0.170000X-0.140000X0.170000X0.140000X0*%
%ADD36RoundRect,0.150000X0.150000X-0.587500X0.150000X0.587500X-0.150000X0.587500X-0.150000X-0.587500X0*%
%ADD37RoundRect,0.200000X-0.275000X0.200000X-0.275000X-0.200000X0.275000X-0.200000X0.275000X0.200000X0*%
%ADD38RoundRect,0.135000X0.185000X-0.135000X0.185000X0.135000X-0.185000X0.135000X-0.185000X-0.135000X0*%
%ADD39RoundRect,0.150000X0.512500X0.150000X-0.512500X0.150000X-0.512500X-0.150000X0.512500X-0.150000X0*%
%ADD40RoundRect,0.150000X-0.512500X-0.150000X0.512500X-0.150000X0.512500X0.150000X-0.512500X0.150000X0*%
G04 APERTURE END LIST*
D10*
X120178683Y-76558866D02*
X119416779Y-76558866D01*
X119797731Y-76939819D02*
X119797731Y-76177914D01*
X120178683Y-63678866D02*
X119416779Y-63678866D01*
D11*
%TO.C,C101*%
X85668836Y-62420000D02*
X85453164Y-62420000D01*
X85668836Y-63140000D02*
X85453164Y-63140000D01*
%TO.C,C110*%
X131427836Y-103540000D02*
X131212164Y-103540000D01*
X131427836Y-104260000D02*
X131212164Y-104260000D01*
%TO.C,D101*%
X110250000Y-68990000D02*
X111560000Y-68990000D01*
X110250000Y-70210000D02*
X111560000Y-70210000D01*
X111560000Y-70210000D02*
X111560000Y-68990000D01*
%TO.C,C104*%
X82897252Y-70570000D02*
X81474748Y-70570000D01*
X82897252Y-72390000D02*
X81474748Y-72390000D01*
%TO.C,R102*%
X105478641Y-57220000D02*
X105171359Y-57220000D01*
X105478641Y-57980000D02*
X105171359Y-57980000D01*
%TO.C,C105*%
X82897252Y-67970000D02*
X81474748Y-67970000D01*
X82897252Y-69790000D02*
X81474748Y-69790000D01*
%TO.C,Q101*%
X103050000Y-59240000D02*
X105000000Y-59240000D01*
X103050000Y-64360000D02*
X105000000Y-64360000D01*
X106950000Y-59240000D02*
X105000000Y-59240000D01*
X106950000Y-64360000D02*
X105000000Y-64360000D01*
X107700000Y-59335000D02*
X107460000Y-59005000D01*
X107940000Y-59005000D01*
X107700000Y-59335000D01*
G36*
X107700000Y-59335000D02*
G01*
X107460000Y-59005000D01*
X107940000Y-59005000D01*
X107700000Y-59335000D01*
G37*
%TO.C,Q102*%
X93650000Y-61315000D02*
X94300000Y-61315000D01*
X93650000Y-64435000D02*
X94300000Y-64435000D01*
X94950000Y-61315000D02*
X94300000Y-61315000D01*
X94950000Y-64435000D02*
X94300000Y-64435000D01*
X95462500Y-61365000D02*
X95222500Y-61035000D01*
X95702500Y-61035000D01*
X95462500Y-61365000D01*
G36*
X95462500Y-61365000D02*
G01*
X95222500Y-61035000D01*
X95702500Y-61035000D01*
X95462500Y-61365000D01*
G37*
%TO.C,C109*%
X131887836Y-98340000D02*
X131672164Y-98340000D01*
X131887836Y-99060000D02*
X131672164Y-99060000D01*
%TO.C,BT101*%
X113080000Y-79035000D02*
X113080000Y-82035000D01*
X113420000Y-57105000D02*
X119020000Y-57105000D01*
X113420000Y-61785000D02*
X113420000Y-57105000D01*
X113420000Y-65485000D02*
X113420000Y-73835000D01*
X113420000Y-79135000D02*
X113420000Y-81695000D01*
X113420000Y-81695000D02*
X119020000Y-81695000D01*
X116080000Y-82035000D02*
X113080000Y-82035000D01*
X119020000Y-54205000D02*
X168580000Y-54205000D01*
X119020000Y-57105000D02*
X119020000Y-54205000D01*
X119020000Y-81695000D02*
X119020000Y-85795000D01*
X119020000Y-85795000D02*
X168580000Y-85795000D01*
X168580000Y-85795000D02*
X168580000Y-54205000D01*
%TO.C,L101*%
X76886000Y-60505000D02*
X83436000Y-60505000D01*
X76886000Y-61765500D02*
X76886000Y-60505000D01*
X76886000Y-65794500D02*
X76886000Y-67055000D01*
X76886000Y-67055000D02*
X83436000Y-67055000D01*
X83436000Y-60505000D02*
X83436000Y-61765500D01*
X83436000Y-67055000D02*
X83436000Y-65794500D01*
%TO.C,C107*%
X97715000Y-68561252D02*
X97715000Y-67138748D01*
X99535000Y-68561252D02*
X99535000Y-67138748D01*
%TO.C,C103*%
X86324748Y-67945000D02*
X86847252Y-67945000D01*
X86324748Y-69415000D02*
X86847252Y-69415000D01*
%TO.C,C106*%
X92442164Y-65015000D02*
X92657836Y-65015000D01*
X92442164Y-65735000D02*
X92657836Y-65735000D01*
%TO.C,C102*%
X111440000Y-64907836D02*
X111440000Y-64692164D01*
X112160000Y-64907836D02*
X112160000Y-64692164D01*
%TO.C,U103*%
X129755000Y-100670000D02*
X129755000Y-101320000D01*
X129755000Y-101970000D02*
X129755000Y-101320000D01*
X132875000Y-100670000D02*
X132875000Y-101320000D01*
X132875000Y-101970000D02*
X132875000Y-101320000D01*
X133155000Y-102722500D02*
X132825000Y-102482500D01*
X133155000Y-102242500D01*
X133155000Y-102722500D01*
G36*
X133155000Y-102722500D02*
G01*
X132825000Y-102482500D01*
X133155000Y-102242500D01*
X133155000Y-102722500D01*
G37*
%TO.C,R103*%
X111277500Y-62237258D02*
X111277500Y-61762742D01*
X112322500Y-62237258D02*
X112322500Y-61762742D01*
%TO.C,C108*%
X93292164Y-69865000D02*
X93507836Y-69865000D01*
X93292164Y-70585000D02*
X93507836Y-70585000D01*
%TO.C,R101*%
X109520000Y-61256359D02*
X109520000Y-61563641D01*
X110280000Y-61256359D02*
X110280000Y-61563641D01*
%TO.C,U101*%
X86123500Y-63970000D02*
X86923500Y-63970000D01*
X86123500Y-67090000D02*
X86923500Y-67090000D01*
X87723500Y-63970000D02*
X86923500Y-63970000D01*
X87723500Y-67090000D02*
X86923500Y-67090000D01*
X88223500Y-64020000D02*
X87983500Y-63690000D01*
X88463500Y-63690000D01*
X88223500Y-64020000D01*
G36*
X88223500Y-64020000D02*
G01*
X87983500Y-63690000D01*
X88463500Y-63690000D01*
X88223500Y-64020000D01*
G37*
%TO.C,U102*%
X92450000Y-66290000D02*
X93250000Y-66290000D01*
X92450000Y-69410000D02*
X93250000Y-69410000D01*
X94050000Y-66290000D02*
X93250000Y-66290000D01*
X94050000Y-69410000D02*
X93250000Y-69410000D01*
X92190000Y-69690000D02*
X91710000Y-69690000D01*
X91950000Y-69360000D01*
X92190000Y-69690000D01*
G36*
X92190000Y-69690000D02*
G01*
X91710000Y-69690000D01*
X91950000Y-69360000D01*
X92190000Y-69690000D01*
G37*
%TD*%
%LPC*%
D12*
%TO.C,SW304*%
X196000000Y-81500000D03*
X196000000Y-90500000D03*
%TD*%
%TO.C,SW307*%
X101000000Y-66500000D03*
X101000000Y-75500000D03*
%TD*%
%TO.C,SW303*%
X211000000Y-66500000D03*
X211000000Y-75500000D03*
%TD*%
D13*
%TO.C,JS302*%
X177825000Y-96300000D03*
X184175000Y-96300000D03*
X177825000Y-101380000D03*
X184175000Y-101380000D03*
X178460000Y-119160000D03*
X181000000Y-119160000D03*
X183540000Y-119160000D03*
D14*
X173380000Y-102332500D03*
X173380000Y-115667500D03*
X188620000Y-115667500D03*
X188620000Y-102332500D03*
D13*
X170840000Y-106460000D03*
X170840000Y-109000000D03*
X170840000Y-111540000D03*
%TD*%
D15*
%TO.C,U301*%
X120900000Y-84132500D03*
X120900000Y-107232500D03*
X161100000Y-84132500D03*
X161100000Y-107232500D03*
D16*
X129000000Y-107082500D03*
D17*
X130500000Y-107082500D03*
X132000000Y-107082500D03*
X133500000Y-107082500D03*
X135000000Y-107082500D03*
X136500000Y-107082500D03*
X138000000Y-107082500D03*
X139500000Y-107082500D03*
X141000000Y-107082500D03*
X142500000Y-107082500D03*
X144000000Y-107082500D03*
X145500000Y-107082500D03*
X147000000Y-107082500D03*
X148500000Y-107082500D03*
X150000000Y-107082500D03*
X151500000Y-107082500D03*
X153000000Y-107082500D03*
D18*
X123700000Y-105282500D03*
X158300000Y-105282500D03*
%TD*%
D19*
%TO.C,J201*%
X138090000Y-118500000D03*
X143870000Y-118500000D03*
D20*
X136660000Y-118000000D03*
D21*
X136660000Y-122180000D03*
D20*
X145300000Y-118000000D03*
D21*
X145300000Y-122180000D03*
%TD*%
D12*
%TO.C,SW101*%
X141000000Y-77800000D03*
X141000000Y-68800000D03*
%TD*%
D13*
%TO.C,JS301*%
X97825000Y-96300000D03*
X104175000Y-96300000D03*
X97825000Y-101380000D03*
X104175000Y-101380000D03*
X98460000Y-119160000D03*
X101000000Y-119160000D03*
X103540000Y-119160000D03*
D14*
X93380000Y-102332500D03*
X93380000Y-115667500D03*
X108620000Y-115667500D03*
X108620000Y-102332500D03*
D13*
X90840000Y-106460000D03*
X90840000Y-109000000D03*
X90840000Y-111540000D03*
%TD*%
D12*
%TO.C,SW306*%
X71000000Y-66500000D03*
X71000000Y-75500000D03*
%TD*%
%TO.C,SW302*%
X181000000Y-66500000D03*
X181000000Y-75500000D03*
%TD*%
%TO.C,SW305*%
X86000000Y-52000000D03*
X86000000Y-61000000D03*
%TD*%
%TO.C,SW301*%
X196000000Y-52000000D03*
X196000000Y-61000000D03*
%TD*%
%TO.C,SW308*%
X86000000Y-81500000D03*
X86000000Y-90500000D03*
%TD*%
D22*
%TO.C,C101*%
X85081000Y-62780000D03*
X86041000Y-62780000D03*
%TD*%
%TO.C,C110*%
X130840000Y-103900000D03*
X131800000Y-103900000D03*
%TD*%
D23*
%TO.C,D101*%
X111100000Y-69600000D03*
X110400000Y-69600000D03*
%TD*%
D24*
%TO.C,C104*%
X80711000Y-71480000D03*
X83661000Y-71480000D03*
%TD*%
D25*
%TO.C,R102*%
X104815000Y-57600000D03*
X105835000Y-57600000D03*
%TD*%
D24*
%TO.C,C105*%
X80711000Y-68880000D03*
X83661000Y-68880000D03*
%TD*%
D26*
%TO.C,Q101*%
X107475000Y-59895000D03*
X107475000Y-61165000D03*
X107475000Y-62435000D03*
X107475000Y-63705000D03*
X102525000Y-63705000D03*
X102525000Y-62435000D03*
X102525000Y-61165000D03*
X102525000Y-59895000D03*
%TD*%
D27*
%TO.C,Q102*%
X95237500Y-61925000D03*
X95237500Y-63825000D03*
X93362500Y-62875000D03*
%TD*%
D22*
%TO.C,C109*%
X131300000Y-98700000D03*
X132260000Y-98700000D03*
%TD*%
D28*
%TO.C,BT101*%
X127770000Y-58865000D03*
X141260000Y-81215000D03*
X154740000Y-58865000D03*
D29*
X115480000Y-76485000D03*
D30*
X115480000Y-63605000D03*
%TD*%
D31*
%TO.C,L101*%
X83082000Y-63780000D03*
X77240000Y-63780000D03*
%TD*%
D32*
%TO.C,C107*%
X98625000Y-66375000D03*
X98625000Y-69325000D03*
%TD*%
D33*
%TO.C,C103*%
X87536000Y-68680000D03*
X85636000Y-68680000D03*
%TD*%
D34*
%TO.C,C106*%
X93030000Y-65375000D03*
X92070000Y-65375000D03*
%TD*%
D35*
%TO.C,C102*%
X111800000Y-64320000D03*
X111800000Y-65280000D03*
%TD*%
D36*
%TO.C,U103*%
X132265000Y-102257500D03*
X130365000Y-102257500D03*
X131315000Y-100382500D03*
%TD*%
D37*
%TO.C,R103*%
X111800000Y-61175000D03*
X111800000Y-62825000D03*
%TD*%
D34*
%TO.C,C108*%
X93880000Y-70225000D03*
X92920000Y-70225000D03*
%TD*%
D38*
%TO.C,R101*%
X109900000Y-61920000D03*
X109900000Y-60900000D03*
%TD*%
D39*
%TO.C,U101*%
X88061000Y-64580000D03*
X88061000Y-65530000D03*
X88061000Y-66480000D03*
X85786000Y-66480000D03*
X85786000Y-65530000D03*
X85786000Y-64580000D03*
%TD*%
D40*
%TO.C,U102*%
X92112500Y-68800000D03*
X92112500Y-67850000D03*
X92112500Y-66900000D03*
X94387500Y-66900000D03*
X94387500Y-67850000D03*
X94387500Y-68800000D03*
%TD*%
%LPD*%
M02*
