M48
; DRILL file {KiCad 8.0.5} date 2025-03-17T19:25:21-0400
; FORMAT={-:-/ absolute / inch / decimal}
; #@! TF.CreationDate,2025-03-17T19:25:21-04:00
; #@! TF.GenerationSoftware,Kicad,Pcbnew,8.0.5
; #@! TF.FileFunction,Plated,1,4,PTH
FMAT,2
INCH
; #@! TA.AperFunction,Plated,PTH,ViaDrill
T1C0.0118
; #@! TA.AperFunction,Plated,PTH,ComponentDrill
T2C0.0118
; #@! TA.AperFunction,Plated,PTH,ViaDrill
T3C0.0157
; #@! TA.AperFunction,Plated,PTH,ComponentDrill
T4C0.0236
; #@! TA.AperFunction,Plated,PTH,ComponentDrill
T5C0.0260
; #@! TA.AperFunction,Plated,PTH,ComponentDrill
T6C0.0276
; #@! TA.AperFunction,Plated,PTH,ComponentDrill
T7C0.0315
; #@! TA.AperFunction,Plated,PTH,ComponentDrill
T8C0.0350
; #@! TA.AperFunction,Plated,PTH,ComponentDrill
T9C0.0354
; #@! TA.AperFunction,Plated,PTH,ComponentDrill
T10C0.0550
%
G90
G05
T1
X3.0344Y-2.3228
X3.0364Y-3.4843
X3.248Y-2.8967
X3.5453Y-2.7402
X3.5659Y-2.624
X3.5689Y-2.2579
X3.5827Y-2.9114
X3.5876Y-2.5738
X3.6014Y-2.2293
X3.7677Y-2.6713
X3.7795Y-2.125
X3.7795Y-2.3396
X3.7795Y-3.2776
X3.7795Y-3.4852
X3.7953Y-2.7648
X3.811Y-2.438
X3.8248Y-2.314
X3.8356Y-2.3642
X3.877Y-2.5463
X4.1088Y-3.2377
X4.2579Y-2.9587
X4.5512Y-2.1358
X4.5925Y-2.1348
X4.628Y-2.5384
X4.6663Y-2.5217
X4.6663Y-2.6909
X4.688Y-4.6348
X4.7047Y-2.6909
X4.7756Y-2.1447
X4.7756Y-2.4124
X4.8533Y-2.2411
X4.8533Y-2.4813
X4.8583Y-2.0571
X4.8593Y-2.5207
X4.8701Y-3.0591
X4.8848Y-4.5925
X4.9075Y-4.4941
X4.9094Y-2.0571
X4.9114Y-3.0522
X4.9203Y-2.1772
X4.9262Y-2.5217
X4.9272Y-2.4813
X4.9518Y-2.2264
X4.9724Y-2.0325
X4.9892Y-2.123
X5.0049Y-4.502
X5.0059Y-2.0541
X5.0098Y-1.8327
X5.0276Y-1.9764
X5.0364Y-2.0689
X5.0472Y-1.8327
X5.0748Y-2.0581
X5.0778Y-1.8356
X5.0787Y-1.9409
X5.0837Y-4.0305
X5.0837Y-4.0699
X5.0984Y-3.8858
X5.1142Y-1.8376
X5.1181Y-1.8976
X5.1181Y-1.9252
X5.1191Y-3.9213
X5.124Y-2.7874
X5.1329Y-2.7431
X5.1358Y-3.8858
X5.1378Y-4.3553
X5.1535Y-3.0315
X5.1654Y-2.9843
X5.1969Y-4.3553
X5.2461Y-3.8848
X5.2559Y-4.3553
X5.2598Y-4.062
X5.2628Y-4.0157
X5.2904Y-2.6181
X5.315Y-4.3553
X5.5118Y-4.5758
X5.5955Y-4.5837
X5.6732Y-3.9803
X5.8819Y-3.9764
X5.8839Y-2.6319
X5.8996Y-4.124
X5.9026Y-3.815
X5.9213Y-2.6457
X5.9567Y-4.0512
X5.9626Y-4.5325
X5.9843Y-2.1506
X6.0148Y-2.2283
X6.0226Y-2.1417
X6.0236Y-4.1191
X6.0472Y-2.2018
X6.0541Y-2.6722
X6.0876Y-2.6476
X6.1496Y-2.721
X6.1496Y-3.0546
X6.2077Y-4.2707
X6.2096Y-4.7589
X6.2293Y-4.8228
X6.2539Y-2.1417
X6.2628Y-2.1043
X6.2953Y-2.2018
X6.3278Y-2.2283
X6.4173Y-4.6142
X6.4213Y-4.1772
X6.4449Y-4.2776
X6.4449Y-4.3829
X6.4459Y-4.4183
X6.4469Y-4.4587
X6.4478Y-4.5728
X6.4547Y-2.2972
X6.4636Y-4.6299
X6.4892Y-2.3199
X6.5207Y-3.751
X6.5305Y-3.7106
X7.3612Y-2.3228
X7.3622Y-3.4843
X7.5187Y-2.7008
X7.5197Y-2.9281
X7.9134Y-2.6978
X7.9134Y-2.9124
X8.1102Y-2.1122
X8.1102Y-2.3228
X8.1102Y-3.2648
X8.1102Y-3.4843
T2
X5.4008Y-2.1339
X5.4008Y-2.189
X5.4283Y-2.1063
X5.4283Y-2.1614
X5.4283Y-2.2165
X5.4549Y-2.1339
X5.4549Y-2.189
X5.4835Y-2.1063
X5.4835Y-2.1614
X5.4835Y-2.2165
X5.511Y-2.1339
X5.511Y-2.189
T3
X2.5591Y-2.9528
X2.5591Y-3.1496
X2.5591Y-3.3465
X2.5591Y-3.5433
X2.5591Y-3.7402
X2.5591Y-3.937
X2.5591Y-4.1339
X2.5591Y-4.3307
X2.5591Y-4.5276
X2.7559Y-2.1654
X2.7559Y-3.1496
X2.7559Y-3.3465
X2.7559Y-3.5433
X2.7559Y-3.7402
X2.7559Y-3.937
X2.7559Y-4.1339
X2.7559Y-4.3307
X2.7559Y-4.5276
X2.7559Y-4.7244
X2.9528Y-1.9685
X2.9528Y-2.1654
X2.9528Y-2.3622
X2.9528Y-3.1496
X2.9528Y-3.3465
X2.9528Y-3.5433
X2.9528Y-3.7402
X2.9528Y-3.937
X2.9528Y-4.1339
X2.9528Y-4.3307
X2.9528Y-4.5276
X2.9528Y-4.7244
X2.9596Y-2.4606
X2.9596Y-2.5669
X2.9606Y-2.5069
X3.0472Y-2.8169
X3.0482Y-2.75
X3.122Y-2.75
X3.122Y-2.8159
X3.1417Y-2.6565
X3.1496Y-1.9685
X3.1496Y-3.1496
X3.1496Y-3.3465
X3.1496Y-3.5433
X3.1496Y-3.7402
X3.1496Y-3.937
X3.1496Y-4.1339
X3.1496Y-4.3307
X3.1496Y-4.5276
X3.1496Y-4.7244
X3.3465Y-1.9685
X3.3465Y-2.1654
X3.3465Y-3.1496
X3.3465Y-3.3465
X3.3465Y-3.7402
X3.3465Y-3.937
X3.3465Y-4.1339
X3.3465Y-4.3307
X3.3465Y-4.5276
X3.3465Y-4.7244
X3.3661Y-2.7618
X3.3661Y-2.8012
X3.3661Y-2.8435
X3.4656Y-2.4931
X3.5433Y-1.9685
X3.5433Y-2.1654
X3.5433Y-2.3622
X3.5433Y-3.3465
X3.5433Y-3.5433
X3.5433Y-3.7402
X3.5433Y-3.937
X3.5433Y-4.5276
X3.5433Y-4.7244
X3.5669Y-2.6811
X3.7402Y-1.9685
X3.7402Y-3.5433
X3.7402Y-3.7402
X3.7402Y-3.937
X3.7402Y-4.1339
X3.7402Y-4.3307
X3.7402Y-4.7244
X3.937Y-1.9685
X3.937Y-3.3465
X3.937Y-3.5433
X3.937Y-3.7402
X3.937Y-3.937
X3.937Y-4.1339
X3.937Y-4.3307
X3.937Y-4.5276
X3.9528Y-2.7293
X3.9665Y-2.4085
X3.9675Y-2.3583
X4.1339Y-1.9685
X4.1339Y-2.3622
X4.1339Y-3.3465
X4.1339Y-3.5433
X4.1339Y-4.1339
X4.1339Y-4.3307
X4.1339Y-4.5276
X4.2972Y-2.5079
X4.3307Y-1.9685
X4.3307Y-3.3465
X4.3307Y-3.5433
X4.3307Y-3.7402
X4.3307Y-3.937
X4.3307Y-4.1339
X4.3307Y-4.3307
X4.3307Y-4.7244
X4.3366Y-2.3553
X4.4016Y-2.6073
X4.4124Y-2.7421
X4.5276Y-1.9685
X4.5276Y-2.3622
X4.5276Y-3.3465
X4.5276Y-3.5433
X4.6752Y-4.4154
X4.685Y-4.5915
X4.7244Y-2.7559
X4.7244Y-2.9528
X4.7244Y-3.1496
X4.7244Y-3.5433
X4.7244Y-3.7402
X4.7274Y-4.687
X4.9213Y-3.3465
X4.9213Y-3.5433
X4.9213Y-3.7402
X4.9469Y-4.2835
X5.1152Y-4.0935
X5.1181Y-3.5433
X5.1181Y-3.7402
X5.1811Y-4.6368
X5.2352Y-4.0925
X5.315Y-3.3465
X5.315Y-3.7402
X5.4144Y-4.563
X5.5118Y-3.5433
X5.5502Y-4.5335
X5.6939Y-4.565
X5.7087Y-3.1496
X5.7087Y-3.3465
X5.7087Y-3.7402
X5.9134Y-4.6358
X5.94Y-1.8573
X6.1024Y-2.5591
X6.2992Y-2.5591
X6.2992Y-2.7559
X6.2992Y-2.9528
X6.2992Y-3.1496
X6.2992Y-3.3465
X6.2992Y-3.5433
X6.2992Y-3.7402
X6.2992Y-3.937
X6.6929Y-1.9685
X6.6929Y-2.1654
X6.6929Y-2.3622
X6.6929Y-2.5591
X6.6929Y-2.7559
X6.6929Y-2.9528
X6.6929Y-3.1496
X6.6929Y-3.3465
X6.6929Y-3.5433
X6.6929Y-3.7402
X6.6929Y-3.937
X6.6929Y-4.5276
X6.6929Y-4.7244
X6.8898Y-1.9685
X6.8898Y-2.1654
X6.8898Y-2.3622
X6.8898Y-2.5591
X6.8898Y-2.7559
X6.8898Y-2.9528
X6.8898Y-3.1496
X6.8898Y-3.3465
X6.8898Y-3.5433
X6.8898Y-3.7402
X6.8898Y-3.937
X6.8898Y-4.1339
X6.8898Y-4.3307
X6.8898Y-4.7244
X7.0866Y-1.9685
X7.0866Y-2.1654
X7.0866Y-2.3622
X7.0866Y-2.5591
X7.0866Y-3.1496
X7.0866Y-3.3465
X7.0866Y-3.5433
X7.0866Y-3.7402
X7.0866Y-3.937
X7.0866Y-4.1339
X7.0866Y-4.3307
X7.0866Y-4.5276
X7.2835Y-1.9685
X7.2835Y-2.1654
X7.2835Y-2.3622
X7.2835Y-2.5591
X7.2835Y-2.7559
X7.2835Y-2.9528
X7.2835Y-3.1496
X7.2835Y-3.3465
X7.2835Y-3.5433
X7.2835Y-4.1339
X7.2835Y-4.3307
X7.2835Y-4.5276
X7.4803Y-1.9685
X7.4803Y-2.5591
X7.4803Y-3.1496
X7.4803Y-3.3465
X7.4803Y-3.5433
X7.4803Y-3.7402
X7.4803Y-3.937
X7.4803Y-4.1339
X7.4803Y-4.3307
X7.4803Y-4.7244
X7.6772Y-1.9685
X7.6772Y-2.1654
X7.6772Y-2.5591
X7.6772Y-2.7559
X7.6772Y-2.9528
X7.6772Y-3.1496
X7.6772Y-3.3465
X7.6772Y-3.7402
X7.6772Y-3.937
X7.6772Y-4.1339
X7.6772Y-4.3307
X7.6772Y-4.5276
X7.6772Y-4.7244
X7.874Y-1.9685
X7.874Y-2.1654
X7.874Y-2.3622
X7.874Y-2.5591
X7.874Y-2.9528
X7.874Y-3.1496
X7.874Y-3.3465
X7.874Y-3.5433
X7.874Y-3.7402
X7.874Y-3.937
X7.874Y-4.1339
X7.874Y-4.3307
X7.874Y-4.5276
X7.874Y-4.7244
X8.0709Y-2.3622
X8.0709Y-2.5591
X8.0709Y-2.7559
X8.0709Y-2.9528
X8.0709Y-3.1496
X8.0709Y-3.5433
X8.0709Y-3.7402
X8.0709Y-3.937
X8.0709Y-4.1339
X8.0709Y-4.3307
X8.0709Y-4.5276
X8.0709Y-4.7244
X8.2677Y-2.1654
X8.2677Y-2.3622
X8.2677Y-2.5591
X8.2677Y-2.7559
X8.2677Y-3.1496
X8.2677Y-3.3465
X8.2677Y-3.5433
X8.2677Y-3.7402
X8.2677Y-3.937
X8.2677Y-4.1339
X8.2677Y-4.3307
X8.2677Y-4.5276
X8.2677Y-4.7244
X8.4646Y-2.3622
X8.4646Y-2.5591
X8.4646Y-2.7559
X8.4646Y-2.9528
X8.4646Y-3.1496
X8.4646Y-3.3465
X8.4646Y-3.5433
X8.4646Y-3.7402
X8.4646Y-3.937
X8.4646Y-4.1339
X8.4646Y-4.3307
X8.4646Y-4.5276
X8.4646Y-4.7244
T6
X5.0787Y-4.2158
X5.1378Y-4.2158
X5.1969Y-4.2158
X5.2559Y-4.2158
X5.315Y-4.2158
X5.374Y-4.2158
X5.4331Y-4.2158
X5.4921Y-4.2158
X5.5512Y-4.2158
X5.6102Y-4.2158
X5.6693Y-4.2158
X5.7283Y-4.2158
X5.7874Y-4.2158
X5.8465Y-4.2158
X5.9055Y-4.2158
X5.9646Y-4.2158
X6.0236Y-4.2158
T8
X3.5764Y-4.1913
X3.5764Y-4.2913
X3.5764Y-4.3913
X3.8764Y-4.6913
X3.9764Y-4.6913
X4.0764Y-4.6913
X6.726Y-4.1913
X6.726Y-4.2913
X6.726Y-4.3913
X7.026Y-4.6913
X7.126Y-4.6913
X7.226Y-4.6913
T9
X3.8514Y-3.7913
X3.8514Y-3.9913
X4.1014Y-3.7913
X4.1014Y-3.9913
X7.001Y-3.7913
X7.001Y-3.9913
X7.251Y-3.7913
X7.251Y-3.9913
T10
X3.6764Y-4.0288
X3.6764Y-4.5538
X4.2764Y-4.0288
X4.2764Y-4.5538
X6.826Y-4.0288
X6.826Y-4.5538
X7.426Y-4.0288
X7.426Y-4.5538
T4
G00X5.3803Y-4.624
M15
G01X5.3803Y-4.6673
M16
G05
G00X5.3803Y-4.7945
M15
G01X5.3803Y-4.826
M16
G05
G00X5.7205Y-4.624
M15
G01X5.7205Y-4.6673
M16
G05
G00X5.7205Y-4.7945
M15
G01X5.7205Y-4.826
M16
G05
T5
G00X4.5465Y-2.4724
M15
G01X4.5465Y-2.5358
M16
G05
G00X4.5465Y-2.9795
M15
G01X4.5465Y-3.0429
M16
G05
T7
G00X4.8465Y-4.145
M15
G01X4.8937Y-4.145
M16
G05
G00X6.2087Y-4.145
M15
G01X6.2559Y-4.145
M16
G05
M30
