%TF.GenerationSoftware,KiCad,Pcbnew,8.0.5*%
%TF.CreationDate,2025-03-17T23:34:23-04:00*%
%TF.ProjectId,Remote_Controller,52656d6f-7465-45f4-936f-6e74726f6c6c,rev?*%
%TF.SameCoordinates,Original*%
%TF.FileFunction,Legend,Top*%
%TF.FilePolarity,Positive*%
%FSLAX46Y46*%
G04 Gerber Fmt 4.6, Leading zero omitted, Abs format (unit mm)*
G04 Created by KiCad (PCBNEW 8.0.5) date 2025-03-17 23:34:23*
%MOMM*%
%LPD*%
G01*
G04 APERTURE LIST*
G04 Aperture macros list*
%AMRoundRect*
0 Rectangle with rounded corners*
0 $1 Rounding radius*
0 $2 $3 $4 $5 $6 $7 $8 $9 X,Y pos of 4 corners*
0 Add a 4 corners polygon primitive as box body*
4,1,4,$2,$3,$4,$5,$6,$7,$8,$9,$2,$3,0*
0 Add four circle primitives for the rounded corners*
1,1,$1+$1,$2,$3*
1,1,$1+$1,$4,$5*
1,1,$1+$1,$6,$7*
1,1,$1+$1,$8,$9*
0 Add four rect primitives between the rounded corners*
20,1,$1+$1,$2,$3,$4,$5,0*
20,1,$1+$1,$4,$5,$6,$7,0*
20,1,$1+$1,$6,$7,$8,$9,0*
20,1,$1+$1,$8,$9,$2,$3,0*%
G04 Aperture macros list end*
%ADD10C,0.800000*%
%ADD11C,0.300000*%
%ADD12C,0.375000*%
%ADD13C,0.120000*%
%ADD14C,0.127000*%
%ADD15C,0.200000*%
%ADD16C,2.000000*%
%ADD17RoundRect,0.140000X-0.170000X0.140000X-0.170000X-0.140000X0.170000X-0.140000X0.170000X0.140000X0*%
%ADD18RoundRect,0.140000X0.170000X-0.140000X0.170000X0.140000X-0.170000X0.140000X-0.170000X-0.140000X0*%
%ADD19R,2.000000X1.500000*%
%ADD20RoundRect,0.135000X0.185000X-0.135000X0.185000X0.135000X-0.185000X0.135000X-0.185000X-0.135000X0*%
%ADD21RoundRect,0.140000X0.140000X0.170000X-0.140000X0.170000X-0.140000X-0.170000X0.140000X-0.170000X0*%
%ADD22RoundRect,0.135000X0.135000X0.185000X-0.135000X0.185000X-0.135000X-0.185000X0.135000X-0.185000X0*%
%ADD23RoundRect,0.150000X-0.150000X0.587500X-0.150000X-0.587500X0.150000X-0.587500X0.150000X0.587500X0*%
%ADD24RoundRect,0.225000X0.250000X-0.225000X0.250000X0.225000X-0.250000X0.225000X-0.250000X-0.225000X0*%
%ADD25RoundRect,0.150000X-0.512500X-0.150000X0.512500X-0.150000X0.512500X0.150000X-0.512500X0.150000X0*%
%ADD26RoundRect,0.150000X-0.150000X0.825000X-0.150000X-0.825000X0.150000X-0.825000X0.150000X0.825000X0*%
%ADD27R,1.000000X1.250000*%
%ADD28C,1.982000*%
%ADD29C,2.490000*%
%ADD30RoundRect,0.200000X0.200000X0.275000X-0.200000X0.275000X-0.200000X-0.275000X0.200000X-0.275000X0*%
%ADD31C,0.900000*%
%ADD32R,1.100000X1.300000*%
%ADD33O,1.100000X1.300000*%
%ADD34O,2.700000X1.500000*%
%ADD35RoundRect,0.200000X-0.275000X0.200000X-0.275000X-0.200000X0.275000X-0.200000X0.275000X0.200000X0*%
%ADD36C,0.650000*%
%ADD37RoundRect,0.150000X-0.150000X-0.425000X0.150000X-0.425000X0.150000X0.425000X-0.150000X0.425000X0*%
%ADD38RoundRect,0.075000X-0.075000X-0.500000X0.075000X-0.500000X0.075000X0.500000X-0.075000X0.500000X0*%
%ADD39O,1.000000X2.100000*%
%ADD40O,1.000000X1.800000*%
%ADD41RoundRect,0.150000X0.587500X0.150000X-0.587500X0.150000X-0.587500X-0.150000X0.587500X-0.150000X0*%
%ADD42RoundRect,0.140000X-0.140000X-0.170000X0.140000X-0.170000X0.140000X0.170000X-0.140000X0.170000X0*%
%ADD43RoundRect,0.135000X-0.185000X0.135000X-0.185000X-0.135000X0.185000X-0.135000X0.185000X0.135000X0*%
%ADD44RoundRect,0.250000X0.325000X0.650000X-0.325000X0.650000X-0.325000X-0.650000X0.325000X-0.650000X0*%
%ADD45RoundRect,0.135000X-0.135000X-0.185000X0.135000X-0.185000X0.135000X0.185000X-0.135000X0.185000X0*%
%ADD46R,1.500000X0.900000*%
%ADD47R,0.900000X1.500000*%
%ADD48C,0.600000*%
%ADD49R,3.800000X3.800000*%
%ADD50RoundRect,0.218750X0.256250X-0.218750X0.256250X0.218750X-0.256250X0.218750X-0.256250X-0.218750X0*%
%ADD51RoundRect,0.200000X-0.200000X-0.275000X0.200000X-0.275000X0.200000X0.275000X-0.200000X0.275000X0*%
%ADD52RoundRect,0.150000X0.150000X-0.512500X0.150000X0.512500X-0.150000X0.512500X-0.150000X-0.512500X0*%
%ADD53C,2.300000*%
%ADD54R,2.410000X4.020000*%
%ADD55O,2.410000X4.020000*%
G04 APERTURE END LIST*
D10*
X158264410Y-51529100D02*
X156931076Y-49624338D01*
X155978695Y-51529100D02*
X155978695Y-47529100D01*
X155978695Y-47529100D02*
X157502505Y-47529100D01*
X157502505Y-47529100D02*
X157883457Y-47719576D01*
X157883457Y-47719576D02*
X158073934Y-47910052D01*
X158073934Y-47910052D02*
X158264410Y-48291004D01*
X158264410Y-48291004D02*
X158264410Y-48862433D01*
X158264410Y-48862433D02*
X158073934Y-49243385D01*
X158073934Y-49243385D02*
X157883457Y-49433862D01*
X157883457Y-49433862D02*
X157502505Y-49624338D01*
X157502505Y-49624338D02*
X155978695Y-49624338D01*
X161502505Y-51338624D02*
X161121553Y-51529100D01*
X161121553Y-51529100D02*
X160359648Y-51529100D01*
X160359648Y-51529100D02*
X159978695Y-51338624D01*
X159978695Y-51338624D02*
X159788219Y-50957671D01*
X159788219Y-50957671D02*
X159788219Y-49433862D01*
X159788219Y-49433862D02*
X159978695Y-49052909D01*
X159978695Y-49052909D02*
X160359648Y-48862433D01*
X160359648Y-48862433D02*
X161121553Y-48862433D01*
X161121553Y-48862433D02*
X161502505Y-49052909D01*
X161502505Y-49052909D02*
X161692981Y-49433862D01*
X161692981Y-49433862D02*
X161692981Y-49814814D01*
X161692981Y-49814814D02*
X159788219Y-50195766D01*
X163407266Y-51529100D02*
X163407266Y-48862433D01*
X163407266Y-49243385D02*
X163597743Y-49052909D01*
X163597743Y-49052909D02*
X163978695Y-48862433D01*
X163978695Y-48862433D02*
X164550124Y-48862433D01*
X164550124Y-48862433D02*
X164931076Y-49052909D01*
X164931076Y-49052909D02*
X165121552Y-49433862D01*
X165121552Y-49433862D02*
X165121552Y-51529100D01*
X165121552Y-49433862D02*
X165312028Y-49052909D01*
X165312028Y-49052909D02*
X165692981Y-48862433D01*
X165692981Y-48862433D02*
X166264409Y-48862433D01*
X166264409Y-48862433D02*
X166645362Y-49052909D01*
X166645362Y-49052909D02*
X166835838Y-49433862D01*
X166835838Y-49433862D02*
X166835838Y-51529100D01*
X169312028Y-51529100D02*
X168931076Y-51338624D01*
X168931076Y-51338624D02*
X168740599Y-51148147D01*
X168740599Y-51148147D02*
X168550123Y-50767195D01*
X168550123Y-50767195D02*
X168550123Y-49624338D01*
X168550123Y-49624338D02*
X168740599Y-49243385D01*
X168740599Y-49243385D02*
X168931076Y-49052909D01*
X168931076Y-49052909D02*
X169312028Y-48862433D01*
X169312028Y-48862433D02*
X169883457Y-48862433D01*
X169883457Y-48862433D02*
X170264409Y-49052909D01*
X170264409Y-49052909D02*
X170454885Y-49243385D01*
X170454885Y-49243385D02*
X170645361Y-49624338D01*
X170645361Y-49624338D02*
X170645361Y-50767195D01*
X170645361Y-50767195D02*
X170454885Y-51148147D01*
X170454885Y-51148147D02*
X170264409Y-51338624D01*
X170264409Y-51338624D02*
X169883457Y-51529100D01*
X169883457Y-51529100D02*
X169312028Y-51529100D01*
X171788219Y-48862433D02*
X173312028Y-48862433D01*
X172359647Y-47529100D02*
X172359647Y-50957671D01*
X172359647Y-50957671D02*
X172550124Y-51338624D01*
X172550124Y-51338624D02*
X172931076Y-51529100D01*
X172931076Y-51529100D02*
X173312028Y-51529100D01*
X176169171Y-51338624D02*
X175788219Y-51529100D01*
X175788219Y-51529100D02*
X175026314Y-51529100D01*
X175026314Y-51529100D02*
X174645361Y-51338624D01*
X174645361Y-51338624D02*
X174454885Y-50957671D01*
X174454885Y-50957671D02*
X174454885Y-49433862D01*
X174454885Y-49433862D02*
X174645361Y-49052909D01*
X174645361Y-49052909D02*
X175026314Y-48862433D01*
X175026314Y-48862433D02*
X175788219Y-48862433D01*
X175788219Y-48862433D02*
X176169171Y-49052909D01*
X176169171Y-49052909D02*
X176359647Y-49433862D01*
X176359647Y-49433862D02*
X176359647Y-49814814D01*
X176359647Y-49814814D02*
X174454885Y-50195766D01*
X158264410Y-57587923D02*
X158073934Y-57778400D01*
X158073934Y-57778400D02*
X157502505Y-57968876D01*
X157502505Y-57968876D02*
X157121553Y-57968876D01*
X157121553Y-57968876D02*
X156550124Y-57778400D01*
X156550124Y-57778400D02*
X156169172Y-57397447D01*
X156169172Y-57397447D02*
X155978695Y-57016495D01*
X155978695Y-57016495D02*
X155788219Y-56254590D01*
X155788219Y-56254590D02*
X155788219Y-55683161D01*
X155788219Y-55683161D02*
X155978695Y-54921257D01*
X155978695Y-54921257D02*
X156169172Y-54540304D01*
X156169172Y-54540304D02*
X156550124Y-54159352D01*
X156550124Y-54159352D02*
X157121553Y-53968876D01*
X157121553Y-53968876D02*
X157502505Y-53968876D01*
X157502505Y-53968876D02*
X158073934Y-54159352D01*
X158073934Y-54159352D02*
X158264410Y-54349828D01*
X160550124Y-57968876D02*
X160169172Y-57778400D01*
X160169172Y-57778400D02*
X159978695Y-57587923D01*
X159978695Y-57587923D02*
X159788219Y-57206971D01*
X159788219Y-57206971D02*
X159788219Y-56064114D01*
X159788219Y-56064114D02*
X159978695Y-55683161D01*
X159978695Y-55683161D02*
X160169172Y-55492685D01*
X160169172Y-55492685D02*
X160550124Y-55302209D01*
X160550124Y-55302209D02*
X161121553Y-55302209D01*
X161121553Y-55302209D02*
X161502505Y-55492685D01*
X161502505Y-55492685D02*
X161692981Y-55683161D01*
X161692981Y-55683161D02*
X161883457Y-56064114D01*
X161883457Y-56064114D02*
X161883457Y-57206971D01*
X161883457Y-57206971D02*
X161692981Y-57587923D01*
X161692981Y-57587923D02*
X161502505Y-57778400D01*
X161502505Y-57778400D02*
X161121553Y-57968876D01*
X161121553Y-57968876D02*
X160550124Y-57968876D01*
X163597743Y-55302209D02*
X163597743Y-57968876D01*
X163597743Y-55683161D02*
X163788220Y-55492685D01*
X163788220Y-55492685D02*
X164169172Y-55302209D01*
X164169172Y-55302209D02*
X164740601Y-55302209D01*
X164740601Y-55302209D02*
X165121553Y-55492685D01*
X165121553Y-55492685D02*
X165312029Y-55873638D01*
X165312029Y-55873638D02*
X165312029Y-57968876D01*
X166645363Y-55302209D02*
X168169172Y-55302209D01*
X167216791Y-53968876D02*
X167216791Y-57397447D01*
X167216791Y-57397447D02*
X167407268Y-57778400D01*
X167407268Y-57778400D02*
X167788220Y-57968876D01*
X167788220Y-57968876D02*
X168169172Y-57968876D01*
X169502505Y-57968876D02*
X169502505Y-55302209D01*
X169502505Y-56064114D02*
X169692982Y-55683161D01*
X169692982Y-55683161D02*
X169883458Y-55492685D01*
X169883458Y-55492685D02*
X170264410Y-55302209D01*
X170264410Y-55302209D02*
X170645363Y-55302209D01*
X172550124Y-57968876D02*
X172169172Y-57778400D01*
X172169172Y-57778400D02*
X171978695Y-57587923D01*
X171978695Y-57587923D02*
X171788219Y-57206971D01*
X171788219Y-57206971D02*
X171788219Y-56064114D01*
X171788219Y-56064114D02*
X171978695Y-55683161D01*
X171978695Y-55683161D02*
X172169172Y-55492685D01*
X172169172Y-55492685D02*
X172550124Y-55302209D01*
X172550124Y-55302209D02*
X173121553Y-55302209D01*
X173121553Y-55302209D02*
X173502505Y-55492685D01*
X173502505Y-55492685D02*
X173692981Y-55683161D01*
X173692981Y-55683161D02*
X173883457Y-56064114D01*
X173883457Y-56064114D02*
X173883457Y-57206971D01*
X173883457Y-57206971D02*
X173692981Y-57587923D01*
X173692981Y-57587923D02*
X173502505Y-57778400D01*
X173502505Y-57778400D02*
X173121553Y-57968876D01*
X173121553Y-57968876D02*
X172550124Y-57968876D01*
X176169172Y-57968876D02*
X175788220Y-57778400D01*
X175788220Y-57778400D02*
X175597743Y-57397447D01*
X175597743Y-57397447D02*
X175597743Y-53968876D01*
X178264410Y-57968876D02*
X177883458Y-57778400D01*
X177883458Y-57778400D02*
X177692981Y-57397447D01*
X177692981Y-57397447D02*
X177692981Y-53968876D01*
X181312029Y-57778400D02*
X180931077Y-57968876D01*
X180931077Y-57968876D02*
X180169172Y-57968876D01*
X180169172Y-57968876D02*
X179788219Y-57778400D01*
X179788219Y-57778400D02*
X179597743Y-57397447D01*
X179597743Y-57397447D02*
X179597743Y-55873638D01*
X179597743Y-55873638D02*
X179788219Y-55492685D01*
X179788219Y-55492685D02*
X180169172Y-55302209D01*
X180169172Y-55302209D02*
X180931077Y-55302209D01*
X180931077Y-55302209D02*
X181312029Y-55492685D01*
X181312029Y-55492685D02*
X181502505Y-55873638D01*
X181502505Y-55873638D02*
X181502505Y-56254590D01*
X181502505Y-56254590D02*
X179597743Y-56635542D01*
X183216790Y-57968876D02*
X183216790Y-55302209D01*
X183216790Y-56064114D02*
X183407267Y-55683161D01*
X183407267Y-55683161D02*
X183597743Y-55492685D01*
X183597743Y-55492685D02*
X183978695Y-55302209D01*
X183978695Y-55302209D02*
X184359648Y-55302209D01*
X101288219Y-51278400D02*
X101859648Y-51468876D01*
X101859648Y-51468876D02*
X102812029Y-51468876D01*
X102812029Y-51468876D02*
X103192981Y-51278400D01*
X103192981Y-51278400D02*
X103383457Y-51087923D01*
X103383457Y-51087923D02*
X103573934Y-50706971D01*
X103573934Y-50706971D02*
X103573934Y-50326019D01*
X103573934Y-50326019D02*
X103383457Y-49945066D01*
X103383457Y-49945066D02*
X103192981Y-49754590D01*
X103192981Y-49754590D02*
X102812029Y-49564114D01*
X102812029Y-49564114D02*
X102050124Y-49373638D01*
X102050124Y-49373638D02*
X101669172Y-49183161D01*
X101669172Y-49183161D02*
X101478695Y-48992685D01*
X101478695Y-48992685D02*
X101288219Y-48611733D01*
X101288219Y-48611733D02*
X101288219Y-48230780D01*
X101288219Y-48230780D02*
X101478695Y-47849828D01*
X101478695Y-47849828D02*
X101669172Y-47659352D01*
X101669172Y-47659352D02*
X102050124Y-47468876D01*
X102050124Y-47468876D02*
X103002505Y-47468876D01*
X103002505Y-47468876D02*
X103573934Y-47659352D01*
X107002505Y-48802209D02*
X107002505Y-51468876D01*
X105288219Y-48802209D02*
X105288219Y-50897447D01*
X105288219Y-50897447D02*
X105478696Y-51278400D01*
X105478696Y-51278400D02*
X105859648Y-51468876D01*
X105859648Y-51468876D02*
X106431077Y-51468876D01*
X106431077Y-51468876D02*
X106812029Y-51278400D01*
X106812029Y-51278400D02*
X107002505Y-51087923D01*
X108907267Y-51468876D02*
X108907267Y-48802209D01*
X108907267Y-49564114D02*
X109097744Y-49183161D01*
X109097744Y-49183161D02*
X109288220Y-48992685D01*
X109288220Y-48992685D02*
X109669172Y-48802209D01*
X109669172Y-48802209D02*
X110050125Y-48802209D01*
X112716791Y-49373638D02*
X113288219Y-49564114D01*
X113288219Y-49564114D02*
X113478696Y-49754590D01*
X113478696Y-49754590D02*
X113669172Y-50135542D01*
X113669172Y-50135542D02*
X113669172Y-50706971D01*
X113669172Y-50706971D02*
X113478696Y-51087923D01*
X113478696Y-51087923D02*
X113288219Y-51278400D01*
X113288219Y-51278400D02*
X112907267Y-51468876D01*
X112907267Y-51468876D02*
X111383457Y-51468876D01*
X111383457Y-51468876D02*
X111383457Y-47468876D01*
X111383457Y-47468876D02*
X112716791Y-47468876D01*
X112716791Y-47468876D02*
X113097743Y-47659352D01*
X113097743Y-47659352D02*
X113288219Y-47849828D01*
X113288219Y-47849828D02*
X113478696Y-48230780D01*
X113478696Y-48230780D02*
X113478696Y-48611733D01*
X113478696Y-48611733D02*
X113288219Y-48992685D01*
X113288219Y-48992685D02*
X113097743Y-49183161D01*
X113097743Y-49183161D02*
X112716791Y-49373638D01*
X112716791Y-49373638D02*
X111383457Y-49373638D01*
X115954886Y-51468876D02*
X115573934Y-51278400D01*
X115573934Y-51278400D02*
X115383457Y-51087923D01*
X115383457Y-51087923D02*
X115192981Y-50706971D01*
X115192981Y-50706971D02*
X115192981Y-49564114D01*
X115192981Y-49564114D02*
X115383457Y-49183161D01*
X115383457Y-49183161D02*
X115573934Y-48992685D01*
X115573934Y-48992685D02*
X115954886Y-48802209D01*
X115954886Y-48802209D02*
X116526315Y-48802209D01*
X116526315Y-48802209D02*
X116907267Y-48992685D01*
X116907267Y-48992685D02*
X117097743Y-49183161D01*
X117097743Y-49183161D02*
X117288219Y-49564114D01*
X117288219Y-49564114D02*
X117288219Y-50706971D01*
X117288219Y-50706971D02*
X117097743Y-51087923D01*
X117097743Y-51087923D02*
X116907267Y-51278400D01*
X116907267Y-51278400D02*
X116526315Y-51468876D01*
X116526315Y-51468876D02*
X115954886Y-51468876D01*
X118431077Y-48802209D02*
X119954886Y-48802209D01*
X119002505Y-47468876D02*
X119002505Y-50897447D01*
X119002505Y-50897447D02*
X119192982Y-51278400D01*
X119192982Y-51278400D02*
X119573934Y-51468876D01*
X119573934Y-51468876D02*
X119954886Y-51468876D01*
D11*
X163816415Y-69519750D02*
X163149748Y-68567369D01*
X162673558Y-69519750D02*
X162673558Y-67519750D01*
X162673558Y-67519750D02*
X163435463Y-67519750D01*
X163435463Y-67519750D02*
X163625939Y-67614988D01*
X163625939Y-67614988D02*
X163721177Y-67710226D01*
X163721177Y-67710226D02*
X163816415Y-67900702D01*
X163816415Y-67900702D02*
X163816415Y-68186416D01*
X163816415Y-68186416D02*
X163721177Y-68376892D01*
X163721177Y-68376892D02*
X163625939Y-68472131D01*
X163625939Y-68472131D02*
X163435463Y-68567369D01*
X163435463Y-68567369D02*
X162673558Y-68567369D01*
X165435463Y-69424512D02*
X165244987Y-69519750D01*
X165244987Y-69519750D02*
X164864034Y-69519750D01*
X164864034Y-69519750D02*
X164673558Y-69424512D01*
X164673558Y-69424512D02*
X164578320Y-69234035D01*
X164578320Y-69234035D02*
X164578320Y-68472131D01*
X164578320Y-68472131D02*
X164673558Y-68281654D01*
X164673558Y-68281654D02*
X164864034Y-68186416D01*
X164864034Y-68186416D02*
X165244987Y-68186416D01*
X165244987Y-68186416D02*
X165435463Y-68281654D01*
X165435463Y-68281654D02*
X165530701Y-68472131D01*
X165530701Y-68472131D02*
X165530701Y-68662607D01*
X165530701Y-68662607D02*
X164578320Y-68853083D01*
X167244987Y-69424512D02*
X167054511Y-69519750D01*
X167054511Y-69519750D02*
X166673558Y-69519750D01*
X166673558Y-69519750D02*
X166483082Y-69424512D01*
X166483082Y-69424512D02*
X166387844Y-69329273D01*
X166387844Y-69329273D02*
X166292606Y-69138797D01*
X166292606Y-69138797D02*
X166292606Y-68567369D01*
X166292606Y-68567369D02*
X166387844Y-68376892D01*
X166387844Y-68376892D02*
X166483082Y-68281654D01*
X166483082Y-68281654D02*
X166673558Y-68186416D01*
X166673558Y-68186416D02*
X167054511Y-68186416D01*
X167054511Y-68186416D02*
X167244987Y-68281654D01*
X168387844Y-69519750D02*
X168197368Y-69424512D01*
X168197368Y-69424512D02*
X168102130Y-69329273D01*
X168102130Y-69329273D02*
X168006892Y-69138797D01*
X168006892Y-69138797D02*
X168006892Y-68567369D01*
X168006892Y-68567369D02*
X168102130Y-68376892D01*
X168102130Y-68376892D02*
X168197368Y-68281654D01*
X168197368Y-68281654D02*
X168387844Y-68186416D01*
X168387844Y-68186416D02*
X168673559Y-68186416D01*
X168673559Y-68186416D02*
X168864035Y-68281654D01*
X168864035Y-68281654D02*
X168959273Y-68376892D01*
X168959273Y-68376892D02*
X169054511Y-68567369D01*
X169054511Y-68567369D02*
X169054511Y-69138797D01*
X169054511Y-69138797D02*
X168959273Y-69329273D01*
X168959273Y-69329273D02*
X168864035Y-69424512D01*
X168864035Y-69424512D02*
X168673559Y-69519750D01*
X168673559Y-69519750D02*
X168387844Y-69519750D01*
X169911654Y-69519750D02*
X169911654Y-68186416D01*
X169911654Y-68567369D02*
X170006892Y-68376892D01*
X170006892Y-68376892D02*
X170102130Y-68281654D01*
X170102130Y-68281654D02*
X170292606Y-68186416D01*
X170292606Y-68186416D02*
X170483083Y-68186416D01*
X172006892Y-69519750D02*
X172006892Y-67519750D01*
X172006892Y-69424512D02*
X171816416Y-69519750D01*
X171816416Y-69519750D02*
X171435463Y-69519750D01*
X171435463Y-69519750D02*
X171244987Y-69424512D01*
X171244987Y-69424512D02*
X171149749Y-69329273D01*
X171149749Y-69329273D02*
X171054511Y-69138797D01*
X171054511Y-69138797D02*
X171054511Y-68567369D01*
X171054511Y-68567369D02*
X171149749Y-68376892D01*
X171149749Y-68376892D02*
X171244987Y-68281654D01*
X171244987Y-68281654D02*
X171435463Y-68186416D01*
X171435463Y-68186416D02*
X171816416Y-68186416D01*
X171816416Y-68186416D02*
X172006892Y-68281654D01*
X162673558Y-72739638D02*
X162673558Y-70739638D01*
X162673558Y-70739638D02*
X163149748Y-70739638D01*
X163149748Y-70739638D02*
X163435463Y-70834876D01*
X163435463Y-70834876D02*
X163625939Y-71025352D01*
X163625939Y-71025352D02*
X163721177Y-71215828D01*
X163721177Y-71215828D02*
X163816415Y-71596780D01*
X163816415Y-71596780D02*
X163816415Y-71882495D01*
X163816415Y-71882495D02*
X163721177Y-72263447D01*
X163721177Y-72263447D02*
X163625939Y-72453923D01*
X163625939Y-72453923D02*
X163435463Y-72644400D01*
X163435463Y-72644400D02*
X163149748Y-72739638D01*
X163149748Y-72739638D02*
X162673558Y-72739638D01*
X165530701Y-72739638D02*
X165530701Y-71692019D01*
X165530701Y-71692019D02*
X165435463Y-71501542D01*
X165435463Y-71501542D02*
X165244987Y-71406304D01*
X165244987Y-71406304D02*
X164864034Y-71406304D01*
X164864034Y-71406304D02*
X164673558Y-71501542D01*
X165530701Y-72644400D02*
X165340225Y-72739638D01*
X165340225Y-72739638D02*
X164864034Y-72739638D01*
X164864034Y-72739638D02*
X164673558Y-72644400D01*
X164673558Y-72644400D02*
X164578320Y-72453923D01*
X164578320Y-72453923D02*
X164578320Y-72263447D01*
X164578320Y-72263447D02*
X164673558Y-72072971D01*
X164673558Y-72072971D02*
X164864034Y-71977733D01*
X164864034Y-71977733D02*
X165340225Y-71977733D01*
X165340225Y-71977733D02*
X165530701Y-71882495D01*
X166197368Y-71406304D02*
X166959272Y-71406304D01*
X166483082Y-70739638D02*
X166483082Y-72453923D01*
X166483082Y-72453923D02*
X166578320Y-72644400D01*
X166578320Y-72644400D02*
X166768796Y-72739638D01*
X166768796Y-72739638D02*
X166959272Y-72739638D01*
X168483082Y-72739638D02*
X168483082Y-71692019D01*
X168483082Y-71692019D02*
X168387844Y-71501542D01*
X168387844Y-71501542D02*
X168197368Y-71406304D01*
X168197368Y-71406304D02*
X167816415Y-71406304D01*
X167816415Y-71406304D02*
X167625939Y-71501542D01*
X168483082Y-72644400D02*
X168292606Y-72739638D01*
X168292606Y-72739638D02*
X167816415Y-72739638D01*
X167816415Y-72739638D02*
X167625939Y-72644400D01*
X167625939Y-72644400D02*
X167530701Y-72453923D01*
X167530701Y-72453923D02*
X167530701Y-72263447D01*
X167530701Y-72263447D02*
X167625939Y-72072971D01*
X167625939Y-72072971D02*
X167816415Y-71977733D01*
X167816415Y-71977733D02*
X168292606Y-71977733D01*
X168292606Y-71977733D02*
X168483082Y-71882495D01*
X208578320Y-79644400D02*
X208864034Y-79739638D01*
X208864034Y-79739638D02*
X209340225Y-79739638D01*
X209340225Y-79739638D02*
X209530701Y-79644400D01*
X209530701Y-79644400D02*
X209625939Y-79549161D01*
X209625939Y-79549161D02*
X209721177Y-79358685D01*
X209721177Y-79358685D02*
X209721177Y-79168209D01*
X209721177Y-79168209D02*
X209625939Y-78977733D01*
X209625939Y-78977733D02*
X209530701Y-78882495D01*
X209530701Y-78882495D02*
X209340225Y-78787257D01*
X209340225Y-78787257D02*
X208959272Y-78692019D01*
X208959272Y-78692019D02*
X208768796Y-78596780D01*
X208768796Y-78596780D02*
X208673558Y-78501542D01*
X208673558Y-78501542D02*
X208578320Y-78311066D01*
X208578320Y-78311066D02*
X208578320Y-78120590D01*
X208578320Y-78120590D02*
X208673558Y-77930114D01*
X208673558Y-77930114D02*
X208768796Y-77834876D01*
X208768796Y-77834876D02*
X208959272Y-77739638D01*
X208959272Y-77739638D02*
X209435463Y-77739638D01*
X209435463Y-77739638D02*
X209721177Y-77834876D01*
X210292606Y-78406304D02*
X211054510Y-78406304D01*
X210578320Y-77739638D02*
X210578320Y-79453923D01*
X210578320Y-79453923D02*
X210673558Y-79644400D01*
X210673558Y-79644400D02*
X210864034Y-79739638D01*
X210864034Y-79739638D02*
X211054510Y-79739638D01*
X212006891Y-79739638D02*
X211816415Y-79644400D01*
X211816415Y-79644400D02*
X211721177Y-79549161D01*
X211721177Y-79549161D02*
X211625939Y-79358685D01*
X211625939Y-79358685D02*
X211625939Y-78787257D01*
X211625939Y-78787257D02*
X211721177Y-78596780D01*
X211721177Y-78596780D02*
X211816415Y-78501542D01*
X211816415Y-78501542D02*
X212006891Y-78406304D01*
X212006891Y-78406304D02*
X212292606Y-78406304D01*
X212292606Y-78406304D02*
X212483082Y-78501542D01*
X212483082Y-78501542D02*
X212578320Y-78596780D01*
X212578320Y-78596780D02*
X212673558Y-78787257D01*
X212673558Y-78787257D02*
X212673558Y-79358685D01*
X212673558Y-79358685D02*
X212578320Y-79549161D01*
X212578320Y-79549161D02*
X212483082Y-79644400D01*
X212483082Y-79644400D02*
X212292606Y-79739638D01*
X212292606Y-79739638D02*
X212006891Y-79739638D01*
X213530701Y-78406304D02*
X213530701Y-80406304D01*
X213530701Y-78501542D02*
X213721177Y-78406304D01*
X213721177Y-78406304D02*
X214102130Y-78406304D01*
X214102130Y-78406304D02*
X214292606Y-78501542D01*
X214292606Y-78501542D02*
X214387844Y-78596780D01*
X214387844Y-78596780D02*
X214483082Y-78787257D01*
X214483082Y-78787257D02*
X214483082Y-79358685D01*
X214483082Y-79358685D02*
X214387844Y-79549161D01*
X214387844Y-79549161D02*
X214292606Y-79644400D01*
X214292606Y-79644400D02*
X214102130Y-79739638D01*
X214102130Y-79739638D02*
X213721177Y-79739638D01*
X213721177Y-79739638D02*
X213530701Y-79644400D01*
D12*
X196960995Y-107212096D02*
X195960995Y-107212096D01*
X195960995Y-108783525D02*
X195960995Y-105783525D01*
X195960995Y-105783525D02*
X197389567Y-105783525D01*
X198960996Y-108783525D02*
X198675281Y-108640668D01*
X198675281Y-108640668D02*
X198532424Y-108497810D01*
X198532424Y-108497810D02*
X198389567Y-108212096D01*
X198389567Y-108212096D02*
X198389567Y-107354953D01*
X198389567Y-107354953D02*
X198532424Y-107069239D01*
X198532424Y-107069239D02*
X198675281Y-106926382D01*
X198675281Y-106926382D02*
X198960996Y-106783525D01*
X198960996Y-106783525D02*
X199389567Y-106783525D01*
X199389567Y-106783525D02*
X199675281Y-106926382D01*
X199675281Y-106926382D02*
X199818139Y-107069239D01*
X199818139Y-107069239D02*
X199960996Y-107354953D01*
X199960996Y-107354953D02*
X199960996Y-108212096D01*
X199960996Y-108212096D02*
X199818139Y-108497810D01*
X199818139Y-108497810D02*
X199675281Y-108640668D01*
X199675281Y-108640668D02*
X199389567Y-108783525D01*
X199389567Y-108783525D02*
X198960996Y-108783525D01*
X201246710Y-108783525D02*
X201246710Y-106783525D01*
X201246710Y-107354953D02*
X201389567Y-107069239D01*
X201389567Y-107069239D02*
X201532425Y-106926382D01*
X201532425Y-106926382D02*
X201818139Y-106783525D01*
X201818139Y-106783525D02*
X202103853Y-106783525D01*
X202818139Y-106783525D02*
X203389568Y-108783525D01*
X203389568Y-108783525D02*
X203960996Y-107354953D01*
X203960996Y-107354953D02*
X204532425Y-108783525D01*
X204532425Y-108783525D02*
X205103853Y-106783525D01*
X207532425Y-108783525D02*
X207532425Y-107212096D01*
X207532425Y-107212096D02*
X207389567Y-106926382D01*
X207389567Y-106926382D02*
X207103853Y-106783525D01*
X207103853Y-106783525D02*
X206532425Y-106783525D01*
X206532425Y-106783525D02*
X206246710Y-106926382D01*
X207532425Y-108640668D02*
X207246710Y-108783525D01*
X207246710Y-108783525D02*
X206532425Y-108783525D01*
X206532425Y-108783525D02*
X206246710Y-108640668D01*
X206246710Y-108640668D02*
X206103853Y-108354953D01*
X206103853Y-108354953D02*
X206103853Y-108069239D01*
X206103853Y-108069239D02*
X206246710Y-107783525D01*
X206246710Y-107783525D02*
X206532425Y-107640668D01*
X206532425Y-107640668D02*
X207246710Y-107640668D01*
X207246710Y-107640668D02*
X207532425Y-107497810D01*
X208960996Y-108783525D02*
X208960996Y-106783525D01*
X208960996Y-107354953D02*
X209103853Y-107069239D01*
X209103853Y-107069239D02*
X209246711Y-106926382D01*
X209246711Y-106926382D02*
X209532425Y-106783525D01*
X209532425Y-106783525D02*
X209818139Y-106783525D01*
X212103854Y-108783525D02*
X212103854Y-105783525D01*
X212103854Y-108640668D02*
X211818139Y-108783525D01*
X211818139Y-108783525D02*
X211246711Y-108783525D01*
X211246711Y-108783525D02*
X210960996Y-108640668D01*
X210960996Y-108640668D02*
X210818139Y-108497810D01*
X210818139Y-108497810D02*
X210675282Y-108212096D01*
X210675282Y-108212096D02*
X210675282Y-107354953D01*
X210675282Y-107354953D02*
X210818139Y-107069239D01*
X210818139Y-107069239D02*
X210960996Y-106926382D01*
X210960996Y-106926382D02*
X211246711Y-106783525D01*
X211246711Y-106783525D02*
X211818139Y-106783525D01*
X211818139Y-106783525D02*
X212103854Y-106926382D01*
X198389567Y-113613357D02*
X198246710Y-113613357D01*
X198246710Y-113613357D02*
X197960995Y-113470500D01*
X197960995Y-113470500D02*
X197532424Y-113041928D01*
X197532424Y-113041928D02*
X196818138Y-112184785D01*
X196818138Y-112184785D02*
X196532424Y-111756214D01*
X196532424Y-111756214D02*
X196389567Y-111327642D01*
X196389567Y-111327642D02*
X196389567Y-111041928D01*
X196389567Y-111041928D02*
X196532424Y-110756214D01*
X196532424Y-110756214D02*
X196818138Y-110613357D01*
X196818138Y-110613357D02*
X196960995Y-110613357D01*
X196960995Y-110613357D02*
X197246710Y-110756214D01*
X197246710Y-110756214D02*
X197389567Y-111041928D01*
X197389567Y-111041928D02*
X197389567Y-111184785D01*
X197389567Y-111184785D02*
X197246710Y-111470500D01*
X197246710Y-111470500D02*
X197103852Y-111613357D01*
X197103852Y-111613357D02*
X196246710Y-112184785D01*
X196246710Y-112184785D02*
X196103852Y-112327642D01*
X196103852Y-112327642D02*
X195960995Y-112613357D01*
X195960995Y-112613357D02*
X195960995Y-113041928D01*
X195960995Y-113041928D02*
X196103852Y-113327642D01*
X196103852Y-113327642D02*
X196246710Y-113470500D01*
X196246710Y-113470500D02*
X196532424Y-113613357D01*
X196532424Y-113613357D02*
X196960995Y-113613357D01*
X196960995Y-113613357D02*
X197246710Y-113470500D01*
X197246710Y-113470500D02*
X197389567Y-113327642D01*
X197389567Y-113327642D02*
X197818138Y-112756214D01*
X197818138Y-112756214D02*
X197960995Y-112327642D01*
X197960995Y-112327642D02*
X197960995Y-112041928D01*
X202960995Y-112041928D02*
X203389567Y-112184785D01*
X203389567Y-112184785D02*
X203532424Y-112327642D01*
X203532424Y-112327642D02*
X203675281Y-112613357D01*
X203675281Y-112613357D02*
X203675281Y-113041928D01*
X203675281Y-113041928D02*
X203532424Y-113327642D01*
X203532424Y-113327642D02*
X203389567Y-113470500D01*
X203389567Y-113470500D02*
X203103852Y-113613357D01*
X203103852Y-113613357D02*
X201960995Y-113613357D01*
X201960995Y-113613357D02*
X201960995Y-110613357D01*
X201960995Y-110613357D02*
X202960995Y-110613357D01*
X202960995Y-110613357D02*
X203246710Y-110756214D01*
X203246710Y-110756214D02*
X203389567Y-110899071D01*
X203389567Y-110899071D02*
X203532424Y-111184785D01*
X203532424Y-111184785D02*
X203532424Y-111470500D01*
X203532424Y-111470500D02*
X203389567Y-111756214D01*
X203389567Y-111756214D02*
X203246710Y-111899071D01*
X203246710Y-111899071D02*
X202960995Y-112041928D01*
X202960995Y-112041928D02*
X201960995Y-112041928D01*
X206246710Y-113613357D02*
X206246710Y-112041928D01*
X206246710Y-112041928D02*
X206103852Y-111756214D01*
X206103852Y-111756214D02*
X205818138Y-111613357D01*
X205818138Y-111613357D02*
X205246710Y-111613357D01*
X205246710Y-111613357D02*
X204960995Y-111756214D01*
X206246710Y-113470500D02*
X205960995Y-113613357D01*
X205960995Y-113613357D02*
X205246710Y-113613357D01*
X205246710Y-113613357D02*
X204960995Y-113470500D01*
X204960995Y-113470500D02*
X204818138Y-113184785D01*
X204818138Y-113184785D02*
X204818138Y-112899071D01*
X204818138Y-112899071D02*
X204960995Y-112613357D01*
X204960995Y-112613357D02*
X205246710Y-112470500D01*
X205246710Y-112470500D02*
X205960995Y-112470500D01*
X205960995Y-112470500D02*
X206246710Y-112327642D01*
X208960996Y-113470500D02*
X208675281Y-113613357D01*
X208675281Y-113613357D02*
X208103853Y-113613357D01*
X208103853Y-113613357D02*
X207818138Y-113470500D01*
X207818138Y-113470500D02*
X207675281Y-113327642D01*
X207675281Y-113327642D02*
X207532424Y-113041928D01*
X207532424Y-113041928D02*
X207532424Y-112184785D01*
X207532424Y-112184785D02*
X207675281Y-111899071D01*
X207675281Y-111899071D02*
X207818138Y-111756214D01*
X207818138Y-111756214D02*
X208103853Y-111613357D01*
X208103853Y-111613357D02*
X208675281Y-111613357D01*
X208675281Y-111613357D02*
X208960996Y-111756214D01*
X210246710Y-113613357D02*
X210246710Y-110613357D01*
X210532425Y-112470500D02*
X211389567Y-113613357D01*
X211389567Y-111613357D02*
X210246710Y-112756214D01*
D11*
X182625939Y-86739638D02*
X181673558Y-86739638D01*
X181673558Y-86739638D02*
X181673558Y-84739638D01*
X183578320Y-86739638D02*
X183387844Y-86644400D01*
X183387844Y-86644400D02*
X183292606Y-86549161D01*
X183292606Y-86549161D02*
X183197368Y-86358685D01*
X183197368Y-86358685D02*
X183197368Y-85787257D01*
X183197368Y-85787257D02*
X183292606Y-85596780D01*
X183292606Y-85596780D02*
X183387844Y-85501542D01*
X183387844Y-85501542D02*
X183578320Y-85406304D01*
X183578320Y-85406304D02*
X183864035Y-85406304D01*
X183864035Y-85406304D02*
X184054511Y-85501542D01*
X184054511Y-85501542D02*
X184149749Y-85596780D01*
X184149749Y-85596780D02*
X184244987Y-85787257D01*
X184244987Y-85787257D02*
X184244987Y-86358685D01*
X184244987Y-86358685D02*
X184149749Y-86549161D01*
X184149749Y-86549161D02*
X184054511Y-86644400D01*
X184054511Y-86644400D02*
X183864035Y-86739638D01*
X183864035Y-86739638D02*
X183578320Y-86739638D01*
X185959273Y-86644400D02*
X185768797Y-86739638D01*
X185768797Y-86739638D02*
X185387844Y-86739638D01*
X185387844Y-86739638D02*
X185197368Y-86644400D01*
X185197368Y-86644400D02*
X185102130Y-86549161D01*
X185102130Y-86549161D02*
X185006892Y-86358685D01*
X185006892Y-86358685D02*
X185006892Y-85787257D01*
X185006892Y-85787257D02*
X185102130Y-85596780D01*
X185102130Y-85596780D02*
X185197368Y-85501542D01*
X185197368Y-85501542D02*
X185387844Y-85406304D01*
X185387844Y-85406304D02*
X185768797Y-85406304D01*
X185768797Y-85406304D02*
X185959273Y-85501542D01*
X186816416Y-86739638D02*
X186816416Y-84739638D01*
X187006892Y-85977733D02*
X187578321Y-86739638D01*
X187578321Y-85406304D02*
X186816416Y-86168209D01*
X97700225Y-56689855D02*
X97985939Y-56785093D01*
X97985939Y-56785093D02*
X98081177Y-56880331D01*
X98081177Y-56880331D02*
X98176415Y-57070807D01*
X98176415Y-57070807D02*
X98176415Y-57356521D01*
X98176415Y-57356521D02*
X98081177Y-57546997D01*
X98081177Y-57546997D02*
X97985939Y-57642236D01*
X97985939Y-57642236D02*
X97795463Y-57737474D01*
X97795463Y-57737474D02*
X97033558Y-57737474D01*
X97033558Y-57737474D02*
X97033558Y-55737474D01*
X97033558Y-55737474D02*
X97700225Y-55737474D01*
X97700225Y-55737474D02*
X97890701Y-55832712D01*
X97890701Y-55832712D02*
X97985939Y-55927950D01*
X97985939Y-55927950D02*
X98081177Y-56118426D01*
X98081177Y-56118426D02*
X98081177Y-56308902D01*
X98081177Y-56308902D02*
X97985939Y-56499378D01*
X97985939Y-56499378D02*
X97890701Y-56594616D01*
X97890701Y-56594616D02*
X97700225Y-56689855D01*
X97700225Y-56689855D02*
X97033558Y-56689855D01*
X98747844Y-55737474D02*
X99890701Y-55737474D01*
X99319272Y-57737474D02*
X99319272Y-55737474D01*
X103224035Y-57546997D02*
X103128797Y-57642236D01*
X103128797Y-57642236D02*
X102843083Y-57737474D01*
X102843083Y-57737474D02*
X102652607Y-57737474D01*
X102652607Y-57737474D02*
X102366892Y-57642236D01*
X102366892Y-57642236D02*
X102176416Y-57451759D01*
X102176416Y-57451759D02*
X102081178Y-57261283D01*
X102081178Y-57261283D02*
X101985940Y-56880331D01*
X101985940Y-56880331D02*
X101985940Y-56594616D01*
X101985940Y-56594616D02*
X102081178Y-56213664D01*
X102081178Y-56213664D02*
X102176416Y-56023188D01*
X102176416Y-56023188D02*
X102366892Y-55832712D01*
X102366892Y-55832712D02*
X102652607Y-55737474D01*
X102652607Y-55737474D02*
X102843083Y-55737474D01*
X102843083Y-55737474D02*
X103128797Y-55832712D01*
X103128797Y-55832712D02*
X103224035Y-55927950D01*
X104366892Y-57737474D02*
X104176416Y-57642236D01*
X104176416Y-57642236D02*
X104081178Y-57546997D01*
X104081178Y-57546997D02*
X103985940Y-57356521D01*
X103985940Y-57356521D02*
X103985940Y-56785093D01*
X103985940Y-56785093D02*
X104081178Y-56594616D01*
X104081178Y-56594616D02*
X104176416Y-56499378D01*
X104176416Y-56499378D02*
X104366892Y-56404140D01*
X104366892Y-56404140D02*
X104652607Y-56404140D01*
X104652607Y-56404140D02*
X104843083Y-56499378D01*
X104843083Y-56499378D02*
X104938321Y-56594616D01*
X104938321Y-56594616D02*
X105033559Y-56785093D01*
X105033559Y-56785093D02*
X105033559Y-57356521D01*
X105033559Y-57356521D02*
X104938321Y-57546997D01*
X104938321Y-57546997D02*
X104843083Y-57642236D01*
X104843083Y-57642236D02*
X104652607Y-57737474D01*
X104652607Y-57737474D02*
X104366892Y-57737474D01*
X105890702Y-56404140D02*
X105890702Y-57737474D01*
X105890702Y-56594616D02*
X105985940Y-56499378D01*
X105985940Y-56499378D02*
X106176416Y-56404140D01*
X106176416Y-56404140D02*
X106462131Y-56404140D01*
X106462131Y-56404140D02*
X106652607Y-56499378D01*
X106652607Y-56499378D02*
X106747845Y-56689855D01*
X106747845Y-56689855D02*
X106747845Y-57737474D01*
X107700226Y-56404140D02*
X107700226Y-57737474D01*
X107700226Y-56594616D02*
X107795464Y-56499378D01*
X107795464Y-56499378D02*
X107985940Y-56404140D01*
X107985940Y-56404140D02*
X108271655Y-56404140D01*
X108271655Y-56404140D02*
X108462131Y-56499378D01*
X108462131Y-56499378D02*
X108557369Y-56689855D01*
X108557369Y-56689855D02*
X108557369Y-57737474D01*
X110271655Y-57642236D02*
X110081179Y-57737474D01*
X110081179Y-57737474D02*
X109700226Y-57737474D01*
X109700226Y-57737474D02*
X109509750Y-57642236D01*
X109509750Y-57642236D02*
X109414512Y-57451759D01*
X109414512Y-57451759D02*
X109414512Y-56689855D01*
X109414512Y-56689855D02*
X109509750Y-56499378D01*
X109509750Y-56499378D02*
X109700226Y-56404140D01*
X109700226Y-56404140D02*
X110081179Y-56404140D01*
X110081179Y-56404140D02*
X110271655Y-56499378D01*
X110271655Y-56499378D02*
X110366893Y-56689855D01*
X110366893Y-56689855D02*
X110366893Y-56880331D01*
X110366893Y-56880331D02*
X109414512Y-57070807D01*
X112081179Y-57642236D02*
X111890703Y-57737474D01*
X111890703Y-57737474D02*
X111509750Y-57737474D01*
X111509750Y-57737474D02*
X111319274Y-57642236D01*
X111319274Y-57642236D02*
X111224036Y-57546997D01*
X111224036Y-57546997D02*
X111128798Y-57356521D01*
X111128798Y-57356521D02*
X111128798Y-56785093D01*
X111128798Y-56785093D02*
X111224036Y-56594616D01*
X111224036Y-56594616D02*
X111319274Y-56499378D01*
X111319274Y-56499378D02*
X111509750Y-56404140D01*
X111509750Y-56404140D02*
X111890703Y-56404140D01*
X111890703Y-56404140D02*
X112081179Y-56499378D01*
X112652608Y-56404140D02*
X113414512Y-56404140D01*
X112938322Y-55737474D02*
X112938322Y-57451759D01*
X112938322Y-57451759D02*
X113033560Y-57642236D01*
X113033560Y-57642236D02*
X113224036Y-57737474D01*
X113224036Y-57737474D02*
X113414512Y-57737474D01*
X117673558Y-122739638D02*
X117673558Y-120739638D01*
X117673558Y-120739638D02*
X118435463Y-120739638D01*
X118435463Y-120739638D02*
X118625939Y-120834876D01*
X118625939Y-120834876D02*
X118721177Y-120930114D01*
X118721177Y-120930114D02*
X118816415Y-121120590D01*
X118816415Y-121120590D02*
X118816415Y-121406304D01*
X118816415Y-121406304D02*
X118721177Y-121596780D01*
X118721177Y-121596780D02*
X118625939Y-121692019D01*
X118625939Y-121692019D02*
X118435463Y-121787257D01*
X118435463Y-121787257D02*
X117673558Y-121787257D01*
X119673558Y-122739638D02*
X119673558Y-121406304D01*
X119673558Y-121787257D02*
X119768796Y-121596780D01*
X119768796Y-121596780D02*
X119864034Y-121501542D01*
X119864034Y-121501542D02*
X120054510Y-121406304D01*
X120054510Y-121406304D02*
X120244987Y-121406304D01*
X121197367Y-122739638D02*
X121006891Y-122644400D01*
X121006891Y-122644400D02*
X120911653Y-122549161D01*
X120911653Y-122549161D02*
X120816415Y-122358685D01*
X120816415Y-122358685D02*
X120816415Y-121787257D01*
X120816415Y-121787257D02*
X120911653Y-121596780D01*
X120911653Y-121596780D02*
X121006891Y-121501542D01*
X121006891Y-121501542D02*
X121197367Y-121406304D01*
X121197367Y-121406304D02*
X121483082Y-121406304D01*
X121483082Y-121406304D02*
X121673558Y-121501542D01*
X121673558Y-121501542D02*
X121768796Y-121596780D01*
X121768796Y-121596780D02*
X121864034Y-121787257D01*
X121864034Y-121787257D02*
X121864034Y-122358685D01*
X121864034Y-122358685D02*
X121768796Y-122549161D01*
X121768796Y-122549161D02*
X121673558Y-122644400D01*
X121673558Y-122644400D02*
X121483082Y-122739638D01*
X121483082Y-122739638D02*
X121197367Y-122739638D01*
X123578320Y-121406304D02*
X123578320Y-123025352D01*
X123578320Y-123025352D02*
X123483082Y-123215828D01*
X123483082Y-123215828D02*
X123387844Y-123311066D01*
X123387844Y-123311066D02*
X123197367Y-123406304D01*
X123197367Y-123406304D02*
X122911653Y-123406304D01*
X122911653Y-123406304D02*
X122721177Y-123311066D01*
X123578320Y-122644400D02*
X123387844Y-122739638D01*
X123387844Y-122739638D02*
X123006891Y-122739638D01*
X123006891Y-122739638D02*
X122816415Y-122644400D01*
X122816415Y-122644400D02*
X122721177Y-122549161D01*
X122721177Y-122549161D02*
X122625939Y-122358685D01*
X122625939Y-122358685D02*
X122625939Y-121787257D01*
X122625939Y-121787257D02*
X122721177Y-121596780D01*
X122721177Y-121596780D02*
X122816415Y-121501542D01*
X122816415Y-121501542D02*
X123006891Y-121406304D01*
X123006891Y-121406304D02*
X123387844Y-121406304D01*
X123387844Y-121406304D02*
X123578320Y-121501542D01*
X124530701Y-122739638D02*
X124530701Y-121406304D01*
X124530701Y-121787257D02*
X124625939Y-121596780D01*
X124625939Y-121596780D02*
X124721177Y-121501542D01*
X124721177Y-121501542D02*
X124911653Y-121406304D01*
X124911653Y-121406304D02*
X125102130Y-121406304D01*
X126625939Y-122739638D02*
X126625939Y-121692019D01*
X126625939Y-121692019D02*
X126530701Y-121501542D01*
X126530701Y-121501542D02*
X126340225Y-121406304D01*
X126340225Y-121406304D02*
X125959272Y-121406304D01*
X125959272Y-121406304D02*
X125768796Y-121501542D01*
X126625939Y-122644400D02*
X126435463Y-122739638D01*
X126435463Y-122739638D02*
X125959272Y-122739638D01*
X125959272Y-122739638D02*
X125768796Y-122644400D01*
X125768796Y-122644400D02*
X125673558Y-122453923D01*
X125673558Y-122453923D02*
X125673558Y-122263447D01*
X125673558Y-122263447D02*
X125768796Y-122072971D01*
X125768796Y-122072971D02*
X125959272Y-121977733D01*
X125959272Y-121977733D02*
X126435463Y-121977733D01*
X126435463Y-121977733D02*
X126625939Y-121882495D01*
X127578320Y-122739638D02*
X127578320Y-121406304D01*
X127578320Y-121596780D02*
X127673558Y-121501542D01*
X127673558Y-121501542D02*
X127864034Y-121406304D01*
X127864034Y-121406304D02*
X128149749Y-121406304D01*
X128149749Y-121406304D02*
X128340225Y-121501542D01*
X128340225Y-121501542D02*
X128435463Y-121692019D01*
X128435463Y-121692019D02*
X128435463Y-122739638D01*
X128435463Y-121692019D02*
X128530701Y-121501542D01*
X128530701Y-121501542D02*
X128721177Y-121406304D01*
X128721177Y-121406304D02*
X129006891Y-121406304D01*
X129006891Y-121406304D02*
X129197368Y-121501542D01*
X129197368Y-121501542D02*
X129292606Y-121692019D01*
X129292606Y-121692019D02*
X129292606Y-122739638D01*
X130244987Y-122739638D02*
X130244987Y-121406304D01*
X130244987Y-121596780D02*
X130340225Y-121501542D01*
X130340225Y-121501542D02*
X130530701Y-121406304D01*
X130530701Y-121406304D02*
X130816416Y-121406304D01*
X130816416Y-121406304D02*
X131006892Y-121501542D01*
X131006892Y-121501542D02*
X131102130Y-121692019D01*
X131102130Y-121692019D02*
X131102130Y-122739638D01*
X131102130Y-121692019D02*
X131197368Y-121501542D01*
X131197368Y-121501542D02*
X131387844Y-121406304D01*
X131387844Y-121406304D02*
X131673558Y-121406304D01*
X131673558Y-121406304D02*
X131864035Y-121501542D01*
X131864035Y-121501542D02*
X131959273Y-121692019D01*
X131959273Y-121692019D02*
X131959273Y-122739638D01*
X133673559Y-122644400D02*
X133483083Y-122739638D01*
X133483083Y-122739638D02*
X133102130Y-122739638D01*
X133102130Y-122739638D02*
X132911654Y-122644400D01*
X132911654Y-122644400D02*
X132816416Y-122453923D01*
X132816416Y-122453923D02*
X132816416Y-121692019D01*
X132816416Y-121692019D02*
X132911654Y-121501542D01*
X132911654Y-121501542D02*
X133102130Y-121406304D01*
X133102130Y-121406304D02*
X133483083Y-121406304D01*
X133483083Y-121406304D02*
X133673559Y-121501542D01*
X133673559Y-121501542D02*
X133768797Y-121692019D01*
X133768797Y-121692019D02*
X133768797Y-121882495D01*
X133768797Y-121882495D02*
X132816416Y-122072971D01*
X134625940Y-122739638D02*
X134625940Y-121406304D01*
X134625940Y-121787257D02*
X134721178Y-121596780D01*
X134721178Y-121596780D02*
X134816416Y-121501542D01*
X134816416Y-121501542D02*
X135006892Y-121406304D01*
X135006892Y-121406304D02*
X135197369Y-121406304D01*
X100340225Y-78692019D02*
X99673558Y-78692019D01*
X99673558Y-79739638D02*
X99673558Y-77739638D01*
X99673558Y-77739638D02*
X100625939Y-77739638D01*
X101197368Y-77739638D02*
X102530701Y-77739638D01*
X102530701Y-77739638D02*
X101673558Y-79739638D01*
X204728320Y-55349512D02*
X205014034Y-55444750D01*
X205014034Y-55444750D02*
X205490225Y-55444750D01*
X205490225Y-55444750D02*
X205680701Y-55349512D01*
X205680701Y-55349512D02*
X205775939Y-55254273D01*
X205775939Y-55254273D02*
X205871177Y-55063797D01*
X205871177Y-55063797D02*
X205871177Y-54873321D01*
X205871177Y-54873321D02*
X205775939Y-54682845D01*
X205775939Y-54682845D02*
X205680701Y-54587607D01*
X205680701Y-54587607D02*
X205490225Y-54492369D01*
X205490225Y-54492369D02*
X205109272Y-54397131D01*
X205109272Y-54397131D02*
X204918796Y-54301892D01*
X204918796Y-54301892D02*
X204823558Y-54206654D01*
X204823558Y-54206654D02*
X204728320Y-54016178D01*
X204728320Y-54016178D02*
X204728320Y-53825702D01*
X204728320Y-53825702D02*
X204823558Y-53635226D01*
X204823558Y-53635226D02*
X204918796Y-53539988D01*
X204918796Y-53539988D02*
X205109272Y-53444750D01*
X205109272Y-53444750D02*
X205585463Y-53444750D01*
X205585463Y-53444750D02*
X205871177Y-53539988D01*
X207585463Y-55444750D02*
X207585463Y-54397131D01*
X207585463Y-54397131D02*
X207490225Y-54206654D01*
X207490225Y-54206654D02*
X207299749Y-54111416D01*
X207299749Y-54111416D02*
X206918796Y-54111416D01*
X206918796Y-54111416D02*
X206728320Y-54206654D01*
X207585463Y-55349512D02*
X207394987Y-55444750D01*
X207394987Y-55444750D02*
X206918796Y-55444750D01*
X206918796Y-55444750D02*
X206728320Y-55349512D01*
X206728320Y-55349512D02*
X206633082Y-55159035D01*
X206633082Y-55159035D02*
X206633082Y-54968559D01*
X206633082Y-54968559D02*
X206728320Y-54778083D01*
X206728320Y-54778083D02*
X206918796Y-54682845D01*
X206918796Y-54682845D02*
X207394987Y-54682845D01*
X207394987Y-54682845D02*
X207585463Y-54587607D01*
X208347368Y-54111416D02*
X208823558Y-55444750D01*
X208823558Y-55444750D02*
X209299749Y-54111416D01*
X210823559Y-55349512D02*
X210633083Y-55444750D01*
X210633083Y-55444750D02*
X210252130Y-55444750D01*
X210252130Y-55444750D02*
X210061654Y-55349512D01*
X210061654Y-55349512D02*
X209966416Y-55159035D01*
X209966416Y-55159035D02*
X209966416Y-54397131D01*
X209966416Y-54397131D02*
X210061654Y-54206654D01*
X210061654Y-54206654D02*
X210252130Y-54111416D01*
X210252130Y-54111416D02*
X210633083Y-54111416D01*
X210633083Y-54111416D02*
X210823559Y-54206654D01*
X210823559Y-54206654D02*
X210918797Y-54397131D01*
X210918797Y-54397131D02*
X210918797Y-54587607D01*
X210918797Y-54587607D02*
X209966416Y-54778083D01*
X204823558Y-58664638D02*
X204823558Y-56664638D01*
X204823558Y-56664638D02*
X205299748Y-56664638D01*
X205299748Y-56664638D02*
X205585463Y-56759876D01*
X205585463Y-56759876D02*
X205775939Y-56950352D01*
X205775939Y-56950352D02*
X205871177Y-57140828D01*
X205871177Y-57140828D02*
X205966415Y-57521780D01*
X205966415Y-57521780D02*
X205966415Y-57807495D01*
X205966415Y-57807495D02*
X205871177Y-58188447D01*
X205871177Y-58188447D02*
X205775939Y-58378923D01*
X205775939Y-58378923D02*
X205585463Y-58569400D01*
X205585463Y-58569400D02*
X205299748Y-58664638D01*
X205299748Y-58664638D02*
X204823558Y-58664638D01*
X207680701Y-58664638D02*
X207680701Y-57617019D01*
X207680701Y-57617019D02*
X207585463Y-57426542D01*
X207585463Y-57426542D02*
X207394987Y-57331304D01*
X207394987Y-57331304D02*
X207014034Y-57331304D01*
X207014034Y-57331304D02*
X206823558Y-57426542D01*
X207680701Y-58569400D02*
X207490225Y-58664638D01*
X207490225Y-58664638D02*
X207014034Y-58664638D01*
X207014034Y-58664638D02*
X206823558Y-58569400D01*
X206823558Y-58569400D02*
X206728320Y-58378923D01*
X206728320Y-58378923D02*
X206728320Y-58188447D01*
X206728320Y-58188447D02*
X206823558Y-57997971D01*
X206823558Y-57997971D02*
X207014034Y-57902733D01*
X207014034Y-57902733D02*
X207490225Y-57902733D01*
X207490225Y-57902733D02*
X207680701Y-57807495D01*
X208347368Y-57331304D02*
X209109272Y-57331304D01*
X208633082Y-56664638D02*
X208633082Y-58378923D01*
X208633082Y-58378923D02*
X208728320Y-58569400D01*
X208728320Y-58569400D02*
X208918796Y-58664638D01*
X208918796Y-58664638D02*
X209109272Y-58664638D01*
X210633082Y-58664638D02*
X210633082Y-57617019D01*
X210633082Y-57617019D02*
X210537844Y-57426542D01*
X210537844Y-57426542D02*
X210347368Y-57331304D01*
X210347368Y-57331304D02*
X209966415Y-57331304D01*
X209966415Y-57331304D02*
X209775939Y-57426542D01*
X210633082Y-58569400D02*
X210442606Y-58664638D01*
X210442606Y-58664638D02*
X209966415Y-58664638D01*
X209966415Y-58664638D02*
X209775939Y-58569400D01*
X209775939Y-58569400D02*
X209680701Y-58378923D01*
X209680701Y-58378923D02*
X209680701Y-58188447D01*
X209680701Y-58188447D02*
X209775939Y-57997971D01*
X209775939Y-57997971D02*
X209966415Y-57902733D01*
X209966415Y-57902733D02*
X210442606Y-57902733D01*
X210442606Y-57902733D02*
X210633082Y-57807495D01*
X70340225Y-78692019D02*
X69673558Y-78692019D01*
X69673558Y-79739638D02*
X69673558Y-77739638D01*
X69673558Y-77739638D02*
X70625939Y-77739638D01*
X72244987Y-77739638D02*
X71864034Y-77739638D01*
X71864034Y-77739638D02*
X71673558Y-77834876D01*
X71673558Y-77834876D02*
X71578320Y-77930114D01*
X71578320Y-77930114D02*
X71387844Y-78215828D01*
X71387844Y-78215828D02*
X71292606Y-78596780D01*
X71292606Y-78596780D02*
X71292606Y-79358685D01*
X71292606Y-79358685D02*
X71387844Y-79549161D01*
X71387844Y-79549161D02*
X71483082Y-79644400D01*
X71483082Y-79644400D02*
X71673558Y-79739638D01*
X71673558Y-79739638D02*
X72054511Y-79739638D01*
X72054511Y-79739638D02*
X72244987Y-79644400D01*
X72244987Y-79644400D02*
X72340225Y-79549161D01*
X72340225Y-79549161D02*
X72435463Y-79358685D01*
X72435463Y-79358685D02*
X72435463Y-78882495D01*
X72435463Y-78882495D02*
X72340225Y-78692019D01*
X72340225Y-78692019D02*
X72244987Y-78596780D01*
X72244987Y-78596780D02*
X72054511Y-78501542D01*
X72054511Y-78501542D02*
X71673558Y-78501542D01*
X71673558Y-78501542D02*
X71483082Y-78596780D01*
X71483082Y-78596780D02*
X71387844Y-78692019D01*
X71387844Y-78692019D02*
X71292606Y-78882495D01*
D12*
X74389567Y-108783525D02*
X72960995Y-108783525D01*
X72960995Y-108783525D02*
X72960995Y-105783525D01*
X76532423Y-108640668D02*
X76246709Y-108783525D01*
X76246709Y-108783525D02*
X75675281Y-108783525D01*
X75675281Y-108783525D02*
X75389566Y-108640668D01*
X75389566Y-108640668D02*
X75246709Y-108354953D01*
X75246709Y-108354953D02*
X75246709Y-107212096D01*
X75246709Y-107212096D02*
X75389566Y-106926382D01*
X75389566Y-106926382D02*
X75675281Y-106783525D01*
X75675281Y-106783525D02*
X76246709Y-106783525D01*
X76246709Y-106783525D02*
X76532423Y-106926382D01*
X76532423Y-106926382D02*
X76675281Y-107212096D01*
X76675281Y-107212096D02*
X76675281Y-107497810D01*
X76675281Y-107497810D02*
X75246709Y-107783525D01*
X77532424Y-106783525D02*
X78675281Y-106783525D01*
X77960995Y-108783525D02*
X77960995Y-106212096D01*
X77960995Y-106212096D02*
X78103852Y-105926382D01*
X78103852Y-105926382D02*
X78389567Y-105783525D01*
X78389567Y-105783525D02*
X78675281Y-105783525D01*
X79246710Y-106783525D02*
X80389567Y-106783525D01*
X79675281Y-105783525D02*
X79675281Y-108354953D01*
X79675281Y-108354953D02*
X79818138Y-108640668D01*
X79818138Y-108640668D02*
X80103853Y-108783525D01*
X80103853Y-108783525D02*
X80389567Y-108783525D01*
X86103853Y-108783525D02*
X85960996Y-108783525D01*
X85960996Y-108783525D02*
X85675281Y-108640668D01*
X85675281Y-108640668D02*
X85246710Y-108212096D01*
X85246710Y-108212096D02*
X84532424Y-107354953D01*
X84532424Y-107354953D02*
X84246710Y-106926382D01*
X84246710Y-106926382D02*
X84103853Y-106497810D01*
X84103853Y-106497810D02*
X84103853Y-106212096D01*
X84103853Y-106212096D02*
X84246710Y-105926382D01*
X84246710Y-105926382D02*
X84532424Y-105783525D01*
X84532424Y-105783525D02*
X84675281Y-105783525D01*
X84675281Y-105783525D02*
X84960996Y-105926382D01*
X84960996Y-105926382D02*
X85103853Y-106212096D01*
X85103853Y-106212096D02*
X85103853Y-106354953D01*
X85103853Y-106354953D02*
X84960996Y-106640668D01*
X84960996Y-106640668D02*
X84818138Y-106783525D01*
X84818138Y-106783525D02*
X83960996Y-107354953D01*
X83960996Y-107354953D02*
X83818138Y-107497810D01*
X83818138Y-107497810D02*
X83675281Y-107783525D01*
X83675281Y-107783525D02*
X83675281Y-108212096D01*
X83675281Y-108212096D02*
X83818138Y-108497810D01*
X83818138Y-108497810D02*
X83960996Y-108640668D01*
X83960996Y-108640668D02*
X84246710Y-108783525D01*
X84246710Y-108783525D02*
X84675281Y-108783525D01*
X84675281Y-108783525D02*
X84960996Y-108640668D01*
X84960996Y-108640668D02*
X85103853Y-108497810D01*
X85103853Y-108497810D02*
X85532424Y-107926382D01*
X85532424Y-107926382D02*
X85675281Y-107497810D01*
X85675281Y-107497810D02*
X85675281Y-107212096D01*
X74675281Y-113613357D02*
X73675281Y-112184785D01*
X72960995Y-113613357D02*
X72960995Y-110613357D01*
X72960995Y-110613357D02*
X74103852Y-110613357D01*
X74103852Y-110613357D02*
X74389567Y-110756214D01*
X74389567Y-110756214D02*
X74532424Y-110899071D01*
X74532424Y-110899071D02*
X74675281Y-111184785D01*
X74675281Y-111184785D02*
X74675281Y-111613357D01*
X74675281Y-111613357D02*
X74532424Y-111899071D01*
X74532424Y-111899071D02*
X74389567Y-112041928D01*
X74389567Y-112041928D02*
X74103852Y-112184785D01*
X74103852Y-112184785D02*
X72960995Y-112184785D01*
X75960995Y-113613357D02*
X75960995Y-111613357D01*
X75960995Y-110613357D02*
X75818138Y-110756214D01*
X75818138Y-110756214D02*
X75960995Y-110899071D01*
X75960995Y-110899071D02*
X76103852Y-110756214D01*
X76103852Y-110756214D02*
X75960995Y-110613357D01*
X75960995Y-110613357D02*
X75960995Y-110899071D01*
X78675281Y-111613357D02*
X78675281Y-114041928D01*
X78675281Y-114041928D02*
X78532423Y-114327642D01*
X78532423Y-114327642D02*
X78389566Y-114470500D01*
X78389566Y-114470500D02*
X78103852Y-114613357D01*
X78103852Y-114613357D02*
X77675281Y-114613357D01*
X77675281Y-114613357D02*
X77389566Y-114470500D01*
X78675281Y-113470500D02*
X78389566Y-113613357D01*
X78389566Y-113613357D02*
X77818138Y-113613357D01*
X77818138Y-113613357D02*
X77532423Y-113470500D01*
X77532423Y-113470500D02*
X77389566Y-113327642D01*
X77389566Y-113327642D02*
X77246709Y-113041928D01*
X77246709Y-113041928D02*
X77246709Y-112184785D01*
X77246709Y-112184785D02*
X77389566Y-111899071D01*
X77389566Y-111899071D02*
X77532423Y-111756214D01*
X77532423Y-111756214D02*
X77818138Y-111613357D01*
X77818138Y-111613357D02*
X78389566Y-111613357D01*
X78389566Y-111613357D02*
X78675281Y-111756214D01*
X80103852Y-113613357D02*
X80103852Y-110613357D01*
X81389567Y-113613357D02*
X81389567Y-112041928D01*
X81389567Y-112041928D02*
X81246709Y-111756214D01*
X81246709Y-111756214D02*
X80960995Y-111613357D01*
X80960995Y-111613357D02*
X80532424Y-111613357D01*
X80532424Y-111613357D02*
X80246709Y-111756214D01*
X80246709Y-111756214D02*
X80103852Y-111899071D01*
X82389567Y-111613357D02*
X83532424Y-111613357D01*
X82818138Y-110613357D02*
X82818138Y-113184785D01*
X82818138Y-113184785D02*
X82960995Y-113470500D01*
X82960995Y-113470500D02*
X83246710Y-113613357D01*
X83246710Y-113613357D02*
X83532424Y-113613357D01*
X119841948Y-71649687D02*
X119841948Y-69149687D01*
X119841948Y-70340163D02*
X121270519Y-70340163D01*
X121270519Y-71649687D02*
X121270519Y-69149687D01*
X122818138Y-71649687D02*
X122580043Y-71530640D01*
X122580043Y-71530640D02*
X122460996Y-71411592D01*
X122460996Y-71411592D02*
X122341948Y-71173497D01*
X122341948Y-71173497D02*
X122341948Y-70459211D01*
X122341948Y-70459211D02*
X122460996Y-70221116D01*
X122460996Y-70221116D02*
X122580043Y-70102068D01*
X122580043Y-70102068D02*
X122818138Y-69983020D01*
X122818138Y-69983020D02*
X123175281Y-69983020D01*
X123175281Y-69983020D02*
X123413377Y-70102068D01*
X123413377Y-70102068D02*
X123532424Y-70221116D01*
X123532424Y-70221116D02*
X123651472Y-70459211D01*
X123651472Y-70459211D02*
X123651472Y-71173497D01*
X123651472Y-71173497D02*
X123532424Y-71411592D01*
X123532424Y-71411592D02*
X123413377Y-71530640D01*
X123413377Y-71530640D02*
X123175281Y-71649687D01*
X123175281Y-71649687D02*
X122818138Y-71649687D01*
X125080043Y-71649687D02*
X124841948Y-71530640D01*
X124841948Y-71530640D02*
X124722901Y-71292544D01*
X124722901Y-71292544D02*
X124722901Y-69149687D01*
X127103853Y-71649687D02*
X127103853Y-69149687D01*
X127103853Y-71530640D02*
X126865758Y-71649687D01*
X126865758Y-71649687D02*
X126389567Y-71649687D01*
X126389567Y-71649687D02*
X126151472Y-71530640D01*
X126151472Y-71530640D02*
X126032425Y-71411592D01*
X126032425Y-71411592D02*
X125913377Y-71173497D01*
X125913377Y-71173497D02*
X125913377Y-70459211D01*
X125913377Y-70459211D02*
X126032425Y-70221116D01*
X126032425Y-70221116D02*
X126151472Y-70102068D01*
X126151472Y-70102068D02*
X126389567Y-69983020D01*
X126389567Y-69983020D02*
X126865758Y-69983020D01*
X126865758Y-69983020D02*
X127103853Y-70102068D01*
X120318138Y-73174547D02*
X120794329Y-73174547D01*
X120794329Y-73174547D02*
X121032424Y-73293595D01*
X121032424Y-73293595D02*
X121270519Y-73531690D01*
X121270519Y-73531690D02*
X121389567Y-74007880D01*
X121389567Y-74007880D02*
X121389567Y-74841214D01*
X121389567Y-74841214D02*
X121270519Y-75317404D01*
X121270519Y-75317404D02*
X121032424Y-75555500D01*
X121032424Y-75555500D02*
X120794329Y-75674547D01*
X120794329Y-75674547D02*
X120318138Y-75674547D01*
X120318138Y-75674547D02*
X120080043Y-75555500D01*
X120080043Y-75555500D02*
X119841948Y-75317404D01*
X119841948Y-75317404D02*
X119722900Y-74841214D01*
X119722900Y-74841214D02*
X119722900Y-74007880D01*
X119722900Y-74007880D02*
X119841948Y-73531690D01*
X119841948Y-73531690D02*
X120080043Y-73293595D01*
X120080043Y-73293595D02*
X120318138Y-73174547D01*
X122460996Y-75674547D02*
X122460996Y-73174547D01*
X122460996Y-73174547D02*
X123889567Y-75674547D01*
X123889567Y-75674547D02*
X123889567Y-73174547D01*
X126865758Y-73055500D02*
X124722901Y-76269785D01*
X128175282Y-73174547D02*
X128651473Y-73174547D01*
X128651473Y-73174547D02*
X128889568Y-73293595D01*
X128889568Y-73293595D02*
X129127663Y-73531690D01*
X129127663Y-73531690D02*
X129246711Y-74007880D01*
X129246711Y-74007880D02*
X129246711Y-74841214D01*
X129246711Y-74841214D02*
X129127663Y-75317404D01*
X129127663Y-75317404D02*
X128889568Y-75555500D01*
X128889568Y-75555500D02*
X128651473Y-75674547D01*
X128651473Y-75674547D02*
X128175282Y-75674547D01*
X128175282Y-75674547D02*
X127937187Y-75555500D01*
X127937187Y-75555500D02*
X127699092Y-75317404D01*
X127699092Y-75317404D02*
X127580044Y-74841214D01*
X127580044Y-74841214D02*
X127580044Y-74007880D01*
X127580044Y-74007880D02*
X127699092Y-73531690D01*
X127699092Y-73531690D02*
X127937187Y-73293595D01*
X127937187Y-73293595D02*
X128175282Y-73174547D01*
X131151473Y-74365023D02*
X130318140Y-74365023D01*
X130318140Y-75674547D02*
X130318140Y-73174547D01*
X130318140Y-73174547D02*
X131508616Y-73174547D01*
X133294330Y-74365023D02*
X132460997Y-74365023D01*
X132460997Y-75674547D02*
X132460997Y-73174547D01*
X132460997Y-73174547D02*
X133651473Y-73174547D01*
D11*
X85340225Y-93692019D02*
X84673558Y-93692019D01*
X84673558Y-94739638D02*
X84673558Y-92739638D01*
X84673558Y-92739638D02*
X85625939Y-92739638D01*
X86673558Y-93596780D02*
X86483082Y-93501542D01*
X86483082Y-93501542D02*
X86387844Y-93406304D01*
X86387844Y-93406304D02*
X86292606Y-93215828D01*
X86292606Y-93215828D02*
X86292606Y-93120590D01*
X86292606Y-93120590D02*
X86387844Y-92930114D01*
X86387844Y-92930114D02*
X86483082Y-92834876D01*
X86483082Y-92834876D02*
X86673558Y-92739638D01*
X86673558Y-92739638D02*
X87054511Y-92739638D01*
X87054511Y-92739638D02*
X87244987Y-92834876D01*
X87244987Y-92834876D02*
X87340225Y-92930114D01*
X87340225Y-92930114D02*
X87435463Y-93120590D01*
X87435463Y-93120590D02*
X87435463Y-93215828D01*
X87435463Y-93215828D02*
X87340225Y-93406304D01*
X87340225Y-93406304D02*
X87244987Y-93501542D01*
X87244987Y-93501542D02*
X87054511Y-93596780D01*
X87054511Y-93596780D02*
X86673558Y-93596780D01*
X86673558Y-93596780D02*
X86483082Y-93692019D01*
X86483082Y-93692019D02*
X86387844Y-93787257D01*
X86387844Y-93787257D02*
X86292606Y-93977733D01*
X86292606Y-93977733D02*
X86292606Y-94358685D01*
X86292606Y-94358685D02*
X86387844Y-94549161D01*
X86387844Y-94549161D02*
X86483082Y-94644400D01*
X86483082Y-94644400D02*
X86673558Y-94739638D01*
X86673558Y-94739638D02*
X87054511Y-94739638D01*
X87054511Y-94739638D02*
X87244987Y-94644400D01*
X87244987Y-94644400D02*
X87340225Y-94549161D01*
X87340225Y-94549161D02*
X87435463Y-94358685D01*
X87435463Y-94358685D02*
X87435463Y-93977733D01*
X87435463Y-93977733D02*
X87340225Y-93787257D01*
X87340225Y-93787257D02*
X87244987Y-93692019D01*
X87244987Y-93692019D02*
X87054511Y-93596780D01*
D13*
%TO.C,C313*%
X95640000Y-57782164D02*
X95640000Y-57997836D01*
X96360000Y-57782164D02*
X96360000Y-57997836D01*
%TO.C,C304*%
X131640000Y-109277836D02*
X131640000Y-109062164D01*
X132360000Y-109277836D02*
X132360000Y-109062164D01*
%TO.C,SW304*%
X189800000Y-81400000D02*
X191400000Y-79850000D01*
X189800000Y-82550000D02*
X189800000Y-81400000D01*
X189800000Y-84450000D02*
X189800000Y-87550000D01*
X189800000Y-89450000D02*
X189800000Y-90600000D01*
X189800000Y-90600000D02*
X191400000Y-92150000D01*
X191400000Y-79850000D02*
X200600000Y-79850000D01*
X191400000Y-92150000D02*
X200600000Y-92150000D01*
X200600000Y-79850000D02*
X202200000Y-81400000D01*
X200600000Y-92150000D02*
X202200000Y-90600000D01*
X202200000Y-82550000D02*
X202200000Y-81400000D01*
X202200000Y-84450000D02*
X202200000Y-87550000D01*
X202200000Y-89450000D02*
X202200000Y-90600000D01*
%TO.C,C305*%
X133140000Y-109277836D02*
X133140000Y-109062164D01*
X133860000Y-109277836D02*
X133860000Y-109062164D01*
%TO.C,R302*%
X190600000Y-70273641D02*
X190600000Y-69966359D01*
X191360000Y-70273641D02*
X191360000Y-69966359D01*
%TO.C,C312*%
X205640000Y-86782164D02*
X205640000Y-86997836D01*
X206360000Y-86782164D02*
X206360000Y-86997836D01*
%TO.C,C203*%
X123040000Y-50892164D02*
X123040000Y-51107836D01*
X123760000Y-50892164D02*
X123760000Y-51107836D01*
%TO.C,C301*%
X143357836Y-108490000D02*
X143142164Y-108490000D01*
X143357836Y-109210000D02*
X143142164Y-109210000D01*
%TO.C,C303*%
X130140000Y-109277836D02*
X130140000Y-109062164D01*
X130860000Y-109277836D02*
X130860000Y-109062164D01*
%TO.C,R205*%
X157168641Y-119120000D02*
X156861359Y-119120000D01*
X157168641Y-119880000D02*
X156861359Y-119880000D01*
%TO.C,R307*%
X90620000Y-70273641D02*
X90620000Y-69966359D01*
X91380000Y-70273641D02*
X91380000Y-69966359D01*
%TO.C,C316*%
X95640000Y-87097164D02*
X95640000Y-87312836D01*
X96360000Y-87097164D02*
X96360000Y-87312836D01*
%TO.C,SW307*%
X94800000Y-66400000D02*
X96400000Y-64850000D01*
X94800000Y-67550000D02*
X94800000Y-66400000D01*
X94800000Y-69450000D02*
X94800000Y-72550000D01*
X94800000Y-74450000D02*
X94800000Y-75600000D01*
X94800000Y-75600000D02*
X96400000Y-77150000D01*
X96400000Y-64850000D02*
X105600000Y-64850000D01*
X96400000Y-77150000D02*
X105600000Y-77150000D01*
X105600000Y-64850000D02*
X107200000Y-66400000D01*
X105600000Y-77150000D02*
X107200000Y-75600000D01*
X107200000Y-67550000D02*
X107200000Y-66400000D01*
X107200000Y-69450000D02*
X107200000Y-72550000D01*
X107200000Y-74450000D02*
X107200000Y-75600000D01*
%TO.C,R301*%
X185620000Y-55273641D02*
X185620000Y-54966359D01*
X186380000Y-55273641D02*
X186380000Y-54966359D01*
%TO.C,C314*%
X80360000Y-72372164D02*
X80360000Y-72587836D01*
X81080000Y-72372164D02*
X81080000Y-72587836D01*
%TO.C,Q103*%
X124627500Y-116600000D02*
X124627500Y-115950000D01*
X124627500Y-116600000D02*
X124627500Y-117250000D01*
X127747500Y-116600000D02*
X127747500Y-115950000D01*
X127747500Y-116600000D02*
X127747500Y-117250000D01*
X128027500Y-115677500D02*
X127697500Y-115437500D01*
X128027500Y-115197500D01*
X128027500Y-115677500D01*
G36*
X128027500Y-115677500D02*
G01*
X127697500Y-115437500D01*
X128027500Y-115197500D01*
X128027500Y-115677500D01*
G37*
%TO.C,C201*%
X127190000Y-48440580D02*
X127190000Y-48159420D01*
X128210000Y-48440580D02*
X128210000Y-48159420D01*
%TO.C,C315*%
X90640000Y-72412164D02*
X90640000Y-72627836D01*
X91360000Y-72412164D02*
X91360000Y-72627836D01*
%TO.C,C113*%
X121707836Y-113777500D02*
X121492164Y-113777500D01*
X121707836Y-114497500D02*
X121492164Y-114497500D01*
%TO.C,C309*%
X185640000Y-57412164D02*
X185640000Y-57627836D01*
X186360000Y-57412164D02*
X186360000Y-57627836D01*
%TO.C,SW303*%
X204800000Y-66400000D02*
X206400000Y-64850000D01*
X204800000Y-67550000D02*
X204800000Y-66400000D01*
X204800000Y-69450000D02*
X204800000Y-72550000D01*
X204800000Y-74450000D02*
X204800000Y-75600000D01*
X204800000Y-75600000D02*
X206400000Y-77150000D01*
X206400000Y-64850000D02*
X215600000Y-64850000D01*
X206400000Y-77150000D02*
X215600000Y-77150000D01*
X215600000Y-64850000D02*
X217200000Y-66400000D01*
X215600000Y-77150000D02*
X217200000Y-75600000D01*
X217200000Y-67550000D02*
X217200000Y-66400000D01*
X217200000Y-69450000D02*
X217200000Y-72550000D01*
X217200000Y-74450000D02*
X217200000Y-75600000D01*
%TO.C,U104*%
X121600000Y-115077500D02*
X120800000Y-115077500D01*
X121600000Y-115077500D02*
X122400000Y-115077500D01*
X121600000Y-118197500D02*
X120800000Y-118197500D01*
X121600000Y-118197500D02*
X122400000Y-118197500D01*
X120300000Y-115127500D02*
X120060000Y-114797500D01*
X120540000Y-114797500D01*
X120300000Y-115127500D01*
G36*
X120300000Y-115127500D02*
G01*
X120060000Y-114797500D01*
X120540000Y-114797500D01*
X120300000Y-115127500D01*
G37*
%TO.C,U203*%
X152405000Y-114625000D02*
X152405000Y-112675000D01*
X152405000Y-114625000D02*
X152405000Y-116575000D01*
X162525000Y-114625000D02*
X162525000Y-112675000D01*
X162525000Y-114625000D02*
X162525000Y-116575000D01*
X162800000Y-112165000D02*
X162470000Y-111925000D01*
X162800000Y-111685000D01*
X162800000Y-112165000D01*
G36*
X162800000Y-112165000D02*
G01*
X162470000Y-111925000D01*
X162800000Y-111685000D01*
X162800000Y-112165000D01*
G37*
%TO.C,SW201*%
X119300000Y-52700000D02*
X119300000Y-59100000D01*
X119300000Y-59100000D02*
X120500000Y-59100000D01*
X120500000Y-52700000D02*
X119300000Y-52700000D01*
X122100000Y-59100000D02*
X123300000Y-59100000D01*
X123300000Y-52700000D02*
X122100000Y-52700000D01*
X123300000Y-59100000D02*
X123300000Y-52700000D01*
%TO.C,C310*%
X190640000Y-72412164D02*
X190640000Y-72627836D01*
X191360000Y-72412164D02*
X191360000Y-72627836D01*
%TO.C,C111*%
X121707836Y-118677500D02*
X121492164Y-118677500D01*
X121707836Y-119397500D02*
X121492164Y-119397500D01*
D14*
%TO.C,JS302*%
X169900000Y-104100000D02*
X173050000Y-104100000D01*
X169900000Y-113900000D02*
X169900000Y-104100000D01*
X173050000Y-113900000D02*
X169900000Y-113900000D01*
X173050000Y-114170000D02*
X173050000Y-113900000D01*
X174930000Y-101000000D02*
X175550000Y-101000000D01*
X175550000Y-94700000D02*
X186450000Y-94700000D01*
X175550000Y-101000000D02*
X175550000Y-94700000D01*
X176150000Y-116900000D02*
X174930000Y-116900000D01*
X176150000Y-120100000D02*
X176150000Y-116900000D01*
X185850000Y-116900000D02*
X185850000Y-120100000D01*
X186450000Y-94700000D02*
X186450000Y-101000000D01*
X186450000Y-101000000D02*
X187080000Y-101000000D01*
X187080000Y-116900000D02*
X185850000Y-116900000D01*
X188950000Y-104900000D02*
X190500000Y-104900000D01*
X188950000Y-113000000D02*
X188950000Y-114120000D01*
X190500000Y-104900000D02*
X190500000Y-113000000D01*
X190500000Y-113000000D02*
X188950000Y-113000000D01*
D15*
X175050000Y-95650000D02*
G75*
G02*
X174850000Y-95650000I-100000J0D01*
G01*
X174850000Y-95650000D02*
G75*
G02*
X175050000Y-95650000I100000J0D01*
G01*
D13*
%TO.C,R202*%
X134017258Y-117240000D02*
X133542742Y-117240000D01*
X134017258Y-118285000D02*
X133542742Y-118285000D01*
%TO.C,R306*%
X80340000Y-70233641D02*
X80340000Y-69926359D01*
X81100000Y-70233641D02*
X81100000Y-69926359D01*
%TO.C,U301*%
X128500000Y-108682500D02*
X129000000Y-108182500D01*
X129000000Y-108182500D02*
X129500000Y-108682500D01*
X129500000Y-108682500D02*
X128500000Y-108682500D01*
X120190000Y-83422500D02*
X161810000Y-83422500D01*
X161810000Y-107942500D01*
X120190000Y-107942500D01*
X120190000Y-83422500D01*
%TO.C,R308*%
X95620000Y-84958641D02*
X95620000Y-84651359D01*
X96380000Y-84958641D02*
X96380000Y-84651359D01*
%TO.C,R104*%
X155677500Y-75192742D02*
X155677500Y-75667258D01*
X156722500Y-75192742D02*
X156722500Y-75667258D01*
%TO.C,J201*%
X136310000Y-121005000D02*
X136310000Y-119305000D01*
X145650000Y-121005000D02*
X145650000Y-119305000D01*
%TO.C,Q202*%
X164560000Y-119140000D02*
X163910000Y-119140000D01*
X164560000Y-119140000D02*
X165210000Y-119140000D01*
X164560000Y-122260000D02*
X163910000Y-122260000D01*
X164560000Y-122260000D02*
X165210000Y-122260000D01*
X165962500Y-122540000D02*
X165482500Y-122540000D01*
X165722500Y-122210000D01*
X165962500Y-122540000D01*
G36*
X165962500Y-122540000D02*
G01*
X165482500Y-122540000D01*
X165722500Y-122210000D01*
X165962500Y-122540000D01*
G37*
%TO.C,SW101*%
X134800000Y-69850000D02*
X134800000Y-68700000D01*
X134800000Y-74850000D02*
X134800000Y-71750000D01*
X134800000Y-76750000D02*
X134800000Y-77900000D01*
X136400000Y-67150000D02*
X134800000Y-68700000D01*
X136400000Y-79450000D02*
X134800000Y-77900000D01*
X145600000Y-67150000D02*
X136400000Y-67150000D01*
X145600000Y-79450000D02*
X136400000Y-79450000D01*
X147200000Y-68700000D02*
X145600000Y-67150000D01*
X147200000Y-69850000D02*
X147200000Y-68700000D01*
X147200000Y-74850000D02*
X147200000Y-71750000D01*
X147200000Y-76750000D02*
X147200000Y-77900000D01*
X147200000Y-77900000D02*
X145600000Y-79450000D01*
%TO.C,C308*%
X140142164Y-108490000D02*
X140357836Y-108490000D01*
X140142164Y-109210000D02*
X140357836Y-109210000D01*
%TO.C,C306*%
X134640000Y-109277836D02*
X134640000Y-109062164D01*
X135360000Y-109277836D02*
X135360000Y-109062164D01*
%TO.C,R303*%
X200620000Y-70233641D02*
X200620000Y-69926359D01*
X201380000Y-70233641D02*
X201380000Y-69926359D01*
%TO.C,R305*%
X95620000Y-55643641D02*
X95620000Y-55336359D01*
X96380000Y-55643641D02*
X96380000Y-55336359D01*
%TO.C,C307*%
X137132164Y-108490000D02*
X137347836Y-108490000D01*
X137132164Y-109210000D02*
X137347836Y-109210000D01*
D14*
%TO.C,JS301*%
X89900000Y-104100000D02*
X93050000Y-104100000D01*
X89900000Y-113900000D02*
X89900000Y-104100000D01*
X93050000Y-113900000D02*
X89900000Y-113900000D01*
X93050000Y-114170000D02*
X93050000Y-113900000D01*
X94930000Y-101000000D02*
X95550000Y-101000000D01*
X95550000Y-94700000D02*
X106450000Y-94700000D01*
X95550000Y-101000000D02*
X95550000Y-94700000D01*
X96150000Y-116900000D02*
X94930000Y-116900000D01*
X96150000Y-120100000D02*
X96150000Y-116900000D01*
X105850000Y-116900000D02*
X105850000Y-120100000D01*
X106450000Y-94700000D02*
X106450000Y-101000000D01*
X106450000Y-101000000D02*
X107080000Y-101000000D01*
X107080000Y-116900000D02*
X105850000Y-116900000D01*
X108950000Y-104900000D02*
X110500000Y-104900000D01*
X108950000Y-113000000D02*
X108950000Y-114120000D01*
X110500000Y-104900000D02*
X110500000Y-113000000D01*
X110500000Y-113000000D02*
X108950000Y-113000000D01*
D15*
X95050000Y-95650000D02*
G75*
G02*
X94850000Y-95650000I-100000J0D01*
G01*
X94850000Y-95650000D02*
G75*
G02*
X95050000Y-95650000I100000J0D01*
G01*
D13*
%TO.C,R201*%
X125820000Y-49846359D02*
X125820000Y-50153641D01*
X126580000Y-49846359D02*
X126580000Y-50153641D01*
%TO.C,C112*%
X122411252Y-111227500D02*
X120988748Y-111227500D01*
X122411252Y-113047500D02*
X120988748Y-113047500D01*
%TO.C,R204*%
X160196359Y-119120000D02*
X160503641Y-119120000D01*
X160196359Y-119880000D02*
X160503641Y-119880000D01*
%TO.C,SW306*%
X64800000Y-66400000D02*
X66400000Y-64850000D01*
X64800000Y-67550000D02*
X64800000Y-66400000D01*
X64800000Y-69450000D02*
X64800000Y-72550000D01*
X64800000Y-74450000D02*
X64800000Y-75600000D01*
X64800000Y-75600000D02*
X66400000Y-77150000D01*
X66400000Y-64850000D02*
X75600000Y-64850000D01*
X66400000Y-77150000D02*
X75600000Y-77150000D01*
X75600000Y-64850000D02*
X77200000Y-66400000D01*
X75600000Y-77150000D02*
X77200000Y-75600000D01*
X77200000Y-67550000D02*
X77200000Y-66400000D01*
X77200000Y-69450000D02*
X77200000Y-72550000D01*
X77200000Y-74450000D02*
X77200000Y-75600000D01*
%TO.C,SW302*%
X174800000Y-66400000D02*
X176400000Y-64850000D01*
X174800000Y-67550000D02*
X174800000Y-66400000D01*
X174800000Y-69450000D02*
X174800000Y-72550000D01*
X174800000Y-74450000D02*
X174800000Y-75600000D01*
X174800000Y-75600000D02*
X176400000Y-77150000D01*
X176400000Y-64850000D02*
X185600000Y-64850000D01*
X176400000Y-77150000D02*
X185600000Y-77150000D01*
X185600000Y-64850000D02*
X187200000Y-66400000D01*
X185600000Y-77150000D02*
X187200000Y-75600000D01*
X187200000Y-67550000D02*
X187200000Y-66400000D01*
X187200000Y-69450000D02*
X187200000Y-72550000D01*
X187200000Y-74450000D02*
X187200000Y-75600000D01*
%TO.C,C204*%
X124340000Y-50892164D02*
X124340000Y-51107836D01*
X125060000Y-50892164D02*
X125060000Y-51107836D01*
%TO.C,SW305*%
X79800000Y-51900000D02*
X81400000Y-50350000D01*
X79800000Y-53050000D02*
X79800000Y-51900000D01*
X79800000Y-54950000D02*
X79800000Y-58050000D01*
X79800000Y-59950000D02*
X79800000Y-61100000D01*
X79800000Y-61100000D02*
X81400000Y-62650000D01*
X81400000Y-50350000D02*
X90600000Y-50350000D01*
X81400000Y-62650000D02*
X90600000Y-62650000D01*
X90600000Y-50350000D02*
X92200000Y-51900000D01*
X90600000Y-62650000D02*
X92200000Y-61100000D01*
X92200000Y-53050000D02*
X92200000Y-51900000D01*
X92200000Y-54950000D02*
X92200000Y-58050000D01*
X92200000Y-59950000D02*
X92200000Y-61100000D01*
%TO.C,SW301*%
X189800000Y-51900000D02*
X191400000Y-50350000D01*
X189800000Y-53050000D02*
X189800000Y-51900000D01*
X189800000Y-54950000D02*
X189800000Y-58050000D01*
X189800000Y-59950000D02*
X189800000Y-61100000D01*
X189800000Y-61100000D02*
X191400000Y-62650000D01*
X191400000Y-50350000D02*
X200600000Y-50350000D01*
X191400000Y-62650000D02*
X200600000Y-62650000D01*
X200600000Y-50350000D02*
X202200000Y-51900000D01*
X200600000Y-62650000D02*
X202200000Y-61100000D01*
X202200000Y-53050000D02*
X202200000Y-51900000D01*
X202200000Y-54950000D02*
X202200000Y-58050000D01*
X202200000Y-59950000D02*
X202200000Y-61100000D01*
%TO.C,C302*%
X127062164Y-108440000D02*
X127277836Y-108440000D01*
X127062164Y-109160000D02*
X127277836Y-109160000D01*
%TO.C,SW308*%
X79800000Y-81400000D02*
X81400000Y-79850000D01*
X79800000Y-82550000D02*
X79800000Y-81400000D01*
X79800000Y-84450000D02*
X79800000Y-87550000D01*
X79800000Y-89450000D02*
X79800000Y-90600000D01*
X79800000Y-90600000D02*
X81400000Y-92150000D01*
X81400000Y-79850000D02*
X90600000Y-79850000D01*
X81400000Y-92150000D02*
X90600000Y-92150000D01*
X90600000Y-79850000D02*
X92200000Y-81400000D01*
X90600000Y-92150000D02*
X92200000Y-90600000D01*
X92200000Y-82550000D02*
X92200000Y-81400000D01*
X92200000Y-84450000D02*
X92200000Y-87550000D01*
X92200000Y-89450000D02*
X92200000Y-90600000D01*
%TO.C,U202*%
X130960000Y-39570000D02*
X130960000Y-45730000D01*
X130960000Y-39570000D02*
X149200000Y-39570000D01*
X130960000Y-64530000D02*
X130960000Y-65310000D01*
X130960000Y-65310000D02*
X131960000Y-65310000D01*
X149200000Y-39570000D02*
X149200000Y-45985000D01*
X149200000Y-64530000D02*
X149200000Y-65310000D01*
X149200000Y-65310000D02*
X148200000Y-65310000D01*
X130955000Y-46455000D02*
X130455000Y-46455000D01*
X130955000Y-45955000D01*
X130955000Y-46455000D01*
G36*
X130955000Y-46455000D02*
G01*
X130455000Y-46455000D01*
X130955000Y-45955000D01*
X130955000Y-46455000D01*
G37*
%TO.C,Q201*%
X152722500Y-119190000D02*
X152072500Y-119190000D01*
X152722500Y-119190000D02*
X153372500Y-119190000D01*
X152722500Y-122310000D02*
X152072500Y-122310000D01*
X152722500Y-122310000D02*
X153372500Y-122310000D01*
X154125000Y-122590000D02*
X153645000Y-122590000D01*
X153885000Y-122260000D01*
X154125000Y-122590000D01*
G36*
X154125000Y-122590000D02*
G01*
X153645000Y-122590000D01*
X153885000Y-122260000D01*
X154125000Y-122590000D01*
G37*
%TO.C,D102*%
X155465000Y-70575000D02*
X155465000Y-72860000D01*
X155465000Y-72860000D02*
X156935000Y-72860000D01*
X156935000Y-72860000D02*
X156935000Y-70575000D01*
%TO.C,C206*%
X163405000Y-114832836D02*
X163405000Y-114617164D01*
X164125000Y-114832836D02*
X164125000Y-114617164D01*
%TO.C,C311*%
X200640000Y-72372164D02*
X200640000Y-72587836D01*
X201360000Y-72372164D02*
X201360000Y-72587836D01*
%TO.C,R203*%
X147742742Y-117240000D02*
X148217258Y-117240000D01*
X147742742Y-118285000D02*
X148217258Y-118285000D01*
%TO.C,C202*%
X128840000Y-48007836D02*
X128840000Y-47792164D01*
X129560000Y-48007836D02*
X129560000Y-47792164D01*
%TO.C,R304*%
X205620000Y-84643641D02*
X205620000Y-84336359D01*
X206380000Y-84643641D02*
X206380000Y-84336359D01*
%TO.C,U201*%
X139420000Y-112750000D02*
X139420000Y-111950000D01*
X139420000Y-112750000D02*
X139420000Y-113550000D01*
X142540000Y-112750000D02*
X142540000Y-111950000D01*
X142540000Y-112750000D02*
X142540000Y-113550000D01*
X139470000Y-114050000D02*
X139140000Y-114290000D01*
X139140000Y-113810000D01*
X139470000Y-114050000D01*
G36*
X139470000Y-114050000D02*
G01*
X139140000Y-114290000D01*
X139140000Y-113810000D01*
X139470000Y-114050000D01*
G37*
%TD*%
%LPC*%
D16*
%TO.C,H4*%
X213000000Y-117000000D03*
%TD*%
%TO.C,H3*%
X69000000Y-117000000D03*
%TD*%
%TO.C,H2*%
X98000000Y-50000000D03*
%TD*%
%TO.C,H1*%
X184000000Y-50000000D03*
%TD*%
D17*
%TO.C,C313*%
X96000000Y-57410000D03*
X96000000Y-58370000D03*
%TD*%
D18*
%TO.C,C304*%
X132000000Y-109650000D03*
X132000000Y-108690000D03*
%TD*%
D16*
%TO.C,SW304*%
X196000000Y-81500000D03*
X196000000Y-90500000D03*
D19*
X188850000Y-83500000D03*
X203150000Y-83500000D03*
X188850000Y-88500000D03*
X203150000Y-88500000D03*
%TD*%
D18*
%TO.C,C305*%
X133500000Y-109650000D03*
X133500000Y-108690000D03*
%TD*%
D20*
%TO.C,R302*%
X190980000Y-70630000D03*
X190980000Y-69610000D03*
%TD*%
D17*
%TO.C,C312*%
X206000000Y-86410000D03*
X206000000Y-87370000D03*
%TD*%
%TO.C,C203*%
X123400000Y-50520000D03*
X123400000Y-51480000D03*
%TD*%
D21*
%TO.C,C301*%
X143730000Y-108850000D03*
X142770000Y-108850000D03*
%TD*%
D18*
%TO.C,C303*%
X130500000Y-109650000D03*
X130500000Y-108690000D03*
%TD*%
D22*
%TO.C,R205*%
X157525000Y-119500000D03*
X156505000Y-119500000D03*
%TD*%
D20*
%TO.C,R307*%
X91000000Y-70630000D03*
X91000000Y-69610000D03*
%TD*%
D17*
%TO.C,C316*%
X96000000Y-86725000D03*
X96000000Y-87685000D03*
%TD*%
D16*
%TO.C,SW307*%
X101000000Y-66500000D03*
X101000000Y-75500000D03*
D19*
X93850000Y-68500000D03*
X108150000Y-68500000D03*
X93850000Y-73500000D03*
X108150000Y-73500000D03*
%TD*%
D20*
%TO.C,R301*%
X186000000Y-55630000D03*
X186000000Y-54610000D03*
%TD*%
D17*
%TO.C,C314*%
X80720000Y-72000000D03*
X80720000Y-72960000D03*
%TD*%
D23*
%TO.C,Q103*%
X127137500Y-115662500D03*
X125237500Y-115662500D03*
X126187500Y-117537500D03*
%TD*%
D24*
%TO.C,C201*%
X127700000Y-49075000D03*
X127700000Y-47525000D03*
%TD*%
D17*
%TO.C,C315*%
X91000000Y-72040000D03*
X91000000Y-73000000D03*
%TD*%
D21*
%TO.C,C113*%
X122080000Y-114137500D03*
X121120000Y-114137500D03*
%TD*%
D17*
%TO.C,C309*%
X186000000Y-57040000D03*
X186000000Y-58000000D03*
%TD*%
D16*
%TO.C,SW303*%
X211000000Y-66500000D03*
X211000000Y-75500000D03*
D19*
X203850000Y-68500000D03*
X218150000Y-68500000D03*
X203850000Y-73500000D03*
X218150000Y-73500000D03*
%TD*%
D25*
%TO.C,U104*%
X120462500Y-115687500D03*
X120462500Y-116637500D03*
X120462500Y-117587500D03*
X122737500Y-117587500D03*
X122737500Y-116637500D03*
X122737500Y-115687500D03*
%TD*%
D26*
%TO.C,U203*%
X161910000Y-112150000D03*
X160640000Y-112150000D03*
X159370000Y-112150000D03*
X158100000Y-112150000D03*
X156830000Y-112150000D03*
X155560000Y-112150000D03*
X154290000Y-112150000D03*
X153020000Y-112150000D03*
X153020000Y-117100000D03*
X154290000Y-117100000D03*
X155560000Y-117100000D03*
X156830000Y-117100000D03*
X158100000Y-117100000D03*
X159370000Y-117100000D03*
X160640000Y-117100000D03*
X161910000Y-117100000D03*
%TD*%
D27*
%TO.C,SW201*%
X121300000Y-59775000D03*
X121300000Y-52025000D03*
%TD*%
D17*
%TO.C,C310*%
X191000000Y-72040000D03*
X191000000Y-73000000D03*
%TD*%
D21*
%TO.C,C111*%
X122080000Y-119037500D03*
X121120000Y-119037500D03*
%TD*%
D28*
%TO.C,JS302*%
X177825000Y-96300000D03*
X184175000Y-96300000D03*
X177825000Y-101380000D03*
X184175000Y-101380000D03*
X178460000Y-119160000D03*
X181000000Y-119160000D03*
X183540000Y-119160000D03*
D29*
X173380000Y-102332500D03*
X173380000Y-115667500D03*
X188620000Y-115667500D03*
X188620000Y-102332500D03*
D28*
X170840000Y-106460000D03*
X170840000Y-109000000D03*
X170840000Y-111540000D03*
%TD*%
D30*
%TO.C,R202*%
X134605000Y-117762500D03*
X132955000Y-117762500D03*
%TD*%
D20*
%TO.C,R306*%
X80720000Y-70590000D03*
X80720000Y-69570000D03*
%TD*%
D31*
%TO.C,U301*%
X120900000Y-84132500D03*
X120900000Y-107232500D03*
X161100000Y-84132500D03*
X161100000Y-107232500D03*
D32*
X129000000Y-107082500D03*
D33*
X130500000Y-107082500D03*
X132000000Y-107082500D03*
X133500000Y-107082500D03*
X135000000Y-107082500D03*
X136500000Y-107082500D03*
X138000000Y-107082500D03*
X139500000Y-107082500D03*
X141000000Y-107082500D03*
X142500000Y-107082500D03*
X144000000Y-107082500D03*
X145500000Y-107082500D03*
X147000000Y-107082500D03*
X148500000Y-107082500D03*
X150000000Y-107082500D03*
X151500000Y-107082500D03*
X153000000Y-107082500D03*
D34*
X123700000Y-105282500D03*
X158300000Y-105282500D03*
%TD*%
D20*
%TO.C,R308*%
X96000000Y-85315000D03*
X96000000Y-84295000D03*
%TD*%
D35*
%TO.C,R104*%
X156200000Y-74605000D03*
X156200000Y-76255000D03*
%TD*%
D36*
%TO.C,J201*%
X138090000Y-118500000D03*
X143870000Y-118500000D03*
D37*
X137780000Y-117425000D03*
X138580000Y-117425000D03*
D38*
X139730000Y-117425000D03*
X140730000Y-117425000D03*
X141230000Y-117425000D03*
X142230000Y-117425000D03*
D37*
X143380000Y-117425000D03*
X144180000Y-117425000D03*
X144180000Y-117425000D03*
X143380000Y-117425000D03*
D38*
X142730000Y-117425000D03*
X141730000Y-117425000D03*
X140230000Y-117425000D03*
X139230000Y-117425000D03*
D37*
X138580000Y-117425000D03*
X137780000Y-117425000D03*
D39*
X136660000Y-118000000D03*
D40*
X136660000Y-122180000D03*
D39*
X145300000Y-118000000D03*
D40*
X145300000Y-122180000D03*
%TD*%
D41*
%TO.C,Q202*%
X165497500Y-121650000D03*
X165497500Y-119750000D03*
X163622500Y-120700000D03*
%TD*%
D16*
%TO.C,SW101*%
X141000000Y-77800000D03*
X141000000Y-68800000D03*
D19*
X148150000Y-75800000D03*
X133850000Y-75800000D03*
X148150000Y-70800000D03*
X133850000Y-70800000D03*
%TD*%
D42*
%TO.C,C308*%
X139770000Y-108850000D03*
X140730000Y-108850000D03*
%TD*%
D18*
%TO.C,C306*%
X135000000Y-109650000D03*
X135000000Y-108690000D03*
%TD*%
D20*
%TO.C,R303*%
X201000000Y-70590000D03*
X201000000Y-69570000D03*
%TD*%
%TO.C,R305*%
X96000000Y-56000000D03*
X96000000Y-54980000D03*
%TD*%
D42*
%TO.C,C307*%
X136760000Y-108850000D03*
X137720000Y-108850000D03*
%TD*%
D28*
%TO.C,JS301*%
X97825000Y-96300000D03*
X104175000Y-96300000D03*
X97825000Y-101380000D03*
X104175000Y-101380000D03*
X98460000Y-119160000D03*
X101000000Y-119160000D03*
X103540000Y-119160000D03*
D29*
X93380000Y-102332500D03*
X93380000Y-115667500D03*
X108620000Y-115667500D03*
X108620000Y-102332500D03*
D28*
X90840000Y-106460000D03*
X90840000Y-109000000D03*
X90840000Y-111540000D03*
%TD*%
D43*
%TO.C,R201*%
X126200000Y-49490000D03*
X126200000Y-50510000D03*
%TD*%
D44*
%TO.C,C112*%
X123175000Y-112137500D03*
X120225000Y-112137500D03*
%TD*%
D45*
%TO.C,R204*%
X159840000Y-119500000D03*
X160860000Y-119500000D03*
%TD*%
D16*
%TO.C,SW306*%
X71000000Y-66500000D03*
X71000000Y-75500000D03*
D19*
X63850000Y-68500000D03*
X78150000Y-68500000D03*
X63850000Y-73500000D03*
X78150000Y-73500000D03*
%TD*%
D16*
%TO.C,SW302*%
X181000000Y-66500000D03*
X181000000Y-75500000D03*
D19*
X173850000Y-68500000D03*
X188150000Y-68500000D03*
X173850000Y-73500000D03*
X188150000Y-73500000D03*
%TD*%
D17*
%TO.C,C204*%
X124700000Y-50520000D03*
X124700000Y-51480000D03*
%TD*%
D16*
%TO.C,SW305*%
X86000000Y-52000000D03*
X86000000Y-61000000D03*
D19*
X78850000Y-54000000D03*
X93150000Y-54000000D03*
X78850000Y-59000000D03*
X93150000Y-59000000D03*
%TD*%
D16*
%TO.C,SW301*%
X196000000Y-52000000D03*
X196000000Y-61000000D03*
D19*
X188850000Y-54000000D03*
X203150000Y-54000000D03*
X188850000Y-59000000D03*
X203150000Y-59000000D03*
%TD*%
D42*
%TO.C,C302*%
X126690000Y-108800000D03*
X127650000Y-108800000D03*
%TD*%
D16*
%TO.C,SW308*%
X86000000Y-81500000D03*
X86000000Y-90500000D03*
D19*
X78850000Y-83500000D03*
X93150000Y-83500000D03*
X78850000Y-88500000D03*
X93150000Y-88500000D03*
%TD*%
D46*
%TO.C,U202*%
X131330000Y-47180000D03*
X131330000Y-48450000D03*
X131330000Y-49720000D03*
X131330000Y-50990000D03*
X131330000Y-52260000D03*
X131330000Y-53530000D03*
X131330000Y-54800000D03*
X131330000Y-56070000D03*
X131330000Y-57340000D03*
X131330000Y-58610000D03*
X131330000Y-59880000D03*
X131330000Y-61150000D03*
X131330000Y-62420000D03*
X131330000Y-63690000D03*
D47*
X134370000Y-64940000D03*
X135640000Y-64940000D03*
X136910000Y-64940000D03*
X138180000Y-64940000D03*
X139450000Y-64940000D03*
X140720000Y-64940000D03*
X141990000Y-64940000D03*
X143260000Y-64940000D03*
X144530000Y-64940000D03*
X145800000Y-64940000D03*
D46*
X148830000Y-63690000D03*
X148830000Y-62420000D03*
X148830000Y-61150000D03*
X148830000Y-59880000D03*
X148830000Y-58610000D03*
X148830000Y-57340000D03*
X148830000Y-56070000D03*
X148830000Y-54800000D03*
X148830000Y-53530000D03*
X148830000Y-52260000D03*
X148830000Y-50990000D03*
X148830000Y-49720000D03*
X148830000Y-48450000D03*
X148830000Y-47180000D03*
D48*
X137180000Y-54200000D03*
X137180000Y-55600000D03*
X137880000Y-53500000D03*
X137880000Y-54900000D03*
X137880000Y-56300000D03*
X138555000Y-54200000D03*
X138555000Y-55600000D03*
D49*
X138580000Y-54900000D03*
D48*
X139280000Y-53500000D03*
X139280000Y-54900000D03*
X139280000Y-56300000D03*
X139980000Y-54200000D03*
X139980000Y-55600000D03*
%TD*%
D41*
%TO.C,Q201*%
X153660000Y-121700000D03*
X153660000Y-119800000D03*
X151785000Y-120750000D03*
%TD*%
D50*
%TO.C,D102*%
X156200000Y-72162500D03*
X156200000Y-70587500D03*
%TD*%
D18*
%TO.C,C206*%
X163765000Y-115205000D03*
X163765000Y-114245000D03*
%TD*%
D17*
%TO.C,C311*%
X201000000Y-72000000D03*
X201000000Y-72960000D03*
%TD*%
D51*
%TO.C,R203*%
X147155000Y-117762500D03*
X148805000Y-117762500D03*
%TD*%
D18*
%TO.C,C202*%
X129200000Y-48380000D03*
X129200000Y-47420000D03*
%TD*%
D20*
%TO.C,R304*%
X206000000Y-85000000D03*
X206000000Y-83980000D03*
%TD*%
D52*
%TO.C,U201*%
X140030000Y-113887500D03*
X140980000Y-113887500D03*
X141930000Y-113887500D03*
X141930000Y-111612500D03*
X140980000Y-111612500D03*
X140030000Y-111612500D03*
%TD*%
D53*
%TO.C,BT101*%
X127770000Y-58865000D03*
X141260000Y-81215000D03*
X154740000Y-58865000D03*
D54*
X115480000Y-76485000D03*
D55*
X115480000Y-63605000D03*
%TD*%
%LPD*%
M02*
