%TF.GenerationSoftware,KiCad,Pcbnew,8.0.5*%
%TF.CreationDate,2025-03-17T19:25:21-04:00*%
%TF.ProjectId,Remote_Controller,52656d6f-7465-45f4-936f-6e74726f6c6c,rev?*%
%TF.SameCoordinates,Original*%
%TF.FileFunction,Soldermask,Top*%
%TF.FilePolarity,Negative*%
%FSLAX46Y46*%
G04 Gerber Fmt 4.6, Leading zero omitted, Abs format (unit mm)*
G04 Created by KiCad (PCBNEW 8.0.5) date 2025-03-17 19:25:21*
%MOMM*%
%LPD*%
G01*
G04 APERTURE LIST*
G04 Aperture macros list*
%AMRoundRect*
0 Rectangle with rounded corners*
0 $1 Rounding radius*
0 $2 $3 $4 $5 $6 $7 $8 $9 X,Y pos of 4 corners*
0 Add a 4 corners polygon primitive as box body*
4,1,4,$2,$3,$4,$5,$6,$7,$8,$9,$2,$3,0*
0 Add four circle primitives for the rounded corners*
1,1,$1+$1,$2,$3*
1,1,$1+$1,$4,$5*
1,1,$1+$1,$6,$7*
1,1,$1+$1,$8,$9*
0 Add four rect primitives between the rounded corners*
20,1,$1+$1,$2,$3,$4,$5,0*
20,1,$1+$1,$4,$5,$6,$7,0*
20,1,$1+$1,$6,$7,$8,$9,0*
20,1,$1+$1,$8,$9,$2,$3,0*%
G04 Aperture macros list end*
%ADD10RoundRect,0.140000X-0.170000X0.140000X-0.170000X-0.140000X0.170000X-0.140000X0.170000X0.140000X0*%
%ADD11RoundRect,0.140000X0.170000X-0.140000X0.170000X0.140000X-0.170000X0.140000X-0.170000X-0.140000X0*%
%ADD12C,2.000000*%
%ADD13R,2.000000X1.500000*%
%ADD14RoundRect,0.135000X0.185000X-0.135000X0.185000X0.135000X-0.185000X0.135000X-0.185000X-0.135000X0*%
%ADD15RoundRect,0.140000X0.140000X0.170000X-0.140000X0.170000X-0.140000X-0.170000X0.140000X-0.170000X0*%
%ADD16RoundRect,0.135000X0.135000X0.185000X-0.135000X0.185000X-0.135000X-0.185000X0.135000X-0.185000X0*%
%ADD17RoundRect,0.150000X-0.150000X0.587500X-0.150000X-0.587500X0.150000X-0.587500X0.150000X0.587500X0*%
%ADD18RoundRect,0.225000X0.250000X-0.225000X0.250000X0.225000X-0.250000X0.225000X-0.250000X-0.225000X0*%
%ADD19RoundRect,0.150000X-0.512500X-0.150000X0.512500X-0.150000X0.512500X0.150000X-0.512500X0.150000X0*%
%ADD20RoundRect,0.150000X-0.150000X0.825000X-0.150000X-0.825000X0.150000X-0.825000X0.150000X0.825000X0*%
%ADD21R,1.000000X1.250000*%
%ADD22C,1.982000*%
%ADD23C,2.490000*%
%ADD24RoundRect,0.200000X0.200000X0.275000X-0.200000X0.275000X-0.200000X-0.275000X0.200000X-0.275000X0*%
%ADD25C,0.900000*%
%ADD26R,1.100000X1.300000*%
%ADD27O,1.100000X1.300000*%
%ADD28O,2.700000X1.500000*%
%ADD29RoundRect,0.200000X-0.275000X0.200000X-0.275000X-0.200000X0.275000X-0.200000X0.275000X0.200000X0*%
%ADD30C,0.650000*%
%ADD31RoundRect,0.150000X-0.150000X-0.425000X0.150000X-0.425000X0.150000X0.425000X-0.150000X0.425000X0*%
%ADD32RoundRect,0.075000X-0.075000X-0.500000X0.075000X-0.500000X0.075000X0.500000X-0.075000X0.500000X0*%
%ADD33O,1.000000X2.100000*%
%ADD34O,1.000000X1.800000*%
%ADD35RoundRect,0.150000X0.587500X0.150000X-0.587500X0.150000X-0.587500X-0.150000X0.587500X-0.150000X0*%
%ADD36RoundRect,0.140000X-0.140000X-0.170000X0.140000X-0.170000X0.140000X0.170000X-0.140000X0.170000X0*%
%ADD37RoundRect,0.135000X-0.185000X0.135000X-0.185000X-0.135000X0.185000X-0.135000X0.185000X0.135000X0*%
%ADD38RoundRect,0.250000X0.325000X0.650000X-0.325000X0.650000X-0.325000X-0.650000X0.325000X-0.650000X0*%
%ADD39RoundRect,0.135000X-0.135000X-0.185000X0.135000X-0.185000X0.135000X0.185000X-0.135000X0.185000X0*%
%ADD40R,1.500000X0.900000*%
%ADD41R,0.900000X1.500000*%
%ADD42C,0.600000*%
%ADD43R,3.800000X3.800000*%
%ADD44RoundRect,0.218750X0.256250X-0.218750X0.256250X0.218750X-0.256250X0.218750X-0.256250X-0.218750X0*%
%ADD45RoundRect,0.200000X-0.200000X-0.275000X0.200000X-0.275000X0.200000X0.275000X-0.200000X0.275000X0*%
%ADD46RoundRect,0.150000X0.150000X-0.512500X0.150000X0.512500X-0.150000X0.512500X-0.150000X-0.512500X0*%
%ADD47C,2.300000*%
%ADD48R,2.410000X4.020000*%
%ADD49O,2.410000X4.020000*%
G04 APERTURE END LIST*
D10*
%TO.C,C313*%
X96000000Y-57410000D03*
X96000000Y-58370000D03*
%TD*%
D11*
%TO.C,C304*%
X132000000Y-109650000D03*
X132000000Y-108690000D03*
%TD*%
D12*
%TO.C,SW304*%
X196000000Y-81500000D03*
X196000000Y-90500000D03*
D13*
X188850000Y-83500000D03*
X203150000Y-83500000D03*
X188850000Y-88500000D03*
X203150000Y-88500000D03*
%TD*%
D11*
%TO.C,C305*%
X133500000Y-109650000D03*
X133500000Y-108690000D03*
%TD*%
D14*
%TO.C,R302*%
X190980000Y-70630000D03*
X190980000Y-69610000D03*
%TD*%
D10*
%TO.C,C312*%
X206000000Y-86410000D03*
X206000000Y-87370000D03*
%TD*%
%TO.C,C203*%
X123400000Y-50520000D03*
X123400000Y-51480000D03*
%TD*%
D15*
%TO.C,C301*%
X143730000Y-108850000D03*
X142770000Y-108850000D03*
%TD*%
D11*
%TO.C,C303*%
X130500000Y-109650000D03*
X130500000Y-108690000D03*
%TD*%
D16*
%TO.C,R205*%
X157525000Y-119500000D03*
X156505000Y-119500000D03*
%TD*%
D14*
%TO.C,R307*%
X91000000Y-70630000D03*
X91000000Y-69610000D03*
%TD*%
D10*
%TO.C,C316*%
X96000000Y-86725000D03*
X96000000Y-87685000D03*
%TD*%
D12*
%TO.C,SW307*%
X101000000Y-66500000D03*
X101000000Y-75500000D03*
D13*
X93850000Y-68500000D03*
X108150000Y-68500000D03*
X93850000Y-73500000D03*
X108150000Y-73500000D03*
%TD*%
D14*
%TO.C,R301*%
X206000000Y-55630000D03*
X206000000Y-54610000D03*
%TD*%
D10*
%TO.C,C314*%
X80720000Y-72000000D03*
X80720000Y-72960000D03*
%TD*%
D17*
%TO.C,Q103*%
X127137500Y-115662500D03*
X125237500Y-115662500D03*
X126187500Y-117537500D03*
%TD*%
D18*
%TO.C,C201*%
X127700000Y-49075000D03*
X127700000Y-47525000D03*
%TD*%
D10*
%TO.C,C315*%
X91000000Y-72040000D03*
X91000000Y-73000000D03*
%TD*%
D15*
%TO.C,C113*%
X122080000Y-114137500D03*
X121120000Y-114137500D03*
%TD*%
D10*
%TO.C,C309*%
X206000000Y-57040000D03*
X206000000Y-58000000D03*
%TD*%
D12*
%TO.C,SW303*%
X211000000Y-66500000D03*
X211000000Y-75500000D03*
D13*
X203850000Y-68500000D03*
X218150000Y-68500000D03*
X203850000Y-73500000D03*
X218150000Y-73500000D03*
%TD*%
D19*
%TO.C,U104*%
X120462500Y-115687500D03*
X120462500Y-116637500D03*
X120462500Y-117587500D03*
X122737500Y-117587500D03*
X122737500Y-116637500D03*
X122737500Y-115687500D03*
%TD*%
D20*
%TO.C,U203*%
X161910000Y-112150000D03*
X160640000Y-112150000D03*
X159370000Y-112150000D03*
X158100000Y-112150000D03*
X156830000Y-112150000D03*
X155560000Y-112150000D03*
X154290000Y-112150000D03*
X153020000Y-112150000D03*
X153020000Y-117100000D03*
X154290000Y-117100000D03*
X155560000Y-117100000D03*
X156830000Y-117100000D03*
X158100000Y-117100000D03*
X159370000Y-117100000D03*
X160640000Y-117100000D03*
X161910000Y-117100000D03*
%TD*%
D21*
%TO.C,SW201*%
X121300000Y-59775000D03*
X121300000Y-52025000D03*
%TD*%
D10*
%TO.C,C310*%
X191000000Y-72040000D03*
X191000000Y-73000000D03*
%TD*%
D15*
%TO.C,C111*%
X122080000Y-119037500D03*
X121120000Y-119037500D03*
%TD*%
D22*
%TO.C,JS302*%
X177825000Y-96300000D03*
X184175000Y-96300000D03*
X177825000Y-101380000D03*
X184175000Y-101380000D03*
X178460000Y-119160000D03*
X181000000Y-119160000D03*
X183540000Y-119160000D03*
D23*
X173380000Y-102332500D03*
X173380000Y-115667500D03*
X188620000Y-115667500D03*
X188620000Y-102332500D03*
D22*
X170840000Y-106460000D03*
X170840000Y-109000000D03*
X170840000Y-111540000D03*
%TD*%
D24*
%TO.C,R202*%
X134605000Y-117762500D03*
X132955000Y-117762500D03*
%TD*%
D14*
%TO.C,R306*%
X80720000Y-70590000D03*
X80720000Y-69570000D03*
%TD*%
D25*
%TO.C,U301*%
X120900000Y-84132500D03*
X120900000Y-107232500D03*
X161100000Y-84132500D03*
X161100000Y-107232500D03*
D26*
X129000000Y-107082500D03*
D27*
X130500000Y-107082500D03*
X132000000Y-107082500D03*
X133500000Y-107082500D03*
X135000000Y-107082500D03*
X136500000Y-107082500D03*
X138000000Y-107082500D03*
X139500000Y-107082500D03*
X141000000Y-107082500D03*
X142500000Y-107082500D03*
X144000000Y-107082500D03*
X145500000Y-107082500D03*
X147000000Y-107082500D03*
X148500000Y-107082500D03*
X150000000Y-107082500D03*
X151500000Y-107082500D03*
X153000000Y-107082500D03*
D28*
X123700000Y-105282500D03*
X158300000Y-105282500D03*
%TD*%
D14*
%TO.C,R308*%
X96000000Y-85315000D03*
X96000000Y-84295000D03*
%TD*%
D29*
%TO.C,R104*%
X156200000Y-74605000D03*
X156200000Y-76255000D03*
%TD*%
D30*
%TO.C,J201*%
X138090000Y-118500000D03*
X143870000Y-118500000D03*
D31*
X137780000Y-117425000D03*
X138580000Y-117425000D03*
D32*
X139730000Y-117425000D03*
X140730000Y-117425000D03*
X141230000Y-117425000D03*
X142230000Y-117425000D03*
D31*
X143380000Y-117425000D03*
X144180000Y-117425000D03*
X144180000Y-117425000D03*
X143380000Y-117425000D03*
D32*
X142730000Y-117425000D03*
X141730000Y-117425000D03*
X140230000Y-117425000D03*
X139230000Y-117425000D03*
D31*
X138580000Y-117425000D03*
X137780000Y-117425000D03*
D33*
X136660000Y-118000000D03*
D34*
X136660000Y-122180000D03*
D33*
X145300000Y-118000000D03*
D34*
X145300000Y-122180000D03*
%TD*%
D35*
%TO.C,Q202*%
X165497500Y-121650000D03*
X165497500Y-119750000D03*
X163622500Y-120700000D03*
%TD*%
D12*
%TO.C,SW101*%
X141000000Y-77800000D03*
X141000000Y-68800000D03*
D13*
X148150000Y-75800000D03*
X133850000Y-75800000D03*
X148150000Y-70800000D03*
X133850000Y-70800000D03*
%TD*%
D36*
%TO.C,C308*%
X139770000Y-108850000D03*
X140730000Y-108850000D03*
%TD*%
D11*
%TO.C,C306*%
X135000000Y-109650000D03*
X135000000Y-108690000D03*
%TD*%
D14*
%TO.C,R303*%
X201000000Y-70590000D03*
X201000000Y-69570000D03*
%TD*%
%TO.C,R305*%
X96000000Y-56000000D03*
X96000000Y-54980000D03*
%TD*%
D36*
%TO.C,C307*%
X136760000Y-108850000D03*
X137720000Y-108850000D03*
%TD*%
D22*
%TO.C,JS301*%
X97825000Y-96300000D03*
X104175000Y-96300000D03*
X97825000Y-101380000D03*
X104175000Y-101380000D03*
X98460000Y-119160000D03*
X101000000Y-119160000D03*
X103540000Y-119160000D03*
D23*
X93380000Y-102332500D03*
X93380000Y-115667500D03*
X108620000Y-115667500D03*
X108620000Y-102332500D03*
D22*
X90840000Y-106460000D03*
X90840000Y-109000000D03*
X90840000Y-111540000D03*
%TD*%
D37*
%TO.C,R201*%
X126200000Y-49490000D03*
X126200000Y-50510000D03*
%TD*%
D38*
%TO.C,C112*%
X123175000Y-112137500D03*
X120225000Y-112137500D03*
%TD*%
D39*
%TO.C,R204*%
X159840000Y-119500000D03*
X160860000Y-119500000D03*
%TD*%
D12*
%TO.C,SW306*%
X71000000Y-66500000D03*
X71000000Y-75500000D03*
D13*
X63850000Y-68500000D03*
X78150000Y-68500000D03*
X63850000Y-73500000D03*
X78150000Y-73500000D03*
%TD*%
D12*
%TO.C,SW302*%
X181000000Y-66500000D03*
X181000000Y-75500000D03*
D13*
X173850000Y-68500000D03*
X188150000Y-68500000D03*
X173850000Y-73500000D03*
X188150000Y-73500000D03*
%TD*%
D10*
%TO.C,C204*%
X124700000Y-50520000D03*
X124700000Y-51480000D03*
%TD*%
D12*
%TO.C,SW305*%
X86000000Y-52000000D03*
X86000000Y-61000000D03*
D13*
X78850000Y-54000000D03*
X93150000Y-54000000D03*
X78850000Y-59000000D03*
X93150000Y-59000000D03*
%TD*%
D12*
%TO.C,SW301*%
X196000000Y-52000000D03*
X196000000Y-61000000D03*
D13*
X188850000Y-54000000D03*
X203150000Y-54000000D03*
X188850000Y-59000000D03*
X203150000Y-59000000D03*
%TD*%
D36*
%TO.C,C302*%
X126690000Y-108800000D03*
X127650000Y-108800000D03*
%TD*%
D12*
%TO.C,SW308*%
X86000000Y-81500000D03*
X86000000Y-90500000D03*
D13*
X78850000Y-83500000D03*
X93150000Y-83500000D03*
X78850000Y-88500000D03*
X93150000Y-88500000D03*
%TD*%
D40*
%TO.C,U202*%
X131330000Y-47180000D03*
X131330000Y-48450000D03*
X131330000Y-49720000D03*
X131330000Y-50990000D03*
X131330000Y-52260000D03*
X131330000Y-53530000D03*
X131330000Y-54800000D03*
X131330000Y-56070000D03*
X131330000Y-57340000D03*
X131330000Y-58610000D03*
X131330000Y-59880000D03*
X131330000Y-61150000D03*
X131330000Y-62420000D03*
X131330000Y-63690000D03*
D41*
X134370000Y-64940000D03*
X135640000Y-64940000D03*
X136910000Y-64940000D03*
X138180000Y-64940000D03*
X139450000Y-64940000D03*
X140720000Y-64940000D03*
X141990000Y-64940000D03*
X143260000Y-64940000D03*
X144530000Y-64940000D03*
X145800000Y-64940000D03*
D40*
X148830000Y-63690000D03*
X148830000Y-62420000D03*
X148830000Y-61150000D03*
X148830000Y-59880000D03*
X148830000Y-58610000D03*
X148830000Y-57340000D03*
X148830000Y-56070000D03*
X148830000Y-54800000D03*
X148830000Y-53530000D03*
X148830000Y-52260000D03*
X148830000Y-50990000D03*
X148830000Y-49720000D03*
X148830000Y-48450000D03*
X148830000Y-47180000D03*
D42*
X137180000Y-54200000D03*
X137180000Y-55600000D03*
X137880000Y-53500000D03*
X137880000Y-54900000D03*
X137880000Y-56300000D03*
X138555000Y-54200000D03*
X138555000Y-55600000D03*
D43*
X138580000Y-54900000D03*
D42*
X139280000Y-53500000D03*
X139280000Y-54900000D03*
X139280000Y-56300000D03*
X139980000Y-54200000D03*
X139980000Y-55600000D03*
%TD*%
D35*
%TO.C,Q201*%
X153660000Y-121700000D03*
X153660000Y-119800000D03*
X151785000Y-120750000D03*
%TD*%
D44*
%TO.C,D102*%
X156200000Y-72162500D03*
X156200000Y-70587500D03*
%TD*%
D11*
%TO.C,C206*%
X163765000Y-115205000D03*
X163765000Y-114245000D03*
%TD*%
D10*
%TO.C,C311*%
X201000000Y-72000000D03*
X201000000Y-72960000D03*
%TD*%
D45*
%TO.C,R203*%
X147155000Y-117762500D03*
X148805000Y-117762500D03*
%TD*%
D11*
%TO.C,C202*%
X129200000Y-48380000D03*
X129200000Y-47420000D03*
%TD*%
D14*
%TO.C,R304*%
X206000000Y-85000000D03*
X206000000Y-83980000D03*
%TD*%
D46*
%TO.C,U201*%
X140030000Y-113887500D03*
X140980000Y-113887500D03*
X141930000Y-113887500D03*
X141930000Y-111612500D03*
X140980000Y-111612500D03*
X140030000Y-111612500D03*
%TD*%
D47*
%TO.C,BT101*%
X127770000Y-58865000D03*
X141260000Y-81215000D03*
X154740000Y-58865000D03*
D48*
X115480000Y-76485000D03*
D49*
X115480000Y-63605000D03*
%TD*%
M02*
